<?xml version="1.0" encoding="UTF-8" standalone="no"?>
<!-- Created with Inkscape (http://www.inkscape.org/) -->

<svg
   width="32mm"
   height="15mm"
   viewBox="0 0 32 15"
   version="1.1"
   id="svg3614"
   sodipodi:docname="blinker_switch_down.svg"
   inkscape:export-filename="blinker_switch_down.svg"
   inkscape:export-xdpi="96"
   inkscape:export-ydpi="96"
   xmlns:inkscape="http://www.inkscape.org/namespaces/inkscape"
   xmlns:sodipodi="http://sodipodi.sourceforge.net/DTD/sodipodi-0.dtd"
   xmlns="http://www.w3.org/2000/svg"
   xmlns:svg="http://www.w3.org/2000/svg">
  <sodipodi:namedview
     id="namedview3616"
     pagecolor="#ffffff"
     bordercolor="#000000"
     borderopacity="0.25"
     inkscape:showpageshadow="2"
     inkscape:pageopacity="0.0"
     inkscape:pagecheckerboard="0"
     inkscape:deskcolor="#d1d1d1"
     inkscape:document-units="mm"
     showgrid="false" />
  <defs
     id="defs3611" />
  <g
     inkscape:label="Layer 1"
     inkscape:groupmode="layer"
     id="layer1"
     transform="translate(-31.798448,-59.008778)">
    <g
       id="g638"
       inkscape:transform-center-x="12.709883"
       transform="rotate(-7.5350643,60.645409,66.46193)"
       inkscape:transform-center-y="2.1390713">
      <path
         id="rect4340-6"
         style="fill:#ffffff;fill-opacity:0.4;stroke:#000000;stroke-width:0.740407"
         d="M 60.277965,63.534345 35.827397,62.554848 c -0.734606,-0.02943 -2.600413,1.08162 -2.600413,1.816814 v 4.180536 c 0,0.735194 1.865807,1.846243 2.600413,1.816814 l 24.450568,-0.979495 c 0.734606,-0.02943 2.208614,-0.591872 2.208614,-1.327067 v -3.201038 c 0,-0.735195 -1.474008,-1.297639 -2.208614,-1.327067 z"
         sodipodi:nodetypes="sssssssss"
         inkscape:export-filename="light_switch.svg"
         inkscape:export-xdpi="96"
         inkscape:export-ydpi="96"
         inkscape:transform-center-x="13.171115" />
      <g
         id="g626"
         transform="translate(4.9388635,0.02136432)">
        <path
           d="m 36.664809,67.396241 h 1.203083 c 0.252319,0 0.438815,-0.06948 0.58143,-0.223065 0.131644,-0.138958 0.20478,-0.32911 0.20478,-0.537548 0,-0.321797 -0.146272,-0.515607 -0.486353,-0.647251 0.245005,-0.113361 0.369336,-0.307171 0.369336,-0.58143 0,-0.197466 -0.07314,-0.365679 -0.212094,-0.49001 -0.142615,-0.127987 -0.321797,-0.186496 -0.577773,-0.186496 h -1.082409 z m 0.340081,-1.517568 v -0.848375 h 0.658222 c 0.190153,0 0.2962,0.0256 0.38762,0.09508 0.09508,0.07313 0.146271,0.182839 0.146271,0.329111 0,0.146271 -0.05119,0.255975 -0.146271,0.32911 -0.09142,0.06948 -0.197467,0.09508 -0.38762,0.09508 z m 0,1.217711 V 66.17853 h 0.830091 c 0.299857,0 0.479039,0.171869 0.479039,0.460755 0,0.28523 -0.179182,0.457099 -0.479039,0.457099 z"
           id="path4972"
           style="font-size:74.6667px;white-space:pre;stroke-width:0.0185102" />
        <path
           d="m 39.370832,64.730441 h -0.30717 v 2.6658 h 0.30717 z"
           id="path4974"
           style="font-size:74.6667px;white-space:pre;stroke-width:0.0185102" />
        <path
           d="m 40.175326,65.480083 h -0.303514 v 1.916158 h 0.303514 z m 0,-0.749642 h -0.30717 v 0.383963 h 0.30717 z"
           id="path4976"
           style="font-size:74.6667px;white-space:pre;stroke-width:0.0185102" />
        <path
           d="m 40.69459,65.480083 v 1.916158 h 0.307171 v -1.056813 c 0,-0.391276 0.20478,-0.647251 0.519264,-0.647251 0.241348,0 0.394933,0.146271 0.394933,0.376649 v 1.327415 h 0.303514 v -1.448089 c 0,-0.318141 -0.237692,-0.522921 -0.607027,-0.522921 -0.28523,0 -0.468069,0.109704 -0.636282,0.37665 v -0.321798 z"
           id="path4978"
           style="font-size:74.6667px;white-space:pre;stroke-width:0.0185102" />
        <path
           d="m 42.987396,64.730441 h -0.303513 v 2.6658 h 0.303513 v -0.745985 l 0.2962,-0.292544 0.647252,1.038529 h 0.376649 l -0.782553,-1.254279 0.665536,-0.661879 h -0.391277 l -0.811807,0.811807 z"
           id="path4980"
           style="font-size:74.6667px;white-space:pre;stroke-width:0.0185102" />
        <path
           d="m 46.099324,66.540552 c 0,-0.292543 -0.02194,-0.468069 -0.07679,-0.610684 -0.124331,-0.314484 -0.416874,-0.504637 -0.775239,-0.504637 -0.533892,0 -0.87763,0.405904 -0.87763,1.038528 0,0.632625 0.329111,1.016588 0.870316,1.016588 0.438815,0 0.742328,-0.248662 0.819121,-0.665536 h -0.30717 c -0.08411,0.252318 -0.255976,0.383963 -0.500981,0.383963 -0.19381,0 -0.358365,-0.08776 -0.460755,-0.248662 -0.07314,-0.109703 -0.09873,-0.219407 -0.10239,-0.40956 z M 44.695117,66.29189 c 0.0256,-0.354708 0.241348,-0.585086 0.548519,-0.585086 0.310827,0 0.526577,0.241348 0.526577,0.585086 z"
           id="path4982"
           style="font-size:74.6667px;white-space:pre;stroke-width:0.0185102" />
        <path
           d="m 46.508884,65.480083 v 1.916158 h 0.30717 v -0.994647 c 0.0037,-0.460756 0.19381,-0.665536 0.614341,-0.654566 v -0.310826 c -0.05119,-0.0073 -0.08045,-0.01097 -0.117018,-0.01097 -0.197467,0 -0.347395,0.117017 -0.52292,0.402247 v -0.347395 z"
           id="path4984"
           style="font-size:74.6667px;white-space:pre;stroke-width:0.0185102" />
        <path
           d="m 49.094231,66.013974 c -0.0037,-0.376649 -0.252319,-0.588743 -0.69479,-0.588743 -0.446129,0 -0.735015,0.230378 -0.735015,0.585087 0,0.299856 0.153585,0.442471 0.607027,0.552175 l 0.28523,0.06948 c 0.212094,0.05119 0.2962,0.127987 0.2962,0.263288 0,0.18284 -0.179183,0.303514 -0.446129,0.303514 -0.164555,0 -0.303513,-0.04754 -0.380305,-0.127988 -0.04754,-0.05485 -0.06948,-0.109703 -0.08776,-0.245005 h -0.321797 c 0.01463,0.442472 0.263289,0.654566 0.764269,0.654566 0.482696,0 0.789866,-0.237691 0.789866,-0.607027 0,-0.28523 -0.160898,-0.442472 -0.541205,-0.533892 l -0.292542,-0.06948 c -0.248662,-0.05851 -0.354709,-0.138957 -0.354709,-0.274259 0,-0.179182 0.157242,-0.288886 0.405904,-0.288886 0.245004,0 0.376649,0.106047 0.383962,0.30717 z"
           id="path4986"
           style="font-size:74.6667px;white-space:pre;stroke-width:0.0185102" />
      </g>
    </g>
  </g>
</svg>
