<?xml version="1.0" encoding="UTF-8" standalone="no"?>
<!-- Created with Inkscape (http://www.inkscape.org/) -->

<svg
   width="37.599876mm"
   height="20.99382mm"
   viewBox="0 0 37.599876 20.99382"
   version="1.1"
   id="svg5"
   xmlns="http://www.w3.org/2000/svg"
   xmlns:svg="http://www.w3.org/2000/svg">
  <defs
     id="defs2" />
  <g
     id="layer1"
     transform="translate(-17.97889,-111.18183)">
    <path
       id="rect111"
       style="fill:#ffffff;fill-opacity:0.399317;fill-rule:evenodd;stroke:#000000;stroke-width:1.39958"
       d="m 24.182641,111.88162 c -0.775367,0 -1.399641,0.62427 -1.399641,1.39964 v 3.71767 h -2.704679 c -0.775368,0 -1.399641,0.62427 -1.399641,1.39965 v 6.56034 c 0,0.77536 0.624273,1.3995 1.399641,1.3995 H 22.783 v 3.7178 c 0,0.77537 0.624274,1.39964 1.399641,1.39964 h 25.192371 c 0.775367,0 1.399643,-0.62427 1.399643,-1.39964 v -3.7178 h 2.704679 c 0.775365,0 1.39964,-0.62414 1.39964,-1.3995 v -6.56034 c 0,-0.77538 -0.624275,-1.39965 -1.39964,-1.39965 h -2.704679 v -3.71767 c 0,-0.77537 -0.624276,-1.39964 -1.399643,-1.39964 z" />
    <path
       style="fill:none;stroke:#000000;stroke-width:1.11967;stroke-linecap:butt;stroke-linejoin:miter;stroke-dasharray:none;stroke-opacity:1"
       d="m 18.156107,123.90058 h 4.65852"
       id="path8993" />
    <path
       style="fill:none;stroke:#000000;stroke-width:1.11967;stroke-linecap:butt;stroke-linejoin:miter;stroke-dasharray:none;stroke-opacity:1"
       d="m 18.156107,119.4569 h 4.65852"
       id="path8993-5" />
    <path
       style="fill:none;stroke:#000000;stroke-width:1.11967;stroke-linecap:butt;stroke-linejoin:miter;stroke-dasharray:none;stroke-opacity:1"
       d="m 50.743033,123.90058 h 4.658522"
       id="path8993-3" />
    <path
       style="fill:none;stroke:#000000;stroke-width:1.11967;stroke-linecap:butt;stroke-linejoin:miter;stroke-dasharray:none;stroke-opacity:1"
       d="m 50.743033,119.4569 h 4.658522"
       id="path8993-56" />
    <path
       style="fill:none;stroke:#000000;stroke-width:1.11967;stroke-linecap:butt;stroke-linejoin:miter;stroke-dasharray:none;stroke-opacity:1"
       d="m 50.743033,121.67874 h 4.658522"
       id="path8993-2" />
    <path
       style="fill:none;stroke:#000000;stroke-width:1.11967;stroke-linecap:butt;stroke-linejoin:miter;stroke-dasharray:none;stroke-opacity:1"
       d="m 18.156107,121.67874 h 4.65852"
       id="path8993-9" />
    <rect
       style="fill:#00ff00;fill-opacity:1;stroke:#000000;stroke-width:0.977914;stroke-dasharray:none"
       id="rect9096"
       width="23.112263"
       height="11.096384"
       x="25.222694"
       y="117.9714"
       rx="0.56328738" />
    <g
       aria-label="Body"
       id="text491"
       style="font-size:3.52778px;line-height:1.25;stroke-width:0.264583"
       transform="matrix(1.2,0,0,1.2,-27.458782,-18.370296)">
      <path
         d="m 50.224051,109.58641 q 0.472722,0 0.712611,0.14112 0.243416,0.13758 0.243416,0.4833 0,0.22225 -0.123472,0.37042 -0.123472,0.14464 -0.356305,0.18697 v 0.0176 q 0.15875,0.0247 0.28575,0.0917 0.130527,0.067 0.204611,0.1905 0.07408,0.12347 0.07408,0.32103 0,0.34219 -0.236361,0.52917 -0.232833,0.18697 -0.638528,0.18697 h -0.885472 v -2.51884 z m 0.0635,1.07245 q 0.324555,0 0.4445,-0.10231 0.119944,-0.10583 0.119944,-0.31044 0,-0.20814 -0.148167,-0.29633 -0.144639,-0.0917 -0.465666,-0.0917 h -0.416278 v 0.80081 z m -0.465667,0.26458 v 0.9137 h 0.508 q 0.335139,0 0.465667,-0.13053 0.130527,-0.13053 0.130527,-0.3422 0,-0.19755 -0.137583,-0.3175 -0.134056,-0.12347 -0.483306,-0.12347 z"
         id="path941" />
      <path
         d="m 53.399049,111.15628 q 0,0.46919 -0.239889,0.72672 -0.236361,0.25753 -0.642055,0.25753 -0.250473,0 -0.448028,-0.11289 -0.194028,-0.11642 -0.306917,-0.33514 -0.112889,-0.22225 -0.112889,-0.53622 0,-0.4692 0.236361,-0.7232 0.236362,-0.254 0.642056,-0.254 0.257528,0 0.451556,0.11642 0.197555,0.11289 0.306916,0.33161 0.112889,0.21519 0.112889,0.52917 z m -1.42875,0 q 0,0.33513 0.130528,0.53269 0.134055,0.19403 0.423333,0.19403 0.28575,0 0.419806,-0.19403 0.134055,-0.19756 0.134055,-0.53269 0,-0.33514 -0.134055,-0.52564 -0.134056,-0.1905 -0.423334,-0.1905 -0.289277,0 -0.419805,0.1905 -0.130528,0.1905 -0.130528,0.52564 z"
         id="path943" />
      <path
         d="m 54.559686,112.14053 q -0.352778,0 -0.564444,-0.24342 -0.211667,-0.24695 -0.211667,-0.73378 0,-0.48683 0.211667,-0.73378 0.215194,-0.25047 0.567972,-0.25047 0.218722,0 0.356305,0.0811 0.141111,0.0811 0.229306,0.19756 h 0.02117 q -0.0035,-0.0459 -0.01411,-0.13406 -0.0071,-0.0917 -0.0071,-0.14464 v -0.75494 h 0.310444 v 2.68111 h -0.250472 l -0.04586,-0.254 h -0.01411 q -0.08467,0.11994 -0.225778,0.20461 -0.141111,0.0847 -0.363361,0.0847 z m 0.04939,-0.25753 q 0.299861,0 0.419805,-0.16228 0.123473,-0.16581 0.123473,-0.49742 v -0.0564 q 0,-0.35278 -0.116417,-0.53975 -0.116417,-0.1905 -0.430389,-0.1905 -0.250472,0 -0.377472,0.20108 -0.123472,0.19756 -0.123472,0.5327 0,0.33866 0.123472,0.52564 0.127,0.18697 0.381,0.18697 z"
         id="path945" />
      <path
         d="m 55.762657,110.21436 h 0.331611 l 0.409223,1.07597 q 0.05292,0.14111 0.09525,0.27164 0.04233,0.127 0.0635,0.24342 h 0.01411 q 0.02117,-0.0882 0.06703,-0.22931 0.04586,-0.14464 0.09525,-0.28928 l 0.384528,-1.07244 h 0.335139 l -0.814917,2.15194 q -0.09878,0.26811 -0.257527,0.42686 -0.155222,0.15875 -0.430389,0.15875 -0.08467,0 -0.148167,-0.0106 -0.0635,-0.007 -0.109361,-0.0176 v -0.24694 q 0.03881,0.007 0.09172,0.0141 0.05645,0.007 0.116417,0.007 0.162278,0 0.261056,-0.0917 0.102305,-0.0917 0.15875,-0.24341 l 0.09878,-0.25048 z"
         id="path947" />
    </g>
  </g>
</svg>
