<?xml version="1.0" encoding="UTF-8" standalone="no"?>
<!-- Created with Inkscape (http://www.inkscape.org/) -->

<svg
   width="22mm"
   height="27mm"
   viewBox="0 0 22 27"
   version="1.1"
   id="svg3614"
   inkscape:export-filename="gas_pedal.svg"
   inkscape:export-xdpi="96"
   inkscape:export-ydpi="96"
   sodipodi:docname="brake_pedal.svg"
   xmlns:inkscape="http://www.inkscape.org/namespaces/inkscape"
   xmlns:sodipodi="http://sodipodi.sourceforge.net/DTD/sodipodi-0.dtd"
   xmlns="http://www.w3.org/2000/svg"
   xmlns:svg="http://www.w3.org/2000/svg">
  <sodipodi:namedview
     id="namedview3616"
     pagecolor="#ffffff"
     bordercolor="#000000"
     borderopacity="0.25"
     inkscape:showpageshadow="2"
     inkscape:pageopacity="0.0"
     inkscape:pagecheckerboard="0"
     inkscape:deskcolor="#d1d1d1"
     inkscape:document-units="mm"
     showgrid="false" />
  <defs
     id="defs3611" />
  <g
     inkscape:label="Layer 1"
     inkscape:groupmode="layer"
     id="layer1"
     transform="translate(-36.122437,-39.799564)">
    <rect
       style="fill:#ffffff;fill-opacity:0.4;stroke:#000000;stroke-width:2;stroke-dasharray:none"
       id="rect6469"
       width="20"
       height="25"
       x="37.122437"
       y="40.799564"
       ry="7" />
    <g
       aria-label="Brake"
       id="text6473"
       style="font-size:5.64444px;stroke-width:2">
      <path
         d="m 40.165664,55.32592 h 1.857021 c 0.389466,0 0.677333,-0.107244 0.897466,-0.344311 0.2032,-0.214488 0.316088,-0.507999 0.316088,-0.829732 0,-0.496711 -0.225777,-0.795867 -0.75071,-0.999066 0.378177,-0.174978 0.570088,-0.474133 0.570088,-0.897466 0,-0.3048 -0.112888,-0.564444 -0.327377,-0.756355 -0.220133,-0.197556 -0.496711,-0.287867 -0.891822,-0.287867 h -1.670754 z m 0.524933,-2.342443 v -1.30951 h 1.015999 c 0.293511,0 0.4572,0.03951 0.598311,0.146756 0.146755,0.112889 0.225777,0.282222 0.225777,0.507999 0,0.225778 -0.07902,0.395111 -0.225777,0.508 -0.141111,0.107244 -0.3048,0.146755 -0.598311,0.146755 z m 0,1.879599 v -1.416754 h 1.281288 c 0.462844,0 0.739422,0.265288 0.739422,0.711199 0,0.440266 -0.276578,0.705555 -0.739422,0.705555 z"
         id="path6726" />
      <path
         d="m 43.87406,52.368233 v 2.957687 h 0.474133 v -1.535288 c 0.0056,-0.711199 0.299156,-1.027288 0.948266,-1.010354 V 52.3005 c -0.07902,-0.01129 -0.124178,-0.01693 -0.180622,-0.01693 -0.3048,0 -0.536222,0.180622 -0.807155,0.620888 v -0.536222 z"
         id="path6728" />
      <path
         d="m 48.361393,55.049343 c -0.0508,0.01129 -0.07338,0.01129 -0.1016,0.01129 -0.163689,0 -0.254,-0.08467 -0.254,-0.231422 v -1.738487 c 0,-0.524933 -0.383822,-0.807155 -1.111954,-0.807155 -0.434622,0 -0.778933,0.124178 -0.982133,0.344311 -0.135467,0.1524 -0.191911,0.321733 -0.2032,0.615244 h 0.474133 c 0.03951,-0.361244 0.254,-0.524933 0.694266,-0.524933 0.428978,0 0.6604,0.158044 0.6604,0.440266 v 0.124178 c -0.0056,0.2032 -0.107245,0.276577 -0.491066,0.327377 -0.666044,0.08467 -0.767644,0.107245 -0.948266,0.180622 -0.344311,0.146756 -0.519289,0.4064 -0.519289,0.790222 0,0.536222 0.372533,0.874888 0.970844,0.874888 0.372533,0 0.671688,-0.129822 1.00471,-0.434622 0.03387,0.3048 0.180622,0.434622 0.485422,0.434622 0.1016,0 0.163689,-0.01129 0.321733,-0.0508 z m -0.824088,-0.654756 c 0,0.158045 -0.04516,0.254 -0.186267,0.383822 -0.191911,0.174978 -0.423333,0.265289 -0.69991,0.265289 -0.366889,0 -0.581378,-0.174978 -0.581378,-0.474133 0,-0.310444 0.2032,-0.468488 0.7112,-0.541866 0.502355,-0.06773 0.59831,-0.09031 0.756355,-0.163689 z"
         id="path6730" />
      <path
         d="m 49.275791,51.211123 h -0.468488 v 4.114797 h 0.468488 v -1.151466 l 0.4572,-0.451555 0.999066,1.603021 h 0.581377 l -1.20791,-1.936043 1.027288,-1.021644 h -0.603955 l -1.253066,1.253066 z"
         id="path6732" />
      <path
         d="m 54.07921,54.005121 c 0,-0.451555 -0.03387,-0.722488 -0.118534,-0.942621 -0.191911,-0.485422 -0.643466,-0.778933 -1.196621,-0.778933 -0.824088,0 -1.354666,0.626533 -1.354666,1.603021 0,0.976488 0.508,1.569154 1.343377,1.569154 0.677333,0 1.145822,-0.383822 1.264355,-1.027288 h -0.474133 c -0.129822,0.389466 -0.395111,0.592666 -0.773288,0.592666 -0.299156,0 -0.553156,-0.135466 -0.7112,-0.383822 -0.112889,-0.169333 -0.1524,-0.338666 -0.158044,-0.632177 z m -2.167465,-0.383822 c 0.03951,-0.547511 0.372533,-0.90311 0.846666,-0.90311 0.479777,0 0.812799,0.372533 0.812799,0.90311 z"
         id="path6734" />
    </g>
    <g
       id="g6724"
       transform="translate(-0.11411948)">
      <path
         style="fill:#000000;stroke:#000000;stroke-width:1;stroke-dasharray:none"
         d="m 47.236556,41.133809 v 4.619879"
         id="path6675" />
      <path
         style="fill:#000000;stroke:#000000;stroke-width:1;stroke-dasharray:none"
         d="m 44.061554,41.133809 v 4.619879"
         id="path6675-3" />
      <path
         style="fill:#000000;stroke:#000000;stroke-width:1;stroke-dasharray:none"
         d="m 50.411558,41.133809 v 4.619879"
         id="path6675-3-5" />
    </g>
  </g>
</svg>
