<?xml version="1.0" encoding="UTF-8" standalone="no"?>
<!-- Created with Inkscape (http://www.inkscape.org/) -->

<svg
   width="67.165031mm"
   height="12.704519mm"
   viewBox="0 0 67.165031 12.704519"
   version="1.1"
   id="svg5"
   sodipodi:docname="reverse_steering_attack_button.svg"
   inkscape:version="1.2.2 (b0a8486541, 2022-12-01)"
   inkscape:export-filename="rpm_attack_button.svg"
   inkscape:export-xdpi="96"
   inkscape:export-ydpi="96"
   xmlns:inkscape="http://www.inkscape.org/namespaces/inkscape"
   xmlns:sodipodi="http://sodipodi.sourceforge.net/DTD/sodipodi-0.dtd"
   xmlns="http://www.w3.org/2000/svg"
   xmlns:svg="http://www.w3.org/2000/svg">
  <sodipodi:namedview
     id="namedview7"
     pagecolor="#ffffff"
     bordercolor="#666666"
     borderopacity="1.0"
     inkscape:showpageshadow="2"
     inkscape:pageopacity="0.0"
     inkscape:pagecheckerboard="0"
     inkscape:deskcolor="#d1d1d1"
     inkscape:document-units="mm"
     showgrid="false"
     inkscape:zoom="1.9951192"
     inkscape:cx="156.88286"
     inkscape:cy="26.314218"
     inkscape:window-width="1898"
     inkscape:window-height="1008"
     inkscape:window-x="0"
     inkscape:window-y="0"
     inkscape:window-maximized="1"
     inkscape:current-layer="layer1" />
  <defs
     id="defs2" />
  <g
     inkscape:label="Layer 1"
     inkscape:groupmode="layer"
     id="layer1"
     transform="translate(-22.717711,-39.949462)">
    <path
       id="rect8286"
       style="fill:#ffffff;fill-opacity:0.398449;stroke:#000000;stroke-width:0.964999;stroke-linecap:round"
       d="m 26.200211,40.431961 h 60.200035 c 1.662,0 3,1.338 3,3 v 5.739519 c 0,1.662 -1.338,3 -3,3 H 26.200211 c -1.662,0 -3,-1.338 -3,-3 v -5.739519 c 0,-1.662 1.338,-3 3,-3 z" />
    <g
       aria-label="Brake Attack"
       id="text8665"
       style="font-size:7.76111px;line-height:1.25;stroke-width:0.264583"
       transform="translate(-45.599769,24.009607)">
      <path
         d="m 81.007084,19.661096 q 1.039989,0 1.567745,0.310445 0.535517,0.302683 0.535517,1.063272 0,0.48895 -0.271639,0.814917 -0.271639,0.318205 -0.783873,0.411339 v 0.0388 q 0.349251,0.05433 0.628651,0.201789 0.287161,0.147461 0.450144,0.4191 0.162983,0.271639 0.162983,0.706261 0,0.752828 -0.519994,1.164167 -0.512233,0.411339 -1.404761,0.411339 h -1.948039 v -5.541434 z m 0.1397,2.359378 q 0.714023,0 0.977901,-0.225072 0.263877,-0.232833 0.263877,-0.682978 0,-0.457905 -0.325966,-0.651933 -0.318206,-0.201789 -1.024467,-0.201789 h -0.915811 v 1.761772 z m -1.024466,0.582084 v 2.010127 h 1.1176 q 0.737305,0 1.024467,-0.287161 0.287161,-0.287161 0.287161,-0.752827 0,-0.434623 -0.302684,-0.6985 -0.294922,-0.271639 -1.063272,-0.271639 z"
         id="path10183" />
      <path
         d="m 86.315681,20.964963 q 0.116417,0 0.248356,0.01552 0.1397,0.0078 0.240594,0.03104 l -0.08537,0.62865 q -0.100894,-0.02328 -0.225072,-0.03881 -0.116417,-0.01552 -0.225072,-0.01552 -0.318206,0 -0.597606,0.178506 -0.2794,0.170744 -0.450144,0.48895 -0.162984,0.310444 -0.162984,0.729544 v 2.219678 h -0.682977 v -4.159956 h 0.5588 l 0.07761,0.760589 h 0.03104 q 0.201789,-0.341489 0.519995,-0.589844 0.318205,-0.248356 0.752827,-0.248356 z"
         id="path10185" />
      <path
         d="m 89.001023,20.972724 q 0.760589,0 1.125362,0.333728 0.364772,0.333728 0.364772,1.063272 v 2.832806 h -0.496711 l -0.131939,-0.589845 h -0.03104 q -0.271639,0.341489 -0.574322,0.504473 -0.294922,0.162983 -0.822678,0.162983 -0.566561,0 -0.939094,-0.294922 -0.372534,-0.302684 -0.372534,-0.939095 0,-0.620889 0.48895,-0.954616 0.488951,-0.341489 1.505656,-0.372534 l 0.706261,-0.02328 v -0.248356 q 0,-0.519994 -0.225072,-0.721783 -0.225072,-0.201789 -0.636411,-0.201789 -0.325967,0 -0.620889,0.100895 -0.294922,0.09313 -0.551039,0.217311 l -0.20955,-0.512234 q 0.271639,-0.147461 0.644172,-0.248355 0.372534,-0.108656 0.776111,-0.108656 z m 0.201789,2.219678 q -0.776111,0.03104 -1.078794,0.248356 -0.294922,0.217311 -0.294922,0.613127 0,0.34925 0.20955,0.512234 0.217311,0.162983 0.551039,0.162983 0.527755,0 0.877005,-0.287161 0.34925,-0.294922 0.34925,-0.900289 v -0.372533 z"
         id="path10187" />
      <path
         d="m 92.454724,22.385247 q 0,0.124177 -0.01552,0.325966 -0.0078,0.201789 -0.01552,0.34925 h 0.03104 q 0.04657,-0.06209 0.1397,-0.178505 0.09313,-0.116417 0.186267,-0.232834 0.100894,-0.124177 0.170744,-0.201789 l 1.32715,-1.404761 h 0.799395 l -1.684161,1.777295 1.800577,2.382661 h -0.822677 l -1.443567,-1.940278 -0.473428,0.411339 v 1.528939 h -0.675217 v -5.898445 h 0.675217 z"
         id="path10189" />
      <path
         d="m 97.530494,20.964963 q 0.535517,0 0.915811,0.232833 0.388056,0.232834 0.589845,0.659695 0.20955,0.4191 0.20955,0.985661 v 0.411339 h -2.848328 q 0.01552,0.706261 0.357011,1.078794 0.34925,0.364773 0.970139,0.364773 0.395817,0 0.6985,-0.06985 0.310445,-0.07761 0.636411,-0.217311 v 0.597605 q -0.318205,0.1397 -0.62865,0.201789 -0.310444,0.06985 -0.737305,0.06985 -0.589845,0 -1.04775,-0.240594 -0.450145,-0.240595 -0.706262,-0.714023 -0.248355,-0.481189 -0.248355,-1.171927 0,-0.682978 0.225072,-1.171928 0.232833,-0.48895 0.644172,-0.752828 0.4191,-0.263878 0.970139,-0.263878 z m -0.0078,0.5588 q -0.48895,0 -0.776111,0.318206 -0.2794,0.310444 -0.333728,0.869244 h 2.118784 q -0.0078,-0.527755 -0.248356,-0.853722 -0.240594,-0.333728 -0.760589,-0.333728 z"
         id="path10191" />
      <path
         d="m 105.88921,25.20253 -0.66746,-1.715206 h -2.19639 l -0.6597,1.715206 h -0.70626 l 2.16535,-5.564717 h 0.62865 l 2.15759,5.564717 z m -1.4979,-4.012495 q -0.0233,-0.06209 -0.0776,-0.225072 -0.0543,-0.162983 -0.10865,-0.333728 -0.0466,-0.178505 -0.0776,-0.271639 -0.0543,0.240595 -0.12417,0.473428 -0.0699,0.225072 -0.11642,0.357011 l -0.62865,1.6764 h 1.75401 z"
         id="path10193" />
      <path
         d="m 108.66768,24.721341 q 0.15523,0 0.31821,-0.02328 0.16298,-0.03104 0.26388,-0.06209 v 0.519994 q -0.10866,0.05433 -0.31045,0.08537 -0.20179,0.03881 -0.38805,0.03881 -0.32597,0 -0.60537,-0.108656 -0.27164,-0.116416 -0.44238,-0.395816 -0.17075,-0.2794 -0.17075,-0.783872 V 21.57033 h -0.58984 v -0.325967 l 0.5976,-0.271639 0.27164,-0.884766 h 0.40358 v 0.954616 h 1.20297 v 0.527756 h -1.20297 v 2.405944 q 0,0.380295 0.17851,0.566561 0.18626,0.178506 0.47342,0.178506 z"
         id="path10195" />
      <path
         d="m 111.46944,24.721341 q 0.15523,0 0.31821,-0.02328 0.16298,-0.03104 0.26388,-0.06209 v 0.519994 q -0.10866,0.05433 -0.31045,0.08537 -0.20179,0.03881 -0.38805,0.03881 -0.32597,0 -0.60537,-0.108656 -0.27164,-0.116416 -0.44238,-0.395816 -0.17075,-0.2794 -0.17075,-0.783872 V 21.57033 h -0.58984 v -0.325967 l 0.5976,-0.271639 0.27164,-0.884766 h 0.40358 v 0.954616 h 1.20297 v 0.527756 h -1.20297 v 2.405944 q 0,0.380295 0.17851,0.566561 0.18626,0.178506 0.47342,0.178506 z"
         id="path10197" />
      <path
         d="m 114.45747,20.972724 q 0.76059,0 1.12537,0.333728 0.36477,0.333728 0.36477,1.063272 v 2.832806 h -0.49671 l -0.13194,-0.589845 h -0.0311 q -0.27164,0.341489 -0.57432,0.504473 -0.29492,0.162983 -0.82268,0.162983 -0.56656,0 -0.93909,-0.294922 -0.37253,-0.302684 -0.37253,-0.939095 0,-0.620889 0.48895,-0.954616 0.48895,-0.341489 1.50565,-0.372534 l 0.70626,-0.02328 v -0.248356 q 0,-0.519994 -0.22507,-0.721783 -0.22507,-0.201789 -0.63641,-0.201789 -0.32597,0 -0.62089,0.100895 -0.29492,0.09313 -0.55104,0.217311 l -0.20955,-0.512234 q 0.27164,-0.147461 0.64417,-0.248355 0.37254,-0.108656 0.77611,-0.108656 z m 0.20179,2.219678 q -0.77611,0.03104 -1.07879,0.248356 -0.29492,0.217311 -0.29492,0.613127 0,0.34925 0.20955,0.512234 0.21731,0.162983 0.55104,0.162983 0.52775,0 0.877,-0.287161 0.34925,-0.294922 0.34925,-0.900289 v -0.372533 z"
         id="path10199" />
      <path
         d="m 118.9046,25.280141 q -0.55104,0 -0.98566,-0.225072 -0.42687,-0.225072 -0.67522,-0.6985 -0.2406,-0.473428 -0.2406,-1.210734 0,-0.76835 0.25612,-1.249538 0.25612,-0.481189 0.69074,-0.706262 0.44238,-0.225072 1.00118,-0.225072 0.31821,0 0.61313,0.06985 0.29492,0.06209 0.48119,0.155222 l -0.20955,0.566562 q -0.18627,-0.06985 -0.43462,-0.131939 -0.24836,-0.06209 -0.46567,-0.06209 -1.22625,0 -1.22625,1.575505 0,0.752828 0.29492,1.156406 0.30268,0.395817 0.89253,0.395817 0.34148,0 0.5976,-0.06985 0.26388,-0.06985 0.48119,-0.170745 v 0.605367 q -0.20955,0.108655 -0.46567,0.162983 -0.24835,0.06209 -0.60536,0.06209 z"
         id="path10201" />
      <path
         d="m 121.6365,22.385247 q 0,0.124177 -0.0155,0.325966 -0.008,0.201789 -0.0155,0.34925 h 0.031 q 0.0466,-0.06209 0.1397,-0.178505 0.0931,-0.116417 0.18627,-0.232834 0.1009,-0.124177 0.17075,-0.201789 l 1.32715,-1.404761 h 0.79939 l -1.68416,1.777295 1.80058,2.382661 h -0.82268 l -1.44357,-1.940278 -0.47343,0.411339 v 1.528939 h -0.67521 v -5.898445 h 0.67521 z"
         id="path10203" />
    </g>
  </g>
</svg>
