<?xml version="1.0" encoding="UTF-8" standalone="no"?>
<!-- Created with Inkscape (http://www.inkscape.org/) -->

<svg
   width="70.530144mm"
   height="119.80407mm"
   viewBox="0 0 70.530144 119.80407"
   version="1.1"
   id="svg5"
   xmlns:inkscape="http://www.inkscape.org/namespaces/inkscape"
   xmlns:sodipodi="http://sodipodi.sourceforge.net/DTD/sodipodi-0.dtd"
   xmlns="http://www.w3.org/2000/svg"
   xmlns:svg="http://www.w3.org/2000/svg">
  <sodipodi:namedview
     id="namedview7"
     pagecolor="#ffffff"
     bordercolor="#666666"
     borderopacity="1.0"
     inkscape:showpageshadow="2"
     inkscape:pageopacity="0.0"
     inkscape:pagecheckerboard="0"
     inkscape:deskcolor="#d1d1d1"
     inkscape:document-units="mm"
     showgrid="false" />
  <defs
     id="defs2" />
  <g
     inkscape:label="Layer 1"
     inkscape:groupmode="layer"
     id="layer1"
     transform="translate(-13.860482,-96.265538)">
    <path
       style="fill:none;stroke:#000000;stroke-width:1;stroke-linecap:butt;stroke-linejoin:miter;stroke-dasharray:none;stroke-opacity:1"
       d="M 14.371832,96.265535 V 216.0691"
       id="path236" />
    <path
       style="fill:none;stroke:#000000;stroke-width:1;stroke-linecap:butt;stroke-linejoin:miter;stroke-dasharray:none;stroke-opacity:1"
       d="m 14.292823,96.766 h 7.198732"
       id="path900" />
    <path
       style="fill:none;stroke:#000000;stroke-width:1;stroke-linecap:butt;stroke-linejoin:miter;stroke-dasharray:none;stroke-opacity:1"
       d="m 14.292823,199.49885 h 7.198732"
       id="path902" />
    <path
       style="fill:none;stroke:#000000;stroke-width:1;stroke-linecap:butt;stroke-linejoin:miter;stroke-dasharray:none;stroke-opacity:1"
       d="m 14.292823,173.80705 h 7.198732"
       id="path904" />
    <path
       style="fill:none;stroke:#000000;stroke-width:1;stroke-linecap:butt;stroke-linejoin:miter;stroke-dasharray:none;stroke-opacity:1"
       d="m 14.292823,148.13277 h 7.198732"
       id="path906" />
    <path
       style="fill:none;stroke:#000000;stroke-width:1;stroke-linecap:butt;stroke-linejoin:miter;stroke-dasharray:none;stroke-opacity:1"
       d="m 14.292823,122.45849 h 7.198732"
       id="path908" />
    <path
       style="fill:none;stroke:#000000;stroke-width:1;stroke-linecap:butt;stroke-linejoin:miter;stroke-dasharray:none;stroke-opacity:1"
       d="M 13.860481,215.56959 H 73.530584"
       id="path910" />
    <path
       id="rect964"
       style="fill:#ffffff;fill-opacity:0.401441;stroke:#000000;stroke-width:0.999997;stroke-linecap:round;stroke-dasharray:none"
       d="m 64.279923,201.21247 h 17.501548 c 1.135742,0 2.374862,1.49306 2.050079,2.43408 l -1.592929,4.61532 c -0.324783,0.94102 -0.914337,1.79692 -2.050081,1.79692 h -4.216094 l -1.152288,0.95576 h -1.789462 -1.789461 l -1.152288,-0.95576 h -4.216094 c -1.135743,0 -1.725297,-0.8559 -2.050078,-1.79692 l -1.59293,-4.61532 c -0.324782,-0.94102 0.914334,-2.43408 2.050078,-2.43408 z"
       sodipodi:nodetypes="ssssscccccssss" />
    <path
       style="fill:none;stroke:#000000;stroke-width:0.999997;stroke-linecap:round;stroke-linejoin:miter;stroke-dasharray:none;stroke-opacity:1"
       d="M 66.434924,205.62201 H 79.626471"
       id="path2567" />
    <path
       style="fill:none;stroke:#000000;stroke-width:0.999997;stroke-linecap:butt;stroke-linejoin:miter;stroke-dasharray:1.99999, 0.999997;stroke-dashoffset:0.999997;stroke-opacity:1"
       d="M 67.010172,207.85212 H 79.051223"
       id="path3297" />
    <g
       aria-label="OBD-II"
       id="text3353"
       style="font-size:4.93889px;line-height:1.25;stroke-width:1.66098;stroke-dasharray:none"
       transform="matrix(0.60205252,0,0,0.60205252,20.135237,137.19876)">
      <path
         d="m 83.559243,109.87832 q 0,0.54822 -0.187678,0.95815 -0.182738,0.40499 -0.543277,0.63218 -0.360539,0.22719 -0.89394,0.22719 -0.548216,0 -0.913694,-0.22719 -0.360539,-0.22719 -0.538339,-0.63712 -0.1778,-0.40993 -0.1778,-0.95815 0,-0.54327 0.1778,-0.94826 0.1778,-0.40499 0.538339,-0.63218 0.365478,-0.22719 0.918633,-0.22719 0.528462,0 0.889001,0.22719 0.360539,0.22225 0.543277,0.63218 0.187678,0.40499 0.187678,0.9532 z m -2.785534,0 q 0,0.66675 0.281517,1.05199 0.281517,0.38029 0.879122,0.38029 0.602545,0 0.879123,-0.38029 0.276578,-0.38524 0.276578,-1.05199 0,-0.66675 -0.276578,-1.0421 -0.276578,-0.3803 -0.874184,-0.3803 -0.597605,0 -0.884061,0.3803 -0.281517,0.37535 -0.281517,1.0421 z"
         id="path3405"
         style="stroke-width:1.66098;stroke-dasharray:none" />
      <path
         d="m 85.347122,108.12008 q 0.661811,0 0.997656,0.19755 0.340783,0.19262 0.340783,0.67663 0,0.31115 -0.172861,0.51859 -0.172861,0.20249 -0.498828,0.26176 v 0.0247 q 0.22225,0.0346 0.40005,0.12841 0.182739,0.0938 0.286456,0.2667 0.103717,0.17286 0.103717,0.44944 0,0.47907 -0.330906,0.74084 -0.325967,0.26176 -0.893939,0.26176 h -1.239661 v -3.52637 z m 0.0889,1.50142 q 0.454378,0 0.6223,-0.14323 0.167923,-0.14816 0.167923,-0.43462 0,-0.29139 -0.207434,-0.41487 -0.202494,-0.12841 -0.651933,-0.12841 h -0.582789 v 1.12113 z m -0.651933,0.37042 v 1.27917 h 0.7112 q 0.469194,0 0.651933,-0.18274 0.182739,-0.18274 0.182739,-0.47907 0,-0.27658 -0.192616,-0.4445 -0.187678,-0.17286 -0.676628,-0.17286 z"
         id="path3407"
         style="stroke-width:1.66098;stroke-dasharray:none" />
      <path
         d="m 90.374911,109.84869 q 0,0.89394 -0.488951,1.34832 -0.484011,0.44944 -1.353255,0.44944 h -0.98284 v -3.52637 h 1.086556 q 0.5334,0 0.923573,0.19755 0.390172,0.19756 0.602544,0.58279 0.212373,0.3803 0.212373,0.94827 z m -0.469195,0.0148 q 0,-0.70626 -0.350661,-1.03223 -0.345722,-0.33091 -0.982839,-0.33091 h -0.57785 v 2.76578 h 0.479072 q 1.432278,0 1.432278,-1.40264 z"
         id="path3409"
         style="stroke-width:1.66098;stroke-dasharray:none" />
      <path
         d="m 90.873735,110.51544 v -0.38523 h 1.195212 v 0.38523 z"
         id="path3411"
         style="stroke-width:1.66098;stroke-dasharray:none" />
      <path
         d="m 93.738294,111.64645 h -1.274233 v -0.25683 l 0.414867,-0.0938 v -2.82011 l -0.414867,-0.0988 v -0.25682 h 1.274233 v 0.25682 l -0.414866,0.0988 v 2.82011 l 0.414866,0.0938 z"
         id="path3413"
         style="stroke-width:1.66098;stroke-dasharray:none" />
      <path
         d="m 95.412582,111.64645 h -1.274233 v -0.25683 l 0.414866,-0.0938 v -2.82011 l -0.414866,-0.0988 v -0.25682 h 1.274233 v 0.25682 l -0.414867,0.0988 v 2.82011 l 0.414867,0.0938 z"
         id="path3415"
         style="stroke-width:1.66098;stroke-dasharray:none" />
    </g>
    <path
       style="fill:none;stroke:#000000;stroke-width:1;stroke-linecap:butt;stroke-linejoin:miter;stroke-dasharray:none;stroke-opacity:1"
       d="m 73.030697,216.06917 v -4.7563"
       id="path3430"
       inkscape:export-filename="can_bus.svg"
       inkscape:export-xdpi="96"
       inkscape:export-ydpi="96" />
  </g>
</svg>
