<?xml version="1.0" encoding="UTF-8" standalone="no"?>
<!-- Created with Inkscape (http://www.inkscape.org/) -->

<svg
   width="42.465004mm"
   height="102.03318mm"
   viewBox="0 0 42.465004 102.03318"
   version="1.1"
   id="svg5"
   xml:space="preserve"
   sodipodi:docname="car_chassis.svg"
   inkscape:export-filename="car_chassis.svg"
   inkscape:export-xdpi="96"
   inkscape:export-ydpi="96"
   xmlns:inkscape="http://www.inkscape.org/namespaces/inkscape"
   xmlns:sodipodi="http://sodipodi.sourceforge.net/DTD/sodipodi-0.dtd"
   xmlns="http://www.w3.org/2000/svg"
   xmlns:svg="http://www.w3.org/2000/svg"><sodipodi:namedview
     id="namedview7"
     pagecolor="#ffffff"
     bordercolor="#000000"
     borderopacity="0.25"
     inkscape:showpageshadow="2"
     inkscape:pageopacity="0.0"
     inkscape:pagecheckerboard="0"
     inkscape:deskcolor="#d1d1d1"
     inkscape:document-units="mm"
     showgrid="false" /><defs
     id="defs2" /><g
     inkscape:label="Layer 1"
     inkscape:groupmode="layer"
     id="layer1"
     transform="translate(-41.332044,-164.01365)"><path
       style="fill:#ffffff;fill-opacity:0.15;stroke:#000000;stroke-width:0.665597;stroke-dasharray:none"
       d="m 60.992211,164.3484 2.991168,0.30249 5.117284,1.47626 c 0,0 5.684128,2.20243 5.864532,2.20243 0.180405,0 2.193583,1.43688 2.193583,1.43688 l 1.651509,3.53794 2.486804,7.99596 1.151569,9.27977 0.04113,19.03009 0.590578,26.81967 0.383337,13.89568 -0.740536,6.2153 -1.578424,5.23708 -2.354036,2.21956 -4.481237,0.9519 -8.903663,0.76427 -9.794681,-0.24559 -6.399829,-0.99317 -2.157295,-0.56976 -1.706369,-2.95408 -1.824174,-5.04447 -0.335701,-6.62958 -0.537089,-15.19533 -0.54861,-27.31375 -0.399372,-13.69585 -0.0377,-5.93029 1.616644,-11.62661 0.580552,-3.35197 1.750411,-2.75124 5.264854,-2.86871 5.181189,-1.3744 2.036675,-0.48278 z"
       id="path1122"
       inkscape:export-filename="car_chassis.svg"
       inkscape:export-xdpi="96"
       inkscape:export-ydpi="96" /><path
       id="path1126"
       style="fill:none;stroke:#000000;stroke-width:0.532478;stroke-dasharray:none"
       d="m 46.767107,240.15493 -1.372213,-11.02684 -1.0806,-8.38844 -0.782422,-13.3279 0.398386,-13.24373 0.589793,-19.00475 1.264957,-3.30478 3.798761,-2.94995 3.248428,-1.1863 6.379657,-1.31339 4.452819,0.009 c 0,0 6.893578,1.57293 7.246993,1.57293 0.353416,0 2.919674,1.33559 2.919674,1.33559 l 2.74856,1.82056 1.564657,3.36613 0.945882,3.35066 0.700295,4.45819 0.522642,14.78102 0.639588,7.93302 0.28015,10.56686 -0.674323,8.79687 c -0.380496,3.625 -0.929424,6.93287 -1.525793,10.52317 l -0.713883,5.12013"
       sodipodi:nodetypes="cccccccccccsccccccccccc" /><path
       style="fill:none;stroke:#000000;stroke-width:0.532476;stroke-dasharray:none"
       d="m 78.958703,199.82999 c 0,0 -6.75806,-6.74739 -17.566553,-6.74739 -10.808493,0 -16.103361,6.58401 -16.103361,6.58401 0,0 1.445306,-7.35999 5.595487,-18.37141 4.15018,-11.01143 7.565669,-13.28292 7.565669,-13.28292 l 6.534489,0.0974 c 0,0 4.8718,5.45232 8.049272,12.62656 3.177472,7.17426 5.924997,19.09373 5.924997,19.09373 z"
       id="path1129"
       sodipodi:nodetypes="cscsccsc" /><path
       style="fill:#82ffff;fill-opacity:0.34957;stroke:#000000;stroke-width:0.532476;stroke-dasharray:none"
       d="m 45.928263,202.22424 c 0,0 5.621162,-7.08579 16.056505,-7.08579 10.435343,0 16.934995,6.69373 16.934995,6.69373 l -4.030544,9.68382 c 0,0 -3.819433,-2.75951 -12.010883,-2.75951 -8.191449,0 -12.234641,2.41024 -12.234641,2.41024 z"
       id="path1131" /><path
       style="fill:#82ffff;fill-opacity:0.34863;stroke:#000000;stroke-width:0.532476;stroke-dasharray:none"
       d="m 52.772427,235.82573 h 20.381459 l 2.757197,11.90739 c 0,0 -4.701449,4.28179 -13.210415,4.28179 -8.508965,0 -13.437334,-4.74037 -13.437334,-4.74037 z"
       id="path1133" /><path
       style="fill:none;stroke:#000000;stroke-width:0.532476;stroke-dasharray:none"
       d="m 49.508494,259.29806 c 0,0 5.525458,1.72817 14.246628,1.72817 8.721172,0 12.699422,-2.09675 12.699422,-2.09675 l 1.358612,-9.35442 c 0,0 -6.591069,4.10049 -14.381,4.10049 -7.789928,0 -15.231086,-4.0709 -15.231086,-4.0709 z"
       id="path1135" /><path
       style="fill:#82ffff;fill-opacity:0.34957;stroke:#000000;stroke-width:0.532476;stroke-dasharray:none"
       d="m 46.592954,228.01804 3.479466,-0.79682 c 0,0 0.261063,2.30503 -0.174471,5.56531 -0.435535,3.26027 -1.569387,4.57737 -1.569387,4.57737 0,0 -0.587542,-3.07559 -0.960757,-5.25592 -0.348346,-2.03503 -0.774851,-4.08994 -0.774851,-4.08994 z"
       id="path1141"
       sodipodi:nodetypes="ccscsc" /><path
       style="fill:#82ffff;fill-opacity:0.34957;stroke:#000000;stroke-width:0.532476;stroke-dasharray:none"
       d="m 78.083143,228.79107 -3.324772,-0.76377 c 0,0 0.02822,2.08782 0.463739,5.34811 0.435536,3.26027 1.569389,4.57736 1.569389,4.57736 0,0 0.708722,-3.05828 0.960757,-5.25591 0.252034,-2.19762 0.330887,-3.90579 0.330887,-3.90579 z"
       id="path1152"
       sodipodi:nodetypes="ccscsc" /><path
       style="fill:none;stroke:#000000;stroke-width:0.574066;stroke-dasharray:none"
       d="m 49.498691,169.92516 -3.954761,5.60089 10.22189,-5.84896 z"
       id="path297" /><path
       style="fill:#000000;stroke:none;stroke-width:0.450005;stroke-dasharray:none"
       d="m 48.000291,172.0639 1.415184,1.05217"
       id="path1180" /><path
       style="fill:none;stroke:#000000;stroke-width:0.450005;stroke-dasharray:none"
       d="m 46.818397,261.19764 0.925483,1.88444 c 0,0 0.174773,0.28348 3.527501,0.78049 3.352728,0.49699 3.380319,0.36574 3.380319,0.36574 l 0.302981,-1.63936 c 0,0 -1.764385,-0.16108 -4.01559,-0.54239 -2.251207,-0.3813 -4.120694,-0.84892 -4.120694,-0.84892 z"
       id="path1184"
       sodipodi:nodetypes="cccccsc" /><path
       style="fill:none;stroke:#000000;stroke-width:0.450005;stroke-dasharray:none"
       d="m 79.411662,261.19764 -0.925482,1.88444 c 0,0 -0.174773,0.28348 -3.527501,0.78049 -3.352728,0.49699 -3.38032,0.36574 -3.38032,0.36574 l -0.302981,-1.63936 c 0,0 1.764385,-0.16108 4.01559,-0.54239 2.251207,-0.3813 4.120694,-0.84892 4.120694,-0.84892 z"
       id="path1286"
       sodipodi:nodetypes="cccccsc" /><path
       style="fill:none;stroke:#000000;stroke-width:0.574066;stroke-dasharray:none"
       d="m 73.497327,169.92516 3.954762,5.60089 -10.22189,-5.84896 z"
       id="path1412" /><path
       style="fill:#000000;stroke:none;stroke-width:0.450005;stroke-dasharray:none"
       d="m 74.995728,172.0639 -1.415184,1.05217"
       id="path1414" /></g></svg>
