<?xml version="1.0" encoding="UTF-8" standalone="no"?>
<!-- Created with Inkscape (http://www.inkscape.org/) -->

<svg
   width="37.599876mm"
   height="20.99382mm"
   viewBox="0 0 37.599876 20.99382"
   version="1.1"
   id="svg5"
   xmlns="http://www.w3.org/2000/svg"
   xmlns:svg="http://www.w3.org/2000/svg">
  <defs
     id="defs2" />
  <g
     id="layer1"
     transform="translate(-17.97889,-111.18183)">
    <path
       id="rect111"
       style="fill:#ffffff;fill-opacity:0.4;fill-rule:evenodd;stroke:#000000;stroke-width:1.39958"
       d="m 24.182641,111.88162 c -0.775367,0 -1.399641,0.62427 -1.399641,1.39964 v 3.71767 h -2.704679 c -0.775368,0 -1.399641,0.62427 -1.399641,1.39965 v 6.56034 c 0,0.77536 0.624273,1.3995 1.399641,1.3995 H 22.783 v 3.7178 c 0,0.77537 0.624274,1.39964 1.399641,1.39964 h 25.192371 c 0.775367,0 1.399643,-0.62427 1.399643,-1.39964 v -3.7178 h 2.704679 c 0.775365,0 1.39964,-0.62414 1.39964,-1.3995 v -6.56034 c 0,-0.77538 -0.624275,-1.39965 -1.39964,-1.39965 h -2.704679 v -3.71767 c 0,-0.77537 -0.624276,-1.39964 -1.399643,-1.39964 z" />
    <path
       style="fill:none;stroke:#000000;stroke-width:1.11967;stroke-linecap:butt;stroke-linejoin:miter;stroke-dasharray:none;stroke-opacity:1"
       d="m 18.156107,123.90058 h 4.65852"
       id="path8993" />
    <path
       style="fill:none;stroke:#000000;stroke-width:1.11967;stroke-linecap:butt;stroke-linejoin:miter;stroke-dasharray:none;stroke-opacity:1"
       d="m 18.156107,119.4569 h 4.65852"
       id="path8993-5" />
    <path
       style="fill:none;stroke:#000000;stroke-width:1.11967;stroke-linecap:butt;stroke-linejoin:miter;stroke-dasharray:none;stroke-opacity:1"
       d="m 50.743033,123.90058 h 4.658522"
       id="path8993-3" />
    <path
       style="fill:none;stroke:#000000;stroke-width:1.11967;stroke-linecap:butt;stroke-linejoin:miter;stroke-dasharray:none;stroke-opacity:1"
       d="m 50.743033,119.4569 h 4.658522"
       id="path8993-56" />
    <path
       style="fill:none;stroke:#000000;stroke-width:1.11967;stroke-linecap:butt;stroke-linejoin:miter;stroke-dasharray:none;stroke-opacity:1"
       d="m 50.743033,121.67874 h 4.658522"
       id="path8993-2" />
    <path
       style="fill:none;stroke:#000000;stroke-width:1.11967;stroke-linecap:butt;stroke-linejoin:miter;stroke-dasharray:none;stroke-opacity:1"
       d="m 18.156107,121.67874 h 4.65852"
       id="path8993-9" />
    <rect
       style="fill:#ff0000;fill-opacity:1;stroke:#000000;stroke-width:0.977914;stroke-dasharray:none"
       id="rect9096"
       width="23.112263"
       height="11.096384"
       x="25.222694"
       y="117.9714"
       rx="0.56328738" />
    <g
       aria-label="Chassis"
       id="text545"
       style="font-size:3.52778px;line-height:1.25;stroke-width:0.264583"
       transform="matrix(1.2,0,0,1.2,7.1007432,-15.154554)">
      <path
         d="m 19.941012,107.55572 q -0.405694,0 -0.638528,0.27164 -0.232833,0.27164 -0.232833,0.74436 0,0.4692 0.215194,0.74436 0.218723,0.27164 0.652639,0.27164 0.165806,0 0.313972,-0.0282 0.148167,-0.0282 0.289278,-0.0706 v 0.27517 q -0.141111,0.0529 -0.292805,0.0776 -0.148167,0.0247 -0.356306,0.0247 -0.384528,0 -0.642055,-0.15875 -0.257528,-0.15875 -0.388056,-0.45156 -0.127,-0.2928 -0.127,-0.68792 0,-0.381 0.137583,-0.67027 0.141112,-0.29281 0.41275,-0.45509 0.271639,-0.1658 0.659695,-0.1658 0.398639,0 0.694972,0.14816 l -0.127,0.26812 q -0.116417,-0.0529 -0.261056,-0.0952 -0.141111,-0.0423 -0.310444,-0.0423 z"
         id="path950" />
      <path
         d="m 21.359179,107.93672 q 0,0.14111 -0.01764,0.26459 h 0.02117 q 0.09172,-0.14464 0.246945,-0.21873 0.15875,-0.0741 0.342194,-0.0741 0.345722,0 0.518583,0.16581 0.172862,0.16227 0.172862,0.52563 v 1.2312 h -0.306917 v -1.21003 q 0,-0.45508 -0.423333,-0.45508 -0.3175,0 -0.437445,0.17991 -0.116416,0.17639 -0.116416,0.508 v 0.9772 h -0.310445 v -2.68111 h 0.310445 z"
         id="path952" />
      <path
         d="m 23.94504,107.9085 q 0.345722,0 0.511528,0.15169 0.165805,0.1517 0.165805,0.48331 v 1.28764 h -0.225778 l -0.05997,-0.26811 h -0.01411 q -0.123472,0.15522 -0.261055,0.2293 -0.134056,0.0741 -0.373945,0.0741 -0.257528,0 -0.426861,-0.13406 -0.169333,-0.13758 -0.169333,-0.42686 0,-0.28222 0.22225,-0.43392 0.22225,-0.15522 0.684389,-0.16933 l 0.321027,-0.0106 v -0.11289 q 0,-0.23636 -0.102305,-0.32809 -0.102306,-0.0917 -0.289278,-0.0917 -0.148167,0 -0.282222,0.0459 -0.134056,0.0423 -0.250472,0.0988 l -0.09525,-0.23283 q 0.123472,-0.067 0.292805,-0.11289 0.169333,-0.0494 0.352778,-0.0494 z m 0.09172,1.00894 q -0.352778,0.0141 -0.490361,0.11289 -0.134056,0.0988 -0.134056,0.2787 0,0.15875 0.09525,0.23283 0.09878,0.0741 0.250473,0.0741 0.239889,0 0.398639,-0.13052 0.15875,-0.13406 0.15875,-0.40923 v -0.16933 z"
         id="path954" />
      <path
         d="m 26.439181,109.30903 q 0,0.27516 -0.204611,0.41628 -0.204611,0.14111 -0.550333,0.14111 -0.197556,0 -0.342194,-0.0318 -0.141112,-0.0318 -0.250473,-0.0882 v -0.28222 q 0.112889,0.0564 0.271639,0.10583 0.162278,0.0459 0.328084,0.0459 0.236361,0 0.342194,-0.0741 0.105833,-0.0776 0.105833,-0.20461 0,-0.0706 -0.0388,-0.127 -0.03881,-0.0564 -0.141111,-0.11289 -0.09878,-0.0564 -0.28575,-0.127 -0.183445,-0.0705 -0.313973,-0.14111 -0.130527,-0.0706 -0.201083,-0.16933 -0.07056,-0.0988 -0.07056,-0.254 0,-0.23989 0.194027,-0.37042 0.197556,-0.13053 0.515056,-0.13053 0.172861,0 0.321028,0.0353 0.151694,0.0317 0.282222,0.0917 l -0.105833,0.24695 q -0.119945,-0.0494 -0.250473,-0.0847 -0.130527,-0.0353 -0.268111,-0.0353 -0.1905,0 -0.292805,0.0635 -0.09878,0.06 -0.09878,0.16581 0,0.0776 0.04586,0.13405 0.04586,0.0529 0.151694,0.10584 0.109362,0.0494 0.289278,0.11994 0.179917,0.067 0.306917,0.13758 0.127,0.0706 0.194028,0.17287 0.06703,0.0988 0.06703,0.25047 z"
         id="path956" />
      <path
         d="m 28.128987,109.30903 q 0,0.27516 -0.204611,0.41628 -0.204611,0.14111 -0.550333,0.14111 -0.197556,0 -0.342194,-0.0318 -0.141112,-0.0318 -0.250473,-0.0882 v -0.28222 q 0.112889,0.0564 0.271639,0.10583 0.162278,0.0459 0.328084,0.0459 0.236361,0 0.342194,-0.0741 0.105833,-0.0776 0.105833,-0.20461 0,-0.0706 -0.0388,-0.127 -0.03881,-0.0564 -0.141111,-0.11289 -0.09878,-0.0564 -0.28575,-0.127 -0.183445,-0.0705 -0.313973,-0.14111 -0.130527,-0.0706 -0.201083,-0.16933 -0.07055,-0.0988 -0.07055,-0.254 0,-0.23989 0.194027,-0.37042 0.197556,-0.13053 0.515056,-0.13053 0.172861,0 0.321028,0.0353 0.151694,0.0317 0.282222,0.0917 l -0.105834,0.24695 q -0.119944,-0.0494 -0.250472,-0.0847 -0.130528,-0.0353 -0.268111,-0.0353 -0.1905,0 -0.292805,0.0635 -0.09878,0.06 -0.09878,0.16581 0,0.0776 0.04586,0.13405 0.04586,0.0529 0.151694,0.10584 0.109362,0.0494 0.289278,0.11994 0.179917,0.067 0.306917,0.13758 0.127,0.0706 0.194028,0.17287 0.06703,0.0988 0.06703,0.25047 z"
         id="path958" />
      <path
         d="m 28.746349,107.23117 q 0.07056,0 0.123472,0.0494 0.05644,0.0459 0.05644,0.14816 0,0.0988 -0.05644,0.14817 -0.05292,0.0494 -0.123472,0.0494 -0.07761,0 -0.130528,-0.0494 -0.05292,-0.0494 -0.05292,-0.14817 0,-0.1023 0.05292,-0.14816 0.05292,-0.0494 0.130528,-0.0494 z m 0.151694,0.70908 v 1.89089 h -0.310444 v -1.89089 z"
         id="path960" />
      <path
         d="m 30.728958,109.30903 q 0,0.27516 -0.204611,0.41628 -0.204611,0.14111 -0.550333,0.14111 -0.197556,0 -0.342195,-0.0318 -0.141111,-0.0318 -0.250472,-0.0882 v -0.28222 q 0.112889,0.0564 0.271639,0.10583 0.162278,0.0459 0.328083,0.0459 0.236361,0 0.342195,-0.0741 0.105833,-0.0776 0.105833,-0.20461 0,-0.0706 -0.0388,-0.127 -0.03881,-0.0564 -0.141112,-0.11289 -0.09878,-0.0564 -0.28575,-0.127 -0.183444,-0.0705 -0.313972,-0.14111 -0.130528,-0.0706 -0.201083,-0.16933 -0.07056,-0.0988 -0.07056,-0.254 0,-0.23989 0.194028,-0.37042 0.197556,-0.13053 0.515056,-0.13053 0.172861,0 0.321027,0.0353 0.151695,0.0317 0.282223,0.0917 l -0.105834,0.24695 q -0.119944,-0.0494 -0.250472,-0.0847 -0.130528,-0.0353 -0.268111,-0.0353 -0.1905,0 -0.292806,0.0635 -0.09878,0.06 -0.09878,0.16581 0,0.0776 0.04586,0.13405 0.04586,0.0529 0.151694,0.10584 0.109361,0.0494 0.289278,0.11994 0.179917,0.067 0.306917,0.13758 0.127,0.0706 0.194027,0.17287 0.06703,0.0988 0.06703,0.25047 z"
         id="path962" />
    </g>
  </g>
</svg>
