<?xml version="1.0" encoding="UTF-8" standalone="no"?>
<!-- Created with Inkscape (http://www.inkscape.org/) -->

<svg
   id="svg10932"
   version="1.1"
   inkscape:version="0.91 r13725"
   width="39.169628"
   height="26.82365"
   viewBox="0 0 39.169628 26.823651"
   sodipodi:docname="check_engine.svg"
   xmlns:inkscape="http://www.inkscape.org/namespaces/inkscape"
   xmlns:sodipodi="http://sodipodi.sourceforge.net/DTD/sodipodi-0.dtd"
   xmlns="http://www.w3.org/2000/svg"
   xmlns:svg="http://www.w3.org/2000/svg"
   xmlns:rdf="http://www.w3.org/1999/02/22-rdf-syntax-ns#"
   xmlns:cc="http://creativecommons.org/ns#"
   xmlns:dc="http://purl.org/dc/elements/1.1/">
  <metadata
     id="metadata10938">
    <rdf:RDF>
      <cc:Work
         rdf:about="">
        <dc:format>image/svg+xml</dc:format>
        <dc:type
           rdf:resource="http://purl.org/dc/dcmitype/StillImage" />
        <dc:title />
      </cc:Work>
    </rdf:RDF>
  </metadata>
  <defs
     id="defs10936" />
  <sodipodi:namedview
     pagecolor="#ffffff"
     bordercolor="#666666"
     borderopacity="1"
     objecttolerance="10"
     gridtolerance="10"
     guidetolerance="10"
     inkscape:pageopacity="0"
     inkscape:pageshadow="2"
     inkscape:window-width="1432"
     inkscape:window-height="1159"
     id="namedview10934"
     showgrid="false"
     width="120px"
     inkscape:zoom="9.5816548"
     inkscape:cx="62.5"
     inkscape:cy="45"
     inkscape:window-x="740"
     inkscape:window-y="64"
     inkscape:window-maximized="0"
     inkscape:current-layer="layer10"
     inkscape:showpageshadow="2"
     inkscape:pagecheckerboard="0"
     inkscape:deskcolor="#d1d1d1" />
  <g
     inkscape:groupmode="layer"
     id="layer9"
     inkscape:label="image"
     transform="translate(-66.855816,-44.694914)">
    <path
       style="fill:#ffab00;fill-opacity:1;fill-rule:evenodd;stroke:none;stroke-width:0.425521px;stroke-linecap:butt;stroke-linejoin:miter;stroke-opacity:1"
       d="m 68.943086,51.001135 h -2.087271 l 0.13323,14.921766 1.998451,-0.08882 v -6.172992 l 1.55435,-0.04441 0.04441,6.705913 3.019882,-0.08882 7.105603,5.284792 15.809967,-0.08882 0.66615,-0.62174 0.17764,-0.532921 -0.04441,-3.064291 h 1.332301 l 0.04441,2.398141 0.48851,0.532921 4.929511,0.04441 0.71056,-0.754971 0.62174,-1.421121 0.53292,-2.087271 0.0444,-9.592564 -1.50994,-3.686031 -5.728892,0.04441 v 1.42112 l -1.28789,-0.04441 -0.04441,-1.55435 -3.064292,-0.04441 0.08882,-1.731991 -0.532921,-1.110251 -1.11025,-1.24348 -0.57733,-0.22205 -4.973922,0.04441 -0.04441,-1.421121 4.929512,-0.08882 0.04441,-1.99845 H 76.181919 v 1.99845 h 5.107152 l -0.04441,1.421121 h -4.973922 l -2.709011,2.353731 h -3.153112 v 6.395043 h -1.46553 z"
       id="path10942"
       inkscape:connector-curvature="0"
       sodipodi:nodetypes="ccccccccccccccccccccccccccccccccccccccccccccc" />
  </g>
</svg>
