<?xml version="1.0" encoding="UTF-8" standalone="no"?>
<!-- Created with Inkscape (http://www.inkscape.org/) -->

<svg
   width="7.6904526mm"
   height="11.28334mm"
   viewBox="0 0 7.6904526 11.28334"
   version="1.1"
   id="svg23071"
   xml:space="preserve"
   xmlns:inkscape="http://www.inkscape.org/namespaces/inkscape"
   xmlns:sodipodi="http://sodipodi.sourceforge.net/DTD/sodipodi-0.dtd"
   xmlns="http://www.w3.org/2000/svg"
   xmlns:svg="http://www.w3.org/2000/svg"><sodipodi:namedview
     id="namedview23073"
     pagecolor="#ffffff"
     bordercolor="#666666"
     borderopacity="1.0"
     inkscape:showpageshadow="2"
     inkscape:pageopacity="0.0"
     inkscape:pagecheckerboard="0"
     inkscape:deskcolor="#d1d1d1"
     inkscape:document-units="mm"
     showgrid="false" /><defs
     id="defs23068" /><g
     inkscape:label="Layer 1"
     inkscape:groupmode="layer"
     id="layer1"
     transform="translate(-110.80318,-132.79895)"><path
       id="path25727"
       style="fill:#ffffff;fill-opacity:0.404563;stroke:none;stroke-width:0.941513;stroke-linecap:round;stroke-dasharray:none"
       d="m 115.79824,138.48156 v 3.1397 c 0,1.11931 -0.90111,2.02041 -2.02041,2.02041 h -0.56986 c -1.11931,0 -2.02041,-0.9011 -2.02041,-2.02041 v -6.30785 c 0,-1.11247 0.9011,-2.01357 2.02041,-2.01357 h 0.56986 c 1.1193,0 2.02041,0.9011 2.02041,2.02041 v 3.15051"
       sodipodi:nodetypes="csssscsscc"
       inkscape:export-filename="close_left_door_button.svg"
       inkscape:export-xdpi="96"
       inkscape:export-ydpi="96" /><path
       id="path24573"
       style="fill:none;fill-opacity:0.350034;stroke:#000000;stroke-width:0.941513;stroke-linecap:round;stroke-dasharray:none"
       d="m 118.02288,138.44062 -2.13827,-1.57526 v -1.57525 m 0,0 c 0,-1.11931 -0.9011,-2.02041 -2.02041,-2.02041 h -0.56985 c -1.11931,0 -2.02041,0.9011 -2.02041,2.02041 m 0,0 v 3.15051 m 0,1.06913 v 2.08137 c 0,1.11931 0.9011,2.02041 2.02041,2.02041 h 0.56985 c 1.11931,0 2.02041,-0.9011 2.02041,-2.02041 v -2.08137"
       sodipodi:nodetypes="ccccssccccssssc"
       inkscape:export-filename="close_right_door_button.svg"
       inkscape:export-xdpi="96"
       inkscape:export-ydpi="96" /><path
       style="fill:#000000;stroke:#000000;stroke-width:0.267283px;stroke-linecap:butt;stroke-linejoin:miter;stroke-opacity:1"
       d="m 115.71604,135.73442 c 0,0 -0.75265,-0.53457 -2.16859,-0.53457 -1.39664,0 -2.16857,0.53457 -2.16857,0.53457 l 0.47083,-2.05344 1.6569,-0.49529 1.37581,0.13948 0.49744,0.6087 z"
       id="path24575"
       sodipodi:nodetypes="cscccccc" /><path
       id="path24577"
       style="stroke:#000000;stroke-width:0.198595;stroke-linecap:round"
       inkscape:transform-center-x="0.049483409"
       inkscape:transform-center-y="0.022804734"
       d="m 117.65968,138.52487 -0.18863,0.2027 -0.23116,0.20574 -0.15818,-0.19547 0.23116,-0.20574 0.18861,-0.20267 z m -0.25346,0.62223 -0.78148,0.12416 0.28357,-0.73924 z"
       sodipodi:nodetypes="ccccccccccc" /></g></svg>
