<?xml version="1.0" encoding="UTF-8" standalone="no"?>
<!-- Created with Inkscape (http://www.inkscape.org/) -->

<svg
   width="8.4276772mm"
   height="7.0130119mm"
   viewBox="0 0 8.4276771 7.013012"
   version="1.1"
   id="svg5"
   xml:space="preserve"
   sodipodi:docname="door_lock_indicator.svg"
   xmlns:inkscape="http://www.inkscape.org/namespaces/inkscape"
   xmlns:sodipodi="http://sodipodi.sourceforge.net/DTD/sodipodi-0.dtd"
   xmlns="http://www.w3.org/2000/svg"
   xmlns:svg="http://www.w3.org/2000/svg"><sodipodi:namedview
     id="namedview7"
     pagecolor="#ffffff"
     bordercolor="#666666"
     borderopacity="1.0"
     inkscape:showpageshadow="2"
     inkscape:pageopacity="0.0"
     inkscape:pagecheckerboard="0"
     inkscape:deskcolor="#d1d1d1"
     inkscape:document-units="mm"
     showgrid="false" /><defs
     id="defs2" /><g
     inkscape:label="Layer 1"
     inkscape:groupmode="layer"
     id="layer1"
     transform="translate(-82.045498,-152.76669)"><path
       id="rect2973"
       style="fill:none;stroke:#ff0000;stroke-width:1;stroke-linecap:round;stroke-dasharray:none"
       d="m 89.971433,155.31465 v 3.64499 c 0,0.17731 -0.194541,0.32006 -0.436192,0.32006 h -6.553552 c -0.241651,0 -0.436192,-0.14275 -0.436192,-0.32006 v -3.64499"
       sodipodi:nodetypes="cssssc" /><path
       id="rect2975"
       style="fill:none;stroke:#ff0000;stroke-width:1;stroke-linecap:round;stroke-dasharray:none"
       d="m 82.985973,154.78051 2.515302,-1.51382 h 4.03326 c 0.241466,0 0.435859,0.19379 0.435859,0.4345 v 2.06059 c 0,0.24071 0.0333,-0.0185 -0.208166,-0.0185 h -7.003949 c -0.241466,0 -0.208166,0.25925 -0.208166,0.0185 v -0.54677 c 0,-0.24071 0.229124,-0.31008 0.43586,-0.4345 z"
       sodipodi:nodetypes="scssssssss" /><circle
       style="fill:none;fill-opacity:1;stroke:#ff0000;stroke-width:0.42832;stroke-linecap:round;stroke-dasharray:none"
       id="path3756"
       cx="87.562859"
       cy="157.49387"
       r="0.9675439" /><path
       id="rect3760"
       style="fill:#ff0000;stroke:#ff0000;stroke-width:0.142773;stroke-linecap:round"
       d="m 84.131138,157.06709 v 0.41545 h 2.319941 v -0.41545 z m 0.05445,0.5504 0.155971,0.27011 0.155897,-0.27011 z m 0.528855,0 0.155971,0.27011 0.155898,-0.27011 z m 0.528856,0 0.155971,0.27011 0.155897,-0.27011 z m 0.528856,0 0.155971,0.27011 0.155897,-0.27011 z m 0.453304,0 0.155972,0.27011 0.155897,-0.27011 z"
       inkscape:export-filename="door_lock_indicator.svg"
       inkscape:export-xdpi="96"
       inkscape:export-ydpi="96" /></g></svg>
