<?xml version="1.0" encoding="UTF-8" standalone="no"?>
<!-- Created with Inkscape (http://www.inkscape.org/) -->

<svg
   width="7.8071022mm"
   height="7.6125035mm"
   viewBox="0 0 7.8071023 7.6125035"
   version="1.1"
   id="svg5"
   xml:space="preserve"
   sodipodi:docname="door_open_indicator.svg"
   xmlns:inkscape="http://www.inkscape.org/namespaces/inkscape"
   xmlns:sodipodi="http://sodipodi.sourceforge.net/DTD/sodipodi-0.dtd"
   xmlns="http://www.w3.org/2000/svg"
   xmlns:svg="http://www.w3.org/2000/svg"><sodipodi:namedview
     id="namedview7"
     pagecolor="#ffffff"
     bordercolor="#666666"
     borderopacity="1.0"
     inkscape:showpageshadow="2"
     inkscape:pageopacity="0.0"
     inkscape:pagecheckerboard="0"
     inkscape:deskcolor="#d1d1d1"
     inkscape:document-units="mm"
     showgrid="false" /><defs
     id="defs2" /><g
     inkscape:label="Layer 1"
     inkscape:groupmode="layer"
     id="layer1"
     transform="translate(-112.31595,-85.109836)"><path
       id="rect910"
       style="fill:#ff0000;stroke:#ff0000;stroke-width:0.0019561;stroke-linecap:round;stroke-dasharray:none"
       d="m 114.79375,85.110813 c -0.32932,0 -0.59438,0.265089 -0.59438,0.594275 v 6.422097 c 0,0.329187 0.26506,0.594176 0.59438,0.594176 h 2.85148 c 0.32933,0 0.59438,-0.264989 0.59438,-0.594176 v -6.422097 c 0,-0.329186 -0.26505,-0.594275 -0.59438,-0.594275 z m 0.10499,2.265807 h 2.64165 c 0.0545,0 0.13136,0.04031 0.0984,0.07804 l -0.45761,0.524628 c -0.0329,0.03773 -0.0796,0.07804 -0.13413,0.07804 h -1.6403 c -0.0545,0 -0.10069,-0.04083 -0.13415,-0.07804 l -0.47245,-0.524628 c -0.0336,-0.03721 0.044,-0.07804 0.0985,-0.07804 z m -0.38442,0.506939 c 0.005,-4.7e-5 0.009,0.002 0.0131,0.0067 l 0.25948,0.310531 c 0.0209,0.02495 0.0587,0.06008 0.0587,0.09259 v 1.090095 c 0,0.03251 -0.0262,0.05873 -0.0587,0.05873 h -0.25948 c -0.0325,0 -0.0587,-0.02623 -0.0587,-0.05873 v -1.434489 c 0,-0.02642 0.0251,-0.0652 0.0456,-0.0654 z m 3.39108,0 c 0.0205,1.95e-4 0.0456,0.03898 0.0456,0.0654 v 1.434489 c 0,0.03251 -0.0262,0.05873 -0.0587,0.05873 h -0.25949 c -0.0325,0 -0.0587,-0.02623 -0.0587,-0.05873 v -1.090093 c 0,-0.03251 0.0379,-0.06764 0.0587,-0.09259 l 0.25949,-0.310532 c 0.003,-0.0046 0.008,-0.0067 0.0131,-0.0067 z m -3.37794,1.968215 h 0.25949 c 0.0325,0 0.0587,0.02621 0.0587,0.05873 v 1.090095 c 0,0.03251 -0.0379,0.06764 -0.0587,0.09259 l -0.25949,0.310531 c -0.0209,0.02495 -0.0587,-0.02612 -0.0587,-0.05863 v -1.434591 c 0,-0.03251 0.0262,-0.05873 0.0587,-0.05873 z m 3.10531,0 h 0.25949 c 0.0325,0 0.0587,0.02621 0.0587,0.05873 v 1.43459 c 0,0.03251 -0.0379,0.08358 -0.0587,0.05863 l -0.25949,-0.310532 c -0.0209,-0.02494 -0.0587,-0.06008 -0.0587,-0.09259 v -1.090094 c 0,-0.03251 0.0262,-0.05873 0.0587,-0.05873 z m -2.22598,1.458245 h 1.6403 c 0.0545,0 0.10125,0.0403 0.13413,0.07804 l 0.45762,0.524629 c 0.0329,0.03773 -0.0439,0.07804 -0.0984,0.07804 h -2.64164 c -0.0545,0 -0.13206,-0.04083 -0.0985,-0.07804 l 0.47245,-0.524629 c 0.0336,-0.03721 0.0796,-0.07804 0.13415,-0.07804 z" /><path
       style="fill:#ff0000;fill-opacity:1;stroke:#ff0000;stroke-width:0.586831;stroke-linecap:round;stroke-linejoin:miter;stroke-dasharray:none;stroke-opacity:1"
       d="m 114.44709,87.41265 -1.83772,2.544135"
       id="path1083" /><path
       style="fill:#ff0000;fill-opacity:1;stroke:#ff0000;stroke-width:0.586831;stroke-linecap:round;stroke-linejoin:miter;stroke-dasharray:none;stroke-opacity:1"
       d="m 117.99191,87.41265 1.83773,2.544135"
       id="path1085"
       inkscape:export-filename="door_open_indicator.svg"
       inkscape:export-xdpi="96"
       inkscape:export-ydpi="96" /></g></svg>
