<?xml version="1.0" encoding="UTF-8" standalone="no"?>
<!-- Created with Inkscape (http://www.inkscape.org/) -->

<svg
   width="43.030056mm"
   height="125.08153mm"
   viewBox="0 0 43.030056 125.08153"
   version="1.1"
   id="svg5"
   sodipodi:docname="powertrain_ecu_red.svg"
   inkscape:export-filename="ecus_encrypted.svg"
   inkscape:export-xdpi="96"
   inkscape:export-ydpi="96"
   xmlns:inkscape="http://www.inkscape.org/namespaces/inkscape"
   xmlns:sodipodi="http://sodipodi.sourceforge.net/DTD/sodipodi-0.dtd"
   xmlns="http://www.w3.org/2000/svg"
   xmlns:svg="http://www.w3.org/2000/svg">
  <sodipodi:namedview
     id="namedview154"
     pagecolor="#ffffff"
     bordercolor="#666666"
     borderopacity="1.0"
     inkscape:showpageshadow="2"
     inkscape:pageopacity="0.0"
     inkscape:pagecheckerboard="0"
     inkscape:deskcolor="#d1d1d1"
     inkscape:document-units="mm"
     showgrid="false" />
  <defs
     id="defs2" />
  <g
     id="g1455"
     transform="translate(0.01502825,75.803632)"
     inkscape:export-filename="ecus_encrypted.svg"
     inkscape:export-xdpi="96"
     inkscape:export-ydpi="96">
    <rect
       style="fill:none;fill-opacity:0.397273;stroke:#000000;stroke-width:1;stroke-linecap:round;stroke-dasharray:none;stroke-dashoffset:3.77952"
       id="rect1172"
       width="42.030056"
       height="23.030056"
       x="0.48497176"
       y="0.48497176"
       rx="1.9608431"
       ry="1.9191712" />
    <g
       id="g1184"
       transform="matrix(0.45200962,0,0,0.45200962,28.115954,-0.60231158)">
      <path
         id="path1174"
         style="fill:#ffffff;fill-opacity:0.372679;stroke:#000000;stroke-width:0.978882;stroke-linecap:round"
         d="m 20.517951,8.36352 h 7.45967 c 0.16973,0 0.30637,0.14843 0.30637,0.33281 v 4.82646 c 0,0.18438 -0.13664,0.33282 -0.30637,0.33282 h -7.45967 c -0.16973,0 -0.30637,-0.14844 -0.30637,-0.33282 V 8.69633 c 0,-0.18438 0.13664,-0.33281 0.30637,-0.33281 z" />
      <path
         id="path1176"
         style="fill:none;fill-opacity:0.372679;stroke:#000000;stroke-width:0.891241;stroke-linecap:round;stroke-dasharray:none"
         d="m 21.630211,7.98228 a 2.6175713,3.330644 0.02052872 0 1 2.61877,-3.32971 2.6175713,3.330644 0.02052872 0 1 2.61638,3.33156" />
      <g
         id="g1182"
         transform="matrix(0.19577635,0,0,0.19577635,5.066091,-9.362344)"
         inkscape:export-filename="door_unlock_button.svg"
         inkscape:export-xdpi="96"
         inkscape:export-ydpi="96"
         style="fill:#000000;fill-opacity:0.996818">
        <path
           id="path1178"
           style="fill:#000000;fill-opacity:0.996818;stroke:#000000;stroke-width:1;stroke-linecap:round;stroke-dasharray:none"
           d="m 96.497477,103.85616 c -1.008091,-0.40301 -1.754999,-1.17171 -2.147655,-2.08869 -0.392653,-0.91699 -0.431051,-1.982291 -0.02212,-2.978548 0.817846,-1.992505 3.115277,-2.954321 5.131461,-2.148275 2.016157,0.806049 2.987607,3.074729 2.169777,5.067233 -0.40893,0.99626 -1.18775,1.73484 -2.116341,2.1236"
           sodipodi:nodetypes="cssssc" />
        <path
           id="path1180"
           style="fill:#000000;fill-opacity:0.996818;stroke:#000000;stroke-linecap:round"
           d="m 99.419887,103.83369 c 0,0 0.33184,0.77454 0.506574,1.69997 l 1.058329,5.60513 c 0.17473,0.92543 -0.69794,1.69996 -1.564904,1.69996 h -2.8946 c -0.866959,0 -1.739643,-0.77453 -1.564908,-1.69996 l 1.058333,-5.60513 c 0.174735,-0.92543 0.506574,-1.69997 0.506574,-1.69997"
           sodipodi:nodetypes="cssssssc" />
      </g>
    </g>
  </g>
  <g
     id="g1471"
     transform="translate(0.01502825,50.540764)">
    <rect
       style="fill:none;fill-opacity:0.397273;stroke:#000000;stroke-width:1;stroke-linecap:round;stroke-dasharray:none;stroke-dashoffset:3.77952"
       id="rect1457"
       width="42.030056"
       height="23.030056"
       x="0.48497176"
       y="0.48497176"
       rx="1.9608431"
       ry="1.9191712" />
    <g
       id="g1469"
       transform="matrix(0.45200962,0,0,0.45200962,28.115954,-0.60231158)">
      <path
         id="path1459"
         style="fill:#ffffff;fill-opacity:0.372679;stroke:#000000;stroke-width:0.978882;stroke-linecap:round"
         d="m 20.517951,8.36352 h 7.45967 c 0.16973,0 0.30637,0.14843 0.30637,0.33281 v 4.82646 c 0,0.18438 -0.13664,0.33282 -0.30637,0.33282 h -7.45967 c -0.16973,0 -0.30637,-0.14844 -0.30637,-0.33282 V 8.69633 c 0,-0.18438 0.13664,-0.33281 0.30637,-0.33281 z" />
      <path
         id="path1461"
         style="fill:none;fill-opacity:0.372679;stroke:#000000;stroke-width:0.891241;stroke-linecap:round;stroke-dasharray:none"
         d="m 21.630211,7.98228 a 2.6175713,3.330644 0.02052872 0 1 2.61877,-3.32971 2.6175713,3.330644 0.02052872 0 1 2.61638,3.33156" />
      <g
         id="g1467"
         transform="matrix(0.19577635,0,0,0.19577635,5.066091,-9.362344)"
         inkscape:export-filename="door_unlock_button.svg"
         inkscape:export-xdpi="96"
         inkscape:export-ydpi="96"
         style="fill:#000000;fill-opacity:0.996818">
        <path
           id="path1463"
           style="fill:#000000;fill-opacity:0.996818;stroke:#000000;stroke-width:1;stroke-linecap:round;stroke-dasharray:none"
           d="m 96.497477,103.85616 c -1.008091,-0.40301 -1.754999,-1.17171 -2.147655,-2.08869 -0.392653,-0.91699 -0.431051,-1.982291 -0.02212,-2.978548 0.817846,-1.992505 3.115277,-2.954321 5.131461,-2.148275 2.016157,0.806049 2.987607,3.074729 2.169777,5.067233 -0.40893,0.99626 -1.18775,1.73484 -2.116341,2.1236"
           sodipodi:nodetypes="cssssc" />
        <path
           id="path1465"
           style="fill:#000000;fill-opacity:0.996818;stroke:#000000;stroke-linecap:round"
           d="m 99.419887,103.83369 c 0,0 0.33184,0.77454 0.506574,1.69997 l 1.058329,5.60513 c 0.17473,0.92543 -0.69794,1.69996 -1.564904,1.69996 h -2.8946 c -0.866959,0 -1.739643,-0.77453 -1.564908,-1.69996 l 1.058333,-5.60513 c 0.174735,-0.92543 0.506574,-1.69997 0.506574,-1.69997"
           sodipodi:nodetypes="cssssssc" />
      </g>
    </g>
  </g>
  <g
     id="g1487"
     transform="translate(0.01502825,25.277896)">
    <rect
       style="fill:none;fill-opacity:0.397273;stroke:#000000;stroke-width:1;stroke-linecap:round;stroke-dasharray:none;stroke-dashoffset:3.77952"
       id="rect1473"
       width="42.030056"
       height="23.030056"
       x="0.48497176"
       y="0.48497176"
       rx="1.9608431"
       ry="1.9191712" />
    <g
       id="g1485"
       transform="matrix(0.45200962,0,0,0.45200962,28.115954,-0.60231158)">
      <path
         id="path1475"
         style="fill:#ffffff;fill-opacity:0.372679;stroke:#000000;stroke-width:0.978882;stroke-linecap:round"
         d="m 20.517951,8.36352 h 7.45967 c 0.16973,0 0.30637,0.14843 0.30637,0.33281 v 4.82646 c 0,0.18438 -0.13664,0.33282 -0.30637,0.33282 h -7.45967 c -0.16973,0 -0.30637,-0.14844 -0.30637,-0.33282 V 8.69633 c 0,-0.18438 0.13664,-0.33281 0.30637,-0.33281 z" />
      <path
         id="path1477"
         style="fill:none;fill-opacity:0.372679;stroke:#000000;stroke-width:0.891241;stroke-linecap:round;stroke-dasharray:none"
         d="m 21.630211,7.98228 a 2.6175713,3.330644 0.02052872 0 1 2.61877,-3.32971 2.6175713,3.330644 0.02052872 0 1 2.61638,3.33156" />
      <g
         id="g1483"
         transform="matrix(0.19577635,0,0,0.19577635,5.066091,-9.362344)"
         inkscape:export-filename="door_unlock_button.svg"
         inkscape:export-xdpi="96"
         inkscape:export-ydpi="96"
         style="fill:#000000;fill-opacity:0.996818">
        <path
           id="path1479"
           style="fill:#000000;fill-opacity:0.996818;stroke:#000000;stroke-width:1;stroke-linecap:round;stroke-dasharray:none"
           d="m 96.497477,103.85616 c -1.008091,-0.40301 -1.754999,-1.17171 -2.147655,-2.08869 -0.392653,-0.91699 -0.431051,-1.982291 -0.02212,-2.978548 0.817846,-1.992505 3.115277,-2.954321 5.131461,-2.148275 2.016157,0.806049 2.987607,3.074729 2.169777,5.067233 -0.40893,0.99626 -1.18775,1.73484 -2.116341,2.1236"
           sodipodi:nodetypes="cssssc" />
        <path
           id="path1481"
           style="fill:#000000;fill-opacity:0.996818;stroke:#000000;stroke-linecap:round"
           d="m 99.419887,103.83369 c 0,0 0.33184,0.77454 0.506574,1.69997 l 1.058329,5.60513 c 0.17473,0.92543 -0.69794,1.69996 -1.564904,1.69996 h -2.8946 c -0.866959,0 -1.739643,-0.77453 -1.564908,-1.69996 l 1.058333,-5.60513 c 0.174735,-0.92543 0.506574,-1.69997 0.506574,-1.69997"
           sodipodi:nodetypes="cssssssc" />
      </g>
    </g>
  </g>
  <g
     id="g1503"
     transform="translate(0.01502825,0.01502824)">
    <rect
       style="fill:none;fill-opacity:0.397273;stroke:#000000;stroke-width:1;stroke-linecap:round;stroke-dasharray:none;stroke-dashoffset:3.77952"
       id="rect1489"
       width="42.030056"
       height="23.030056"
       x="0.48497176"
       y="0.48497176"
       rx="1.9608431"
       ry="1.9191712" />
    <g
       id="g1501"
       transform="matrix(0.45200962,0,0,0.45200962,28.115954,-0.60231158)">
      <path
         id="path1491"
         style="fill:#ffffff;fill-opacity:0.372679;stroke:#000000;stroke-width:0.978882;stroke-linecap:round"
         d="m 20.517951,8.36352 h 7.45967 c 0.16973,0 0.30637,0.14843 0.30637,0.33281 v 4.82646 c 0,0.18438 -0.13664,0.33282 -0.30637,0.33282 h -7.45967 c -0.16973,0 -0.30637,-0.14844 -0.30637,-0.33282 V 8.69633 c 0,-0.18438 0.13664,-0.33281 0.30637,-0.33281 z" />
      <path
         id="path1493"
         style="fill:none;fill-opacity:0.372679;stroke:#000000;stroke-width:0.891241;stroke-linecap:round;stroke-dasharray:none"
         d="m 21.630211,7.98228 a 2.6175713,3.330644 0.02052872 0 1 2.61877,-3.32971 2.6175713,3.330644 0.02052872 0 1 2.61638,3.33156" />
      <g
         id="g1499"
         transform="matrix(0.19577635,0,0,0.19577635,5.066091,-9.362344)"
         inkscape:export-filename="door_unlock_button.svg"
         inkscape:export-xdpi="96"
         inkscape:export-ydpi="96"
         style="fill:#000000;fill-opacity:0.996818">
        <path
           id="path1495"
           style="fill:#000000;fill-opacity:0.996818;stroke:#000000;stroke-width:1;stroke-linecap:round;stroke-dasharray:none"
           d="m 96.497477,103.85616 c -1.008091,-0.40301 -1.754999,-1.17171 -2.147655,-2.08869 -0.392653,-0.91699 -0.431051,-1.982291 -0.02212,-2.978548 0.817846,-1.992505 3.115277,-2.954321 5.131461,-2.148275 2.016157,0.806049 2.987607,3.074729 2.169777,5.067233 -0.40893,0.99626 -1.18775,1.73484 -2.116341,2.1236"
           sodipodi:nodetypes="cssssc" />
        <path
           id="path1497"
           style="fill:#000000;fill-opacity:0.996818;stroke:#000000;stroke-linecap:round"
           d="m 99.419887,103.83369 c 0,0 0.33184,0.77454 0.506574,1.69997 l 1.058329,5.60513 c 0.17473,0.92543 -0.69794,1.69996 -1.564904,1.69996 h -2.8946 c -0.866959,0 -1.739643,-0.77453 -1.564908,-1.69996 l 1.058333,-5.60513 c 0.174735,-0.92543 0.506574,-1.69997 0.506574,-1.69997"
           sodipodi:nodetypes="cssssssc" />
      </g>
    </g>
  </g>
  <g
     id="g1519"
     transform="translate(0.01502824,101.0665)">
    <rect
       style="fill:none;fill-opacity:0.397273;stroke:#000000;stroke-width:1;stroke-linecap:round;stroke-dasharray:none;stroke-dashoffset:3.77952"
       id="rect1505"
       width="42.030056"
       height="23.030056"
       x="0.48497176"
       y="0.48497176"
       rx="1.9608431"
       ry="1.9191712" />
    <g
       id="g1517"
       transform="matrix(0.45200962,0,0,0.45200962,28.115954,-0.60231158)">
      <path
         id="path1507"
         style="fill:#ffffff;fill-opacity:0.372679;stroke:#000000;stroke-width:0.978882;stroke-linecap:round"
         d="m 20.517951,8.36352 h 7.45967 c 0.16973,0 0.30637,0.14843 0.30637,0.33281 v 4.82646 c 0,0.18438 -0.13664,0.33282 -0.30637,0.33282 h -7.45967 c -0.16973,0 -0.30637,-0.14844 -0.30637,-0.33282 V 8.69633 c 0,-0.18438 0.13664,-0.33281 0.30637,-0.33281 z" />
      <path
         id="path1509"
         style="fill:none;fill-opacity:0.372679;stroke:#000000;stroke-width:0.891241;stroke-linecap:round;stroke-dasharray:none"
         d="m 21.630211,7.98228 a 2.6175713,3.330644 0.02052872 0 1 2.61877,-3.32971 2.6175713,3.330644 0.02052872 0 1 2.61638,3.33156" />
      <g
         id="g1515"
         transform="matrix(0.19577635,0,0,0.19577635,5.066091,-9.362344)"
         inkscape:export-filename="door_unlock_button.svg"
         inkscape:export-xdpi="96"
         inkscape:export-ydpi="96"
         style="fill:#000000;fill-opacity:0.996818">
        <path
           id="path1511"
           style="fill:#000000;fill-opacity:0.996818;stroke:#000000;stroke-width:1;stroke-linecap:round;stroke-dasharray:none"
           d="m 96.497477,103.85616 c -1.008091,-0.40301 -1.754999,-1.17171 -2.147655,-2.08869 -0.392653,-0.91699 -0.431051,-1.982291 -0.02212,-2.978548 0.817846,-1.992505 3.115277,-2.954321 5.131461,-2.148275 2.016157,0.806049 2.987607,3.074729 2.169777,5.067233 -0.40893,0.99626 -1.18775,1.73484 -2.116341,2.1236"
           sodipodi:nodetypes="cssssc" />
        <path
           id="path1513"
           style="fill:#000000;fill-opacity:0.996818;stroke:#000000;stroke-linecap:round"
           d="m 99.419887,103.83369 c 0,0 0.33184,0.77454 0.506574,1.69997 l 1.058329,5.60513 c 0.17473,0.92543 -0.69794,1.69996 -1.564904,1.69996 h -2.8946 c -0.866959,0 -1.739643,-0.77453 -1.564908,-1.69996 l 1.058333,-5.60513 c 0.174735,-0.92543 0.506574,-1.69997 0.506574,-1.69997"
           sodipodi:nodetypes="cssssssc" />
      </g>
    </g>
  </g>
</svg>
