<?xml version="1.0" encoding="UTF-8" standalone="no"?>
<!-- Created with Inkscape (http://www.inkscape.org/) -->

<svg
   id="svg10932"
   version="1.1"
   inkscape:version="0.91 r13725"
   width="54.107601"
   height="54.107601"
   viewBox="0 0 54.107601 54.107601"
   sodipodi:docname="engine_start.svg"
   inkscape:export-filename="engine_start.svg"
   inkscape:export-xdpi="96"
   inkscape:export-ydpi="96"
   xmlns:inkscape="http://www.inkscape.org/namespaces/inkscape"
   xmlns:sodipodi="http://sodipodi.sourceforge.net/DTD/sodipodi-0.dtd"
   xmlns="http://www.w3.org/2000/svg"
   xmlns:svg="http://www.w3.org/2000/svg"
   xmlns:rdf="http://www.w3.org/1999/02/22-rdf-syntax-ns#"
   xmlns:cc="http://creativecommons.org/ns#"
   xmlns:dc="http://purl.org/dc/elements/1.1/">
  <metadata
     id="metadata10938">
    <rdf:RDF>
      <cc:Work
         rdf:about="">
        <dc:format>image/svg+xml</dc:format>
        <dc:type
           rdf:resource="http://purl.org/dc/dcmitype/StillImage" />
        <dc:title />
      </cc:Work>
    </rdf:RDF>
  </metadata>
  <defs
     id="defs10936" />
  <sodipodi:namedview
     pagecolor="#ffffff"
     bordercolor="#666666"
     borderopacity="1"
     objecttolerance="10"
     gridtolerance="10"
     guidetolerance="10"
     inkscape:pageopacity="0"
     inkscape:pageshadow="2"
     inkscape:window-width="1432"
     inkscape:window-height="1159"
     id="namedview10934"
     showgrid="false"
     width="120px"
     inkscape:zoom="9.5816548"
     inkscape:cx="62.5"
     inkscape:cy="45"
     inkscape:window-x="740"
     inkscape:window-y="64"
     inkscape:window-maximized="0"
     inkscape:current-layer="layer10"
     inkscape:showpageshadow="2"
     inkscape:pagecheckerboard="0"
     inkscape:deskcolor="#d1d1d1" />
  <g
     inkscape:groupmode="layer"
     id="layer9"
     inkscape:label="image"
     transform="translate(-34.52073,-12.841069)">
    <circle
       style="fill:#ffffff;fill-opacity:0.4;stroke:#000000;stroke-width:4.8259;stroke-dasharray:none"
       id="path4244"
       cx="61.574532"
       cy="39.894871"
       r="24.640852" />
    <path
       style="fill:#800000;fill-opacity:1;fill-rule:evenodd;stroke:none;stroke-width:0.412516px;stroke-linecap:butt;stroke-linejoin:miter;stroke-opacity:1"
       d="m 44.611763,33.006458 h -2.023475 l 0.129158,14.465691 1.937369,-0.08611 v -5.984318 l 1.506843,-0.04305 0.04305,6.50095 2.92758,-0.08611 6.888425,5.123266 15.326744,-0.08611 0.64579,-0.602738 0.17221,-0.516631 -0.04305,-2.970633 h 1.29158 l 0.04305,2.324843 0.473579,0.516632 4.77884,0.04305 0.68885,-0.731896 0.60274,-1.377685 0.51663,-2.023474 0.0431,-9.299373 -1.46379,-3.57337 -5.553794,0.04305 v 1.377685 l -1.248527,-0.04305 -0.04305,-1.506842 -2.970634,-0.04305 0.08611,-1.679053 -0.516632,-1.076317 -1.076316,-1.205474 -0.559685,-0.215263 -4.821897,0.04305 -0.04305,-1.377684 4.778844,-0.08611 0.04305,-1.937369 h -15.54206 v 1.937369 H 56.5804 l -0.04305,1.377685 h -4.821897 l -2.626212,2.28179 h -3.056739 v 6.199583 h -1.420737 z"
       id="path10942"
       inkscape:connector-curvature="0"
       sodipodi:nodetypes="ccccccccccccccccccccccccccccccccccccccccccccc" />
    <g
       aria-label="Start"
       id="text5028"
       style="font-size:13.3333px;line-height:1.25">
      <path
         d="m 54.546496,43.859616 q 0,1.266664 -0.919997,1.973329 -0.919998,0.706665 -2.479994,0.706665 -0.799998,0 -1.479996,-0.12 -0.679999,-0.12 -1.133331,-0.333332 v -1.146664 q 0.479999,0.213333 1.186664,0.386665 0.719998,0.173333 1.479996,0.173333 1.066664,0 1.599996,-0.413332 0.546665,-0.413332 0.546665,-1.119997 0,-0.466666 -0.199999,-0.786665 -0.2,-0.319999 -0.693332,-0.586665 -0.479998,-0.279999 -1.346663,-0.586665 -1.21333,-0.439999 -1.839995,-1.079997 -0.613332,-0.639999 -0.613332,-1.746663 0,-0.759998 0.386666,-1.29333 0.386665,-0.546665 1.066664,-0.839998 0.693331,-0.293332 1.586662,-0.293332 0.786665,0 1.439997,0.146666 0.653331,0.146666 1.186663,0.386666 l -0.373332,1.026664 q -0.493332,-0.213333 -1.079997,-0.359999 -0.573332,-0.146667 -1.199997,-0.146667 -0.893331,0 -1.346664,0.386666 -0.453332,0.373333 -0.453332,0.999998 0,0.479998 0.2,0.799998 0.199999,0.319999 0.653331,0.573331 0.453333,0.253333 1.226664,0.546666 0.839998,0.306666 1.41333,0.666665 0.586665,0.346666 0.879997,0.839998 0.306666,0.493332 0.306666,1.239996 z"
         id="path5080" />
      <path
         d="m 58.69315,45.579612 q 0.266666,0 0.546665,-0.04 0.279999,-0.05333 0.453332,-0.106666 v 0.893331 q -0.186666,0.09333 -0.533332,0.146666 -0.346666,0.06667 -0.666665,0.06667 -0.559998,0 -1.039997,-0.186666 -0.466666,-0.2 -0.759998,-0.679999 -0.293333,-0.479999 -0.293333,-1.346663 v -4.15999 h -1.013331 v -0.559998 l 1.026665,-0.466666 0.466665,-1.519996 h 0.693332 v 1.639996 h 2.066661 v 0.906664 h -2.066661 v 4.133323 q 0,0.653332 0.306665,0.973331 0.32,0.306666 0.813332,0.306666 z"
         id="path5082" />
      <path
         d="m 63.826471,39.139628 q 1.306663,0 1.933328,0.573332 0.626666,0.573332 0.626666,1.826662 v 4.866655 h -0.853332 l -0.226666,-1.013331 h -0.05333 q -0.466665,0.586665 -0.986664,0.866664 -0.506665,0.28 -1.41333,0.28 -0.973331,0 -1.613329,-0.506666 -0.639999,-0.519998 -0.639999,-1.613329 0,-1.066664 0.839998,-1.639996 0.839998,-0.586665 2.586661,-0.639998 l 1.21333,-0.04 v -0.426666 q 0,-0.893331 -0.386666,-1.239997 -0.386666,-0.346665 -1.09333,-0.346665 -0.559999,0 -1.066664,0.173333 -0.506666,0.159999 -0.946665,0.373332 L 61.386477,39.75296 q 0.466666,-0.253333 1.106664,-0.426665 0.639998,-0.186667 1.33333,-0.186667 z m 0.346666,3.813324 q -1.33333,0.05333 -1.853329,0.426666 -0.506665,0.373332 -0.506665,1.05333 0,0.599999 0.359999,0.879998 0.373332,0.279999 0.946664,0.279999 0.906665,0 1.506663,-0.493332 0.599998,-0.506665 0.599998,-1.546662 v -0.639999 z"
         id="path5084" />
      <path
         d="m 71.933128,39.126295 q 0.199999,0 0.426666,0.02667 0.239999,0.01333 0.413332,0.05333 l -0.146666,1.079997 q -0.173333,-0.04 -0.386666,-0.06667 -0.2,-0.02667 -0.386666,-0.02667 -0.546665,0 -1.026664,0.306666 -0.479999,0.293333 -0.773331,0.839998 -0.28,0.533332 -0.28,1.25333 v 3.813324 h -1.17333 v -7.146649 h 0.959998 l 0.133333,1.306663 h 0.05333 q 0.346666,-0.586665 0.893331,-1.01333 0.546665,-0.426666 1.29333,-0.426666 z"
         id="path5086" />
      <path
         d="m 76.493118,45.579612 q 0.266666,0 0.546666,-0.04 0.279999,-0.05333 0.453332,-0.106666 v 0.893331 q -0.186666,0.09333 -0.533332,0.146666 -0.346666,0.06667 -0.666665,0.06667 -0.559999,0 -1.039997,-0.186666 -0.466666,-0.2 -0.759998,-0.679999 -0.293333,-0.479999 -0.293333,-1.346663 v -4.15999 H 73.18646 v -0.559998 l 1.026664,-0.466666 0.466666,-1.519996 h 0.693331 v 1.639996 h 2.066662 v 0.906664 h -2.066662 v 4.133323 q 0,0.653332 0.306666,0.973331 0.319999,0.306666 0.813331,0.306666 z"
         id="path5088" />
    </g>
  </g>
</svg>
