<?xml version="1.0" encoding="UTF-8" standalone="no"?>
<!-- Created with Inkscape (http://www.inkscape.org/) -->

<svg
   width="67.165031mm"
   height="12.704519mm"
   viewBox="0 0 67.165031 12.704519"
   version="1.1"
   id="svg5"
   sodipodi:docname="reverse_steering_attack_button.svg"
   inkscape:version="1.2.2 (b0a8486541, 2022-12-01)"
   inkscape:export-filename="horn_attack_button.svg"
   inkscape:export-xdpi="96"
   inkscape:export-ydpi="96"
   xmlns:inkscape="http://www.inkscape.org/namespaces/inkscape"
   xmlns:sodipodi="http://sodipodi.sourceforge.net/DTD/sodipodi-0.dtd"
   xmlns="http://www.w3.org/2000/svg"
   xmlns:svg="http://www.w3.org/2000/svg">
  <sodipodi:namedview
     id="namedview7"
     pagecolor="#ffffff"
     bordercolor="#666666"
     borderopacity="1.0"
     inkscape:showpageshadow="2"
     inkscape:pageopacity="0.0"
     inkscape:pagecheckerboard="0"
     inkscape:deskcolor="#d1d1d1"
     inkscape:document-units="mm"
     showgrid="false"
     inkscape:zoom="1.9951192"
     inkscape:cx="156.88286"
     inkscape:cy="26.314218"
     inkscape:window-width="1898"
     inkscape:window-height="1008"
     inkscape:window-x="0"
     inkscape:window-y="0"
     inkscape:window-maximized="1"
     inkscape:current-layer="layer1" />
  <defs
     id="defs2" />
  <g
     inkscape:label="Layer 1"
     inkscape:groupmode="layer"
     id="layer1"
     transform="translate(-22.717711,-39.949462)">
    <path
       id="rect8286"
       style="fill:#ffffff;fill-opacity:0.398449;stroke:#000000;stroke-width:0.964999;stroke-linecap:round"
       d="m 26.200211,40.431961 h 60.200035 c 1.662,0 3,1.338 3,3 v 5.739519 c 0,1.662 -1.338,3 -3,3 H 26.200211 c -1.662,0 -3,-1.338 -3,-3 v -5.739519 c 0,-1.662 1.338,-3 3,-3 z" />
    <g
       aria-label="Engine OFF"
       id="text11704"
       style="font-size:7.7611px;line-height:1.25;stroke-width:0.264583"
       transform="translate(-39.347364,-20.999114)">
      <path
         d="m 78.611987,69.229469 h -3.096679 v -5.541425 h 3.096679 v 0.613127 h -2.39818 v 1.730725 h 2.25848 v 0.605366 h -2.25848 v 1.97908 h 2.39818 z"
         id="path11727" />
      <path
         d="m 81.739709,64.991909 q 0.745065,0 1.125359,0.364771 0.380294,0.357011 0.380294,1.164165 v 2.708624 h -0.675216 v -2.662057 q 0,-1.001182 -0.931332,-1.001182 -0.690737,0 -0.954615,0.388055 -0.263877,0.388055 -0.263877,1.117599 v 2.157585 H 79.737345 V 65.06952 h 0.551038 l 0.100894,0.56656 h 0.03881 q 0.201788,-0.325966 0.558799,-0.481188 0.357011,-0.162983 0.752827,-0.162983 z"
         id="path11729" />
      <path
         d="m 86.008314,64.991909 q 0.411339,0 0.737305,0.155222 0.333727,0.155222 0.56656,0.473427 h 0.03881 l 0.09313,-0.551038 h 0.543277 v 4.229799 q 0,0.892527 -0.457905,1.34267 -0.450144,0.450144 -1.404759,0.450144 -0.91581,0 -1.497892,-0.263877 v -0.628649 q 0.613127,0.325966 1.536697,0.325966 0.535516,0 0.838199,-0.318205 0.310444,-0.310444 0.310444,-0.853721 v -0.162983 q 0,-0.09313 0.0078,-0.263878 0.0078,-0.178505 0.01552,-0.248355 h -0.03105 q -0.419099,0.628649 -1.288342,0.628649 -0.807155,0 -1.26506,-0.56656 -0.450144,-0.56656 -0.450144,-1.583264 0,-0.993421 0.450144,-1.575504 0.457905,-0.589843 1.257298,-0.589843 z m 0.09313,0.574321 q -0.519994,0 -0.807155,0.4191 -0.28716,0.411338 -0.28716,1.179687 0,0.768349 0.279399,1.179687 0.287161,0.403577 0.830438,0.403577 0.628649,0 0.91581,-0.333727 0.28716,-0.341489 0.28716,-1.094315 v -0.162983 q 0,-0.853721 -0.294921,-1.218493 -0.294922,-0.372533 -0.923571,-0.372533 z"
         id="path11731" />
      <path
         d="m 89.656029,63.509539 q 0.155222,0 0.271639,0.108655 0.124177,0.100894 0.124177,0.325966 0,0.217311 -0.124177,0.325967 -0.116417,0.108655 -0.271639,0.108655 -0.170744,0 -0.287161,-0.108655 -0.116416,-0.108656 -0.116416,-0.325967 0,-0.225072 0.116416,-0.325966 0.116417,-0.108655 0.287161,-0.108655 z m 0.333727,1.559981 v 4.159949 H 89.30678 V 65.06952 Z"
         id="path11733" />
      <path
         d="m 93.311503,64.991909 q 0.745065,0 1.125359,0.364771 0.380294,0.357011 0.380294,1.164165 v 2.708624 H 94.14194 v -2.662057 q 0,-1.001182 -0.931332,-1.001182 -0.690737,0 -0.954615,0.388055 -0.263877,0.388055 -0.263877,1.117599 v 2.157585 H 91.309139 V 65.06952 h 0.551038 l 0.100894,0.56656 h 0.03881 q 0.201788,-0.325966 0.558799,-0.481188 0.357011,-0.162983 0.752827,-0.162983 z"
         id="path11735" />
      <path
         d="m 97.712046,64.991909 q 0.535516,0 0.91581,0.232833 0.388055,0.232833 0.589843,0.659693 0.20955,0.4191 0.20955,0.98566 v 0.411338 h -2.848324 q 0.01552,0.70626 0.357011,1.078793 0.349249,0.364772 0.970137,0.364772 0.395816,0 0.698499,-0.06985 0.310444,-0.07761 0.63641,-0.217311 v 0.597605 q -0.318205,0.1397 -0.628649,0.201788 -0.310444,0.06985 -0.737304,0.06985 -0.589844,0 -1.047749,-0.240594 -0.450143,-0.240594 -0.70626,-0.714021 -0.248355,-0.481188 -0.248355,-1.171926 0,-0.682977 0.225072,-1.171926 0.232833,-0.488949 0.644171,-0.752827 0.4191,-0.263877 0.970138,-0.263877 z m -0.0078,0.558799 q -0.48895,0 -0.77611,0.318205 -0.2794,0.310444 -0.333728,0.869243 h 2.118781 q -0.0078,-0.527755 -0.248356,-0.853721 -0.240594,-0.333727 -0.760587,-0.333727 z"
         id="path11737" />
      <path
         d="m 107.42894,66.450996 q 0,0.861482 -0.29492,1.505653 -0.28716,0.63641 -0.85372,0.993421 -0.56656,0.35701 -1.40476,0.35701 -0.86149,0 -1.43581,-0.35701 -0.56656,-0.357011 -0.84596,-1.001182 -0.2794,-0.644171 -0.2794,-1.505654 0,-0.853721 0.2794,-1.490131 0.2794,-0.63641 0.84596,-0.99342 0.57432,-0.357011 1.44357,-0.357011 0.83044,0 1.397,0.357011 0.56656,0.349249 0.85372,0.99342 0.29492,0.63641 0.29492,1.497893 z m -4.37726,0 q 0,1.047748 0.44238,1.653114 0.44238,0.597605 1.38148,0.597605 0.94685,0 1.38147,-0.597605 0.43462,-0.605366 0.43462,-1.653114 0,-1.047749 -0.43462,-1.637592 -0.43462,-0.597605 -1.37371,-0.597605 -0.9391,0 -1.38924,0.597605 -0.44238,0.589843 -0.44238,1.637592 z"
         id="path11739" />
      <path
         d="m 109.35369,69.229469 h -0.6985 v -5.541425 h 3.09668 v 0.613127 h -2.39818 v 1.963558 h 2.25072 v 0.613127 h -2.25072 z"
         id="path11741" />
      <path
         d="m 113.3817,69.229469 h -0.6985 v -5.541425 h 3.09668 v 0.613127 h -2.39818 v 1.963558 h 2.25071 v 0.613127 h -2.25071 z"
         id="path11743" />
    </g>
  </g>
</svg>
