<?xml version="1.0" encoding="UTF-8" standalone="no"?>
<!-- Created with Inkscape (http://www.inkscape.org/) -->

<svg
   width="37.547581mm"
   height="9.9956303mm"
   viewBox="0 0 37.547581 9.9956303"
   version="1.1"
   id="svg5"
   xmlns:inkscape="http://www.inkscape.org/namespaces/inkscape"
   xmlns:sodipodi="http://sodipodi.sourceforge.net/DTD/sodipodi-0.dtd"
   xmlns="http://www.w3.org/2000/svg"
   xmlns:svg="http://www.w3.org/2000/svg">
  <sodipodi:namedview
     id="namedview7"
     pagecolor="#ffffff"
     bordercolor="#666666"
     borderopacity="1.0"
     inkscape:showpageshadow="2"
     inkscape:pageopacity="0.0"
     inkscape:pagecheckerboard="0"
     inkscape:deskcolor="#d1d1d1"
     inkscape:document-units="mm"
     showgrid="false" />
  <defs
     id="defs2" />
  <g
     inkscape:label="Layer 1"
     inkscape:groupmode="layer"
     id="layer1"
     transform="translate(-28.248351,-25.584386)">
    <rect
       style="fill:none;stroke:#000000;stroke-width:1.27237;stroke-linecap:round"
       id="rect234"
       width="36.275208"
       height="8.7232599"
       x="28.884535"
       y="26.220572"
       rx="2.6370378"
       ry="2.6370378" />
    <g
       aria-label="Flood Attack"
       id="text290"
       style="font-size:4.23333px;line-height:1.25;stroke-width:0.264583"
       inkscape:export-filename="flood_attack_button.svg"
       inkscape:export-xdpi="96"
       inkscape:export-ydpi="96"
       transform="matrix(1.3185189,0,0,1.3185189,-8.9976335,-8.1491109)">
      <path
         d="m 30.81984,30.962362 h -0.380999 v -3.022597 h 1.689098 v 0.334433 H 30.81984 v 1.071032 h 1.227666 v 0.334433 H 30.81984 Z"
         id="path450" />
      <path
         d="m 32.957668,30.962362 h -0.372533 v -3.21733 h 0.372533 z"
         id="path452" />
      <path
         d="m 35.650063,29.823597 q 0,0.563032 -0.287866,0.872066 -0.283633,0.309033 -0.770466,0.309033 -0.300566,0 -0.537633,-0.135467 -0.232833,-0.1397 -0.3683,-0.402166 -0.135466,-0.2667 -0.135466,-0.643466 0,-0.563033 0.283633,-0.867833 0.283633,-0.3048 0.770466,-0.3048 0.309033,0 0.541866,0.1397 0.237067,0.135467 0.3683,0.397933 0.135466,0.258233 0.135466,0.635 z m -1.714498,0 q 0,0.402166 0.156633,0.639232 0.160867,0.232834 0.508,0.232834 0.342899,0 0.503766,-0.232834 0.160866,-0.237066 0.160866,-0.639232 0,-0.402167 -0.160866,-0.630767 -0.160867,-0.228599 -0.508,-0.228599 -0.347133,0 -0.503766,0.228599 -0.156633,0.2286 -0.156633,0.630767 z"
         id="path454" />
      <path
         d="m 38.211226,29.823597 q 0,0.563032 -0.287867,0.872066 -0.283633,0.309033 -0.770466,0.309033 -0.300566,0 -0.537632,-0.135467 -0.232834,-0.1397 -0.3683,-0.402166 -0.135467,-0.2667 -0.135467,-0.643466 0,-0.563033 0.283633,-0.867833 0.283633,-0.3048 0.770466,-0.3048 0.309033,0 0.541867,0.1397 0.237066,0.135467 0.368299,0.397933 0.135467,0.258233 0.135467,0.635 z m -1.714499,0 q 0,0.402166 0.156634,0.639232 0.160866,0.232834 0.507999,0.232834 0.3429,0 0.503766,-0.232834 0.160867,-0.237066 0.160867,-0.639232 0,-0.402167 -0.160867,-0.630767 -0.160866,-0.228599 -0.507999,-0.228599 -0.347133,0 -0.503766,0.228599 -0.156634,0.2286 -0.156634,0.630767 z"
         id="path456" />
      <path
         d="m 39.60399,31.004696 q -0.423333,0 -0.677333,-0.2921 -0.254,-0.296333 -0.254,-0.880533 0,-0.584199 0.254,-0.880532 0.258233,-0.300567 0.681566,-0.300567 0.262467,0 0.427566,0.09737 0.169334,0.09737 0.275167,0.237066 h 0.0254 q -0.0042,-0.05503 -0.01693,-0.160866 -0.0085,-0.110067 -0.0085,-0.173567 v -0.905932 h 0.372533 v 3.21733 h -0.300567 l -0.05503,-0.304799 h -0.01693 q -0.1016,0.143933 -0.270933,0.245533 -0.169333,0.1016 -0.436033,0.1016 z m 0.05927,-0.309033 q 0.359833,0 0.503767,-0.194734 0.148166,-0.198966 0.148166,-0.596899 V 29.8363 q 0,-0.423333 -0.1397,-0.6477 -0.1397,-0.2286 -0.516466,-0.2286 -0.300566,0 -0.452966,0.2413 -0.148167,0.237067 -0.148167,0.639233 0,0.4064 0.148167,0.630766 0.1524,0.224367 0.457199,0.224367 z"
         id="path458" />
      <path
         d="m 44.451152,30.962362 -0.364066,-0.935566 h -1.198032 l -0.359833,0.935566 h -0.385233 l 1.181099,-3.035297 h 0.342899 l 1.176866,3.035297 z M 43.63412,28.773731 q -0.0127,-0.03387 -0.04233,-0.122767 -0.02963,-0.0889 -0.05927,-0.182033 -0.0254,-0.09737 -0.04233,-0.148166 -0.02963,0.131233 -0.06773,0.258233 -0.0381,0.122766 -0.0635,0.194733 l -0.342899,0.914399 h 0.956732 z"
         id="path460" />
      <path
         d="m 45.966684,30.699896 q 0.08467,0 0.173566,-0.0127 0.0889,-0.01693 0.143934,-0.03387 v 0.283633 q -0.05927,0.02963 -0.169334,0.04657 -0.110066,0.02117 -0.211666,0.02117 -0.1778,0 -0.3302,-0.05927 -0.148166,-0.0635 -0.2413,-0.2159 -0.09313,-0.1524 -0.09313,-0.427566 v -1.320799 h -0.321733 v -0.1778 l 0.325967,-0.148166 0.148166,-0.4826 h 0.220133 v 0.5207 h 0.656166 v 0.287866 h -0.656166 v 1.312332 q 0,0.207433 0.09737,0.309033 0.1016,0.09737 0.258233,0.09737 z"
         id="path462" />
      <path
         d="m 47.494916,30.699896 q 0.08467,0 0.173567,-0.0127 0.0889,-0.01693 0.143933,-0.03387 v 0.283633 q -0.05927,0.02963 -0.169333,0.04657 -0.110067,0.02117 -0.211666,0.02117 -0.1778,0 -0.3302,-0.05927 -0.148167,-0.0635 -0.2413,-0.2159 -0.09313,-0.1524 -0.09313,-0.427566 v -1.320799 h -0.321733 v -0.1778 l 0.325966,-0.148166 0.148167,-0.4826 h 0.220133 v 0.5207 h 0.656166 v 0.287866 H 47.13932 v 1.312332 q 0,0.207433 0.09737,0.309033 0.1016,0.09737 0.258233,0.09737 z"
         id="path464" />
      <path
         d="m 49.124749,28.655198 q 0.414866,0 0.613833,0.182033 0.198966,0.182033 0.198966,0.579966 v 1.545165 h -0.270933 l -0.07197,-0.321733 h -0.01693 q -0.148166,0.186267 -0.313266,0.275167 -0.160867,0.0889 -0.448733,0.0889 -0.309033,0 -0.512233,-0.160867 -0.2032,-0.1651 -0.2032,-0.512233 0,-0.338666 0.2667,-0.520699 0.2667,-0.186267 0.821266,-0.2032 l 0.385233,-0.0127 V 29.45953 q 0,-0.283633 -0.122767,-0.393699 -0.122766,-0.110067 -0.347133,-0.110067 -0.1778,0 -0.338666,0.05503 -0.160867,0.0508 -0.300566,0.118533 l -0.1143,-0.279399 q 0.148166,-0.08043 0.351366,-0.135467 0.2032,-0.05927 0.423333,-0.05927 z m 0.110067,1.210732 q -0.423333,0.01693 -0.588433,0.135466 -0.160867,0.118534 -0.160867,0.334433 0,0.1905 0.1143,0.2794 0.118533,0.0889 0.300566,0.0889 0.287867,0 0.478367,-0.156633 0.1905,-0.160867 0.1905,-0.491066 v -0.2032 z"
         id="path466" />
      <path
         d="m 51.55045,31.004696 q -0.300567,0 -0.537633,-0.122767 -0.232833,-0.122767 -0.3683,-0.381 -0.131233,-0.258233 -0.131233,-0.660399 0,-0.4191 0.1397,-0.681566 0.1397,-0.262467 0.376766,-0.385233 0.2413,-0.122767 0.5461,-0.122767 0.173566,0 0.334433,0.0381 0.160866,0.03387 0.262466,0.08467 l -0.1143,0.309033 q -0.1016,-0.0381 -0.237066,-0.07197 -0.135467,-0.03387 -0.254,-0.03387 -0.668866,0 -0.668866,0.859366 0,0.410633 0.160866,0.630766 0.1651,0.2159 0.486833,0.2159 0.186267,0 0.325967,-0.0381 0.143933,-0.0381 0.262466,-0.09313 v 0.3302 q -0.1143,0.05927 -0.254,0.0889 -0.135466,0.03387 -0.330199,0.03387 z"
         id="path468" />
      <path
         d="m 53.040579,29.425664 q 0,0.06773 -0.0085,0.177799 -0.0042,0.110067 -0.0085,0.1905 h 0.01693 q 0.0254,-0.03387 0.0762,-0.09737 0.0508,-0.0635 0.1016,-0.127 0.05503,-0.06773 0.09313,-0.110067 l 0.7239,-0.766232 h 0.436033 l -0.918633,0.969432 0.982133,1.299632 h -0.448733 l -0.7874,-1.058332 -0.258233,0.224366 v 0.833966 H 52.67228 v -3.21733 h 0.368299 z"
         id="path470" />
    </g>
  </g>
</svg>
