<?xml version="1.0" encoding="UTF-8" standalone="no"?>
<!-- Created with Inkscape (http://www.inkscape.org/) -->

<svg
   width="29.199034mm"
   height="13.518304mm"
   viewBox="0 0 29.199034 13.518304"
   version="1.1"
   id="svg5"
   xml:space="preserve"
   sodipodi:docname="front_lights_high_beam.svg"
   inkscape:export-filename="car_chassis.svg"
   inkscape:export-xdpi="96"
   inkscape:export-ydpi="96"
   xmlns:inkscape="http://www.inkscape.org/namespaces/inkscape"
   xmlns:sodipodi="http://sodipodi.sourceforge.net/DTD/sodipodi-0.dtd"
   xmlns:xlink="http://www.w3.org/1999/xlink"
   xmlns="http://www.w3.org/2000/svg"
   xmlns:svg="http://www.w3.org/2000/svg"><sodipodi:namedview
     id="namedview7"
     pagecolor="#ffffff"
     bordercolor="#000000"
     borderopacity="0.25"
     inkscape:showpageshadow="2"
     inkscape:pageopacity="0.0"
     inkscape:pagecheckerboard="0"
     inkscape:deskcolor="#d1d1d1"
     inkscape:document-units="mm"
     showgrid="false" /><defs
     id="defs2"><linearGradient
       inkscape:collect="always"
       id="linearGradient7130"><stop
         style="stop-color:#ffffff;stop-opacity:0.75424159;"
         offset="0"
         id="stop7126" /><stop
         style="stop-color:#ffffff;stop-opacity:0;"
         offset="1"
         id="stop7128" /></linearGradient><linearGradient
       inkscape:collect="always"
       xlink:href="#linearGradient7130"
       id="linearGradient7132"
       x1="45.560902"
       y1="231.4153"
       x2="54.747982"
       y2="231.4153"
       gradientUnits="userSpaceOnUse"
       gradientTransform="rotate(-90,50.154442,231.4153)" /><linearGradient
       inkscape:collect="always"
       xlink:href="#linearGradient7130"
       id="linearGradient7136"
       gradientUnits="userSpaceOnUse"
       gradientTransform="rotate(-90,59.150273,222.41949)"
       x1="45.560902"
       y1="231.4153"
       x2="54.747982"
       y2="231.4153" /></defs><g
     inkscape:label="Layer 1"
     inkscape:groupmode="layer"
     id="layer1"
     transform="translate(-44.55076,-226.82176)"><path
       style="fill:#ffffff;stroke:#000000;stroke-width:0.299992;stroke-dasharray:none"
       d="m 45.954093,238.95142 1.319645,-2.07279 6.160432,-0.24647 -6.339624,3.52036 z"
       id="path1356"
       sodipodi:nodetypes="ccccc"
       inkscape:export-filename="front_lights_low_beam.svg"
       inkscape:export-xdpi="96"
       inkscape:export-ydpi="96" /><path
       style="fill:#ffffff;stroke:#000000;stroke-width:0.299992;stroke-dasharray:none"
       d="m 72.608162,238.95142 -1.319645,-2.07279 -6.160432,-0.24647 6.339624,3.52036 z"
       id="path1418"
       sodipodi:nodetypes="ccccc" /><path
       id="rect6729"
       style="fill:url(#linearGradient7132);fill-opacity:1;stroke:none;stroke-width:0.600001;stroke-linecap:round"
       d="m 44.866656,226.82176 h 10.57558 c 0.16973,0 0.36104,0.15673 0.30637,0.33281 l -2.64583,8.52145 c -0.0547,0.17609 -0.13664,0.33282 -0.30637,0.33282 h -5.28392 c -0.16973,0 -0.2517,-0.15673 -0.30637,-0.33282 l -2.64583,-8.52145 c -0.0547,-0.17608 0.13664,-0.33281 0.30637,-0.33281 z"
       sodipodi:nodetypes="sssssssss" /><path
       id="path7134"
       style="fill:url(#linearGradient7136);fill-opacity:1;stroke:none;stroke-width:0.600001;stroke-linecap:round"
       d="m 62.858325,226.82176 h 10.57558 c 0.16973,0 0.36104,0.15673 0.30637,0.33281 l -2.64583,8.52145 c -0.0547,0.17609 -0.13664,0.33282 -0.30637,0.33282 h -5.28392 c -0.16973,0 -0.2517,-0.15673 -0.30637,-0.33282 l -2.64583,-8.52145 c -0.0547,-0.17608 0.13664,-0.33281 0.30637,-0.33281 z"
       sodipodi:nodetypes="sssssssss" /></g></svg>
