<?xml version="1.0" encoding="UTF-8" standalone="no"?>
<!-- Created with Inkscape (http://www.inkscape.org/) -->

<svg
   width="67.200035mm"
   height="12.739519mm"
   viewBox="0 0 67.200035 12.739519"
   version="1.1"
   id="svg5"
   sodipodi:docname="sniffing_attack_button.svg"
   inkscape:version="1.2.2 (b0a8486541, 2022-12-01)"
   xmlns:inkscape="http://www.inkscape.org/namespaces/inkscape"
   xmlns:sodipodi="http://sodipodi.sourceforge.net/DTD/sodipodi-0.dtd"
   xmlns="http://www.w3.org/2000/svg"
   xmlns:svg="http://www.w3.org/2000/svg">
  <sodipodi:namedview
     id="namedview7"
     pagecolor="#ffffff"
     bordercolor="#666666"
     borderopacity="1.0"
     inkscape:showpageshadow="2"
     inkscape:pageopacity="0.0"
     inkscape:pagecheckerboard="0"
     inkscape:deskcolor="#d1d1d1"
     inkscape:document-units="mm"
     showgrid="false"
     inkscape:zoom="1.9951192"
     inkscape:cx="228.30716"
     inkscape:cy="75.935313"
     inkscape:window-width="1898"
     inkscape:window-height="1008"
     inkscape:window-x="0"
     inkscape:window-y="0"
     inkscape:window-maximized="1"
     inkscape:current-layer="layer1" />
  <defs
     id="defs2" />
  <g
     inkscape:label="Layer 1"
     inkscape:groupmode="layer"
     id="layer1"
     transform="translate(-22.700211,-39.931961)">
    <path
       id="rect8286"
       style="fill:#ffffff;fill-opacity:0.398449;stroke:#000000;stroke-width:1;stroke-linecap:round;stroke-dasharray:none"
       d="m 26.200211,40.431961 h 60.200035 c 1.662,0 3,1.338 3,3 v 5.739519 c 0,1.662 -1.338,3 -3,3 H 26.200211 c -1.662,0 -3,-1.338 -3,-3 v -5.739519 c 0,-1.662 1.338,-3 3,-3 z" />
    <g
       aria-label="Fuzzing Attack"
       id="text27369"
       style="font-size:7.7611px;line-height:1.25;text-align:center;text-anchor:middle;stroke-width:0.264583">
      <path
         d="m 31.162034,48.319607 h -0.698499 v -5.541425 h 3.096679 v 0.613126 h -2.39818 v 1.963559 h 2.250719 v 0.613127 h -2.250719 z"
         id="path27371" />
      <path
         d="m 37.875378,44.159657 v 4.15995 h -0.558799 l -0.100894,-0.551038 h -0.03104 q -0.201788,0.325966 -0.558799,0.481188 -0.35701,0.147461 -0.760588,0.147461 -0.752826,0 -1.13312,-0.357011 -0.380294,-0.364772 -0.380294,-1.156404 v -2.724146 h 0.690738 v 2.67758 q 0,0.99342 0.923571,0.99342 0.690738,0 0.954615,-0.388054 0.271638,-0.388055 0.271638,-1.117599 v -2.165347 z"
         id="path27373" />
      <path
         d="m 41.880106,48.319607 h -3.042351 v -0.450144 l 2.235197,-3.182051 h -2.103258 v -0.527755 h 2.856084 v 0.512233 l -2.204152,3.119962 h 2.25848 z"
         id="path27375" />
      <path
         d="m 45.527818,48.319607 h -3.042351 v -0.450144 l 2.235196,-3.182051 h -2.103258 v -0.527755 h 2.856085 v 0.512233 l -2.204152,3.119962 h 2.25848 z"
         id="path27377" />
      <path
         d="m 46.839438,42.599676 q 0.155222,0 0.271639,0.108656 0.124178,0.100894 0.124178,0.325966 0,0.217311 -0.124178,0.325966 -0.116417,0.108655 -0.271639,0.108655 -0.170744,0 -0.28716,-0.108655 -0.116417,-0.108655 -0.116417,-0.325966 0,-0.225072 0.116417,-0.325966 0.116416,-0.108656 0.28716,-0.108656 z m 0.333728,1.559981 v 4.15995 h -0.682977 v -4.15995 z"
         id="path27379" />
      <path
         d="m 50.494912,44.082046 q 0.745066,0 1.12536,0.364772 0.380294,0.357011 0.380294,1.164165 v 2.708624 H 51.32535 V 45.65755 q 0,-1.001182 -0.931332,-1.001182 -0.690738,0 -0.954615,0.388055 -0.263878,0.388055 -0.263878,1.117598 v 2.157586 h -0.682977 v -4.15995 h 0.551038 l 0.100895,0.566561 h 0.03881 q 0.201789,-0.325967 0.558799,-0.481189 0.357011,-0.162983 0.752827,-0.162983 z"
         id="path27381" />
      <path
         d="m 54.763517,44.082046 q 0.411339,0 0.737305,0.155222 0.333727,0.155222 0.56656,0.473427 h 0.03881 l 0.09313,-0.551038 h 0.543277 v 4.2298 q 0,0.892526 -0.457905,1.34267 -0.450144,0.450144 -1.404759,0.450144 -0.91581,0 -1.497892,-0.263878 v -0.628649 q 0.613126,0.325966 1.536697,0.325966 0.535516,0 0.838199,-0.318205 0.310444,-0.310444 0.310444,-0.853721 v -0.162983 q 0,-0.09313 0.0078,-0.263877 0.0078,-0.178505 0.01552,-0.248355 h -0.03104 q -0.419099,0.628649 -1.288343,0.628649 -0.807154,0 -1.265059,-0.566561 -0.450144,-0.56656 -0.450144,-1.583264 0,-0.993421 0.450144,-1.575503 0.457905,-0.589844 1.257298,-0.589844 z m 0.09313,0.574322 q -0.519994,0 -0.807155,0.419099 -0.287161,0.411338 -0.287161,1.179687 0,0.768349 0.2794,1.179687 0.287161,0.403578 0.830438,0.403578 0.628649,0 0.91581,-0.333728 0.28716,-0.341488 0.28716,-1.094315 v -0.162983 q 0,-0.853721 -0.294922,-1.218493 -0.294921,-0.372532 -0.92357,-0.372532 z"
         id="path27383" />
      <path
         d="m 63.649977,48.319607 -0.667455,-1.715203 h -2.196391 l -0.659694,1.715203 h -0.70626 l 2.165347,-5.564709 h 0.628649 l 2.157586,5.564709 z m -1.497893,-4.012489 q -0.02328,-0.06209 -0.07761,-0.225072 -0.05433,-0.162983 -0.108655,-0.333727 -0.04657,-0.178505 -0.07761,-0.271639 -0.05433,0.240595 -0.124178,0.473428 -0.06985,0.225071 -0.116416,0.35701 l -0.628649,1.676398 h 1.754008 z"
         id="path27385" />
      <path
         d="m 66.42845,47.838419 q 0.155222,0 0.318206,-0.02328 0.162983,-0.03104 0.263877,-0.06209 v 0.519994 q -0.108655,0.05433 -0.310444,0.08537 -0.201789,0.03881 -0.388055,0.03881 -0.325966,0 -0.605366,-0.108656 -0.271638,-0.116416 -0.442383,-0.395816 -0.170744,-0.279399 -0.170744,-0.783871 v -2.421463 h -0.589843 v -0.325966 l 0.597604,-0.271639 0.271639,-0.884765 h 0.403577 v 0.954615 h 1.202971 v 0.527755 h -1.202971 v 2.405941 q 0,0.380294 0.178505,0.56656 0.186267,0.178506 0.473427,0.178506 z"
         id="path27387" />
      <path
         d="m 69.230208,47.838419 q 0.155222,0 0.318205,-0.02328 0.162983,-0.03104 0.263878,-0.06209 v 0.519994 q -0.108656,0.05433 -0.310444,0.08537 -0.201789,0.03881 -0.388055,0.03881 -0.325966,0 -0.605366,-0.108656 -0.271639,-0.116416 -0.442383,-0.395816 -0.170744,-0.279399 -0.170744,-0.783871 v -2.421463 h -0.589843 v -0.325966 l 0.597604,-0.271639 0.271639,-0.884765 h 0.403577 v 0.954615 h 1.20297 v 0.527755 h -1.20297 v 2.405941 q 0,0.380294 0.178505,0.56656 0.186267,0.178506 0.473427,0.178506 z"
         id="path27389" />
      <path
         d="m 72.218232,44.089807 q 0.760588,0 1.12536,0.333728 0.364772,0.333727 0.364772,1.06327 v 2.832802 h -0.496711 l -0.131938,-0.589844 h -0.03104 q -0.271638,0.341489 -0.574321,0.504472 -0.294922,0.162983 -0.822677,0.162983 -0.56656,0 -0.939093,-0.294922 -0.372533,-0.302683 -0.372533,-0.939093 0,-0.620888 0.48895,-0.954615 0.488949,-0.341489 1.505653,-0.372533 l 0.70626,-0.02328 v -0.248356 q 0,-0.519993 -0.225072,-0.721782 -0.225072,-0.201789 -0.63641,-0.201789 -0.325966,0 -0.620888,0.100895 -0.294922,0.09313 -0.551038,0.217311 l -0.20955,-0.512233 q 0.271639,-0.147461 0.644171,-0.248355 0.372533,-0.108656 0.77611,-0.108656 z m 0.201789,2.219675 q -0.77611,0.03104 -1.078793,0.248355 -0.294922,0.217311 -0.294922,0.613127 0,0.34925 0.20955,0.512233 0.217311,0.162983 0.551038,0.162983 0.527755,0 0.877004,-0.287161 0.34925,-0.294922 0.34925,-0.900288 v -0.372532 z"
         id="path27391" />
      <path
         d="m 76.665347,48.397218 q -0.551038,0 -0.98566,-0.225072 -0.42686,-0.225072 -0.675216,-0.698499 -0.240594,-0.473427 -0.240594,-1.210732 0,-0.768349 0.256117,-1.249537 0.256116,-0.481188 0.690737,-0.70626 0.442383,-0.225072 1.001182,-0.225072 0.318205,0 0.613127,0.06985 0.294922,0.06209 0.481188,0.155222 l -0.209549,0.56656 q -0.186267,-0.06985 -0.434622,-0.131938 -0.248355,-0.06209 -0.465666,-0.06209 -1.226254,0 -1.226254,1.575503 0,0.752827 0.294922,1.156404 0.302683,0.395816 0.892527,0.395816 0.341488,0 0.597604,-0.06985 0.263878,-0.06985 0.481188,-0.170744 v 0.605366 q -0.209549,0.108655 -0.465666,0.162983 -0.248355,0.06209 -0.605365,0.06209 z"
         id="path27393" />
      <path
         d="m 79.397252,45.502328 q 0,0.124177 -0.01552,0.325966 -0.0078,0.201788 -0.01552,0.349249 h 0.03104 q 0.04657,-0.06209 0.1397,-0.178505 0.09313,-0.116417 0.186267,-0.232833 0.100894,-0.124178 0.170744,-0.201789 l 1.327148,-1.404759 h 0.799393 l -1.684158,1.777292 1.800575,2.382658 H 81.314244 L 79.87068,46.379332 79.397252,46.79067 v 1.528937 h -0.675215 v -5.898436 h 0.675215 z"
         id="path27395" />
    </g>
  </g>
</svg>
