<?xml version="1.0" encoding="UTF-8" standalone="no"?>
<!-- Created with Inkscape (http://www.inkscape.org/) -->

<svg
   width="22.063387mm"
   height="32.70417mm"
   viewBox="0 0 22.063387 32.70417"
   version="1.1"
   id="svg6928"
   xmlns="http://www.w3.org/2000/svg"
   xmlns:svg="http://www.w3.org/2000/svg">
  <defs
     id="defs6925" />
  <g
     id="layer1"
     transform="translate(-53.944532,-50.265395)">
    <path
       id="rect6932"
       style="fill:#ffffff;fill-opacity:0.4;stroke:#000000;stroke-width:2"
       d="m 61.976223,51.265396 h 6 c 3.878,0 7.394329,3.671267 7,7.529167 L 73.91789,69.14873 c -0.394329,3.857899 -2.063667,12.820833 -5.941667,12.820833 h -6 c -3.878,0 -5.547338,-8.962934 -5.941667,-12.820833 L 54.976223,58.794563 c -0.394329,-3.8579 3.122,-7.529167 7,-7.529167 z" />
    <g
       aria-label="Gas"
       id="text8869"
       style="font-size:5.64444px;stroke-width:2"
       transform="translate(1.016603,6.562271)">
      <path
         d="m 62.794045,59.908453 h -1.71591 v 0.462844 h 1.253066 v 0.112888 c 0,0.733778 -0.541866,1.264355 -1.292577,1.264355 -0.417688,0 -0.795866,-0.1524 -1.038577,-0.417689 -0.270933,-0.29351 -0.434622,-0.784577 -0.434622,-1.292576 0,-1.010355 0.575733,-1.676399 1.444977,-1.676399 0.626533,0 1.078088,0.321733 1.190977,0.85231 h 0.536222 c -0.146756,-0.835377 -0.778933,-1.315154 -1.721554,-1.315154 -0.502356,0 -0.908755,0.129822 -1.230488,0.395111 -0.479778,0.39511 -0.745066,1.032932 -0.745066,1.772354 0,1.264354 0.773288,2.144887 1.885243,2.144887 0.558799,0 0.999065,-0.208844 1.405465,-0.654755 l 0.129822,0.547511 h 0.333022 z"
         id="path8871" />
      <path
         d="m 66.169417,61.804984 c -0.0508,0.01129 -0.07338,0.01129 -0.1016,0.01129 -0.163689,0 -0.254,-0.08467 -0.254,-0.231422 v -1.738487 c 0,-0.524933 -0.383822,-0.807155 -1.111954,-0.807155 -0.434622,0 -0.778933,0.124177 -0.982133,0.344311 -0.135467,0.1524 -0.191911,0.321733 -0.2032,0.615244 h 0.474133 c 0.03951,-0.361245 0.254,-0.524933 0.694266,-0.524933 0.428978,0 0.6604,0.158044 0.6604,0.440266 v 0.124178 c -0.0056,0.2032 -0.107245,0.276577 -0.491067,0.327377 -0.666043,0.08467 -0.767643,0.107245 -0.948266,0.180622 -0.34431,0.146756 -0.519288,0.4064 -0.519288,0.790222 0,0.536222 0.372533,0.874888 0.970844,0.874888 0.372533,0 0.671688,-0.129822 1.00471,-0.434622 0.03387,0.3048 0.180622,0.434622 0.485422,0.434622 0.1016,0 0.163689,-0.01129 0.321733,-0.0508 z m -0.824088,-0.654755 c 0,0.158045 -0.04516,0.254 -0.186267,0.383822 -0.191911,0.174978 -0.423333,0.265289 -0.69991,0.265289 -0.366889,0 -0.581378,-0.174978 -0.581378,-0.474133 0,-0.310444 0.2032,-0.468488 0.7112,-0.541866 0.502355,-0.06773 0.59831,-0.09031 0.756355,-0.163689 z"
         id="path8873" />
      <path
         d="m 68.760213,59.947964 c -0.0056,-0.581378 -0.389466,-0.908755 -1.072443,-0.908755 -0.688622,0 -1.134533,0.3556 -1.134533,0.90311 0,0.462844 0.237067,0.682977 0.936977,0.852311 l 0.440267,0.107244 c 0.327377,0.07902 0.457199,0.197555 0.457199,0.4064 0,0.282222 -0.276577,0.468488 -0.688621,0.468488 -0.254,0 -0.468489,-0.07338 -0.587022,-0.197555 -0.07338,-0.08467 -0.107244,-0.169333 -0.135467,-0.378178 h -0.49671 c 0.02258,0.682978 0.406399,1.010355 1.179688,1.010355 0.745066,0 1.219199,-0.366888 1.219199,-0.936977 0,-0.440266 -0.248356,-0.682977 -0.835377,-0.824088 l -0.451556,-0.107245 c -0.383822,-0.09031 -0.54751,-0.214488 -0.54751,-0.423333 0,-0.276577 0.242711,-0.44591 0.626532,-0.44591 0.378178,0 0.581378,0.163688 0.592667,0.474133 z"
         id="path8875" />
    </g>
    <path
       style="fill:#000000;fill-opacity:1;stroke:#000000;stroke-width:1;stroke-dasharray:none;stroke-opacity:1"
       d="m 65.219113,51.799526 v 4.918593"
       id="path8878" />
    <path
       style="fill:#000000;fill-opacity:1;stroke:#000000;stroke-width:1;stroke-dasharray:none;stroke-opacity:1"
       d="m 62.044111,51.799526 v 4.918593"
       id="path8878-6" />
    <path
       style="fill:#000000;fill-opacity:1;stroke:#000000;stroke-width:1;stroke-dasharray:none;stroke-opacity:1"
       d="m 68.394115,51.799526 v 4.918593"
       id="path8878-2" />
  </g>
</svg>
