<?xml version="1.0" encoding="UTF-8" standalone="no"?>
<!-- Created with Inkscape (http://www.inkscape.org/) -->

<svg
   width="67.200035mm"
   height="12.739519mm"
   viewBox="0 0 67.200035 12.739519"
   version="1.1"
   id="svg5"
   sodipodi:docname="sniffing_attack_button.svg"
   inkscape:version="1.2.2 (b0a8486541, 2022-12-01)"
   xmlns:inkscape="http://www.inkscape.org/namespaces/inkscape"
   xmlns:sodipodi="http://sodipodi.sourceforge.net/DTD/sodipodi-0.dtd"
   xmlns="http://www.w3.org/2000/svg"
   xmlns:svg="http://www.w3.org/2000/svg">
  <sodipodi:namedview
     id="namedview7"
     pagecolor="#ffffff"
     bordercolor="#666666"
     borderopacity="1.0"
     inkscape:showpageshadow="2"
     inkscape:pageopacity="0.0"
     inkscape:pagecheckerboard="0"
     inkscape:deskcolor="#d1d1d1"
     inkscape:document-units="mm"
     showgrid="false"
     inkscape:zoom="1.9951192"
     inkscape:cx="228.30716"
     inkscape:cy="75.935313"
     inkscape:window-width="1898"
     inkscape:window-height="1008"
     inkscape:window-x="0"
     inkscape:window-y="0"
     inkscape:window-maximized="1"
     inkscape:current-layer="layer1" />
  <defs
     id="defs2" />
  <g
     inkscape:label="Layer 1"
     inkscape:groupmode="layer"
     id="layer1"
     transform="translate(-22.700211,-39.931961)">
    <path
       id="rect8286"
       style="fill:#ffffff;fill-opacity:0.398449;stroke:#000000;stroke-width:1;stroke-linecap:round;stroke-dasharray:none"
       d="m 26.200211,40.431961 h 60.200035 c 1.662,0 3,1.338 3,3 v 5.739519 c 0,1.662 -1.338,3 -3,3 H 26.200211 c -1.662,0 -3,-1.338 -3,-3 v -5.739519 c 0,-1.662 1.338,-3 3,-3 z"
       inkscape:export-filename="gas_pedal_attack_button.svg"
       inkscape:export-xdpi="96"
       inkscape:export-ydpi="96" />
    <g
       aria-label="Gas Pedal Attack"
       id="text27369"
       style="font-size:7.7611px;line-height:1.25;text-align:center;text-anchor:middle;stroke-width:0.264583">
      <path
         d="m 28.744438,45.393672 h 1.916991 v 2.716385 q -0.450144,0.147461 -0.908048,0.217311 -0.457905,0.06985 -1.039988,0.06985 -0.861482,0 -1.451325,-0.341489 -0.589844,-0.349249 -0.900288,-0.985659 -0.302683,-0.644172 -0.302683,-1.521176 0,-0.869243 0.341488,-1.505653 0.341489,-0.63641 0.977899,-0.98566 0.644171,-0.35701 1.55222,-0.35701 0.465666,0 0.877004,0.08537 0.4191,0.08537 0.77611,0.240594 L 30.319941,43.6319 q -0.294922,-0.131938 -0.667455,-0.225071 -0.364771,-0.09313 -0.760587,-0.09313 -0.993421,0 -1.55222,0.597605 -0.551039,0.597605 -0.551039,1.637592 0,0.659694 0.20955,1.171926 0.217311,0.504472 0.675216,0.791632 0.457905,0.2794 1.20297,0.2794 0.364772,0 0.620888,-0.03881 0.256117,-0.0388 0.465666,-0.09313 V 46.01456 h -1.218492 z"
         id="path29599" />
      <path
         d="m 33.470952,44.089807 q 0.760588,0 1.12536,0.333728 0.364771,0.333727 0.364771,1.06327 v 2.832802 h -0.49671 l -0.131939,-0.589844 h -0.03104 q -0.271639,0.341489 -0.574322,0.504472 -0.294921,0.162983 -0.822676,0.162983 -0.56656,0 -0.939093,-0.294922 -0.372533,-0.302683 -0.372533,-0.939093 0,-0.620888 0.488949,-0.954615 0.48895,-0.341489 1.505654,-0.372533 l 0.70626,-0.02328 v -0.248356 q 0,-0.519993 -0.225072,-0.721782 -0.225072,-0.201789 -0.63641,-0.201789 -0.325966,0 -0.620888,0.100895 -0.294922,0.09313 -0.551038,0.217311 l -0.20955,-0.512233 q 0.271638,-0.147461 0.644171,-0.248355 0.372533,-0.108656 0.77611,-0.108656 z m 0.201789,2.219675 q -0.77611,0.03104 -1.078793,0.248355 -0.294922,0.217311 -0.294922,0.613127 0,0.34925 0.20955,0.512233 0.217311,0.162983 0.551038,0.162983 0.527755,0 0.877004,-0.287161 0.34925,-0.294922 0.34925,-0.900288 v -0.372532 z"
         id="path29601" />
      <path
         d="m 38.958056,47.170964 q 0,0.605366 -0.450144,0.91581 -0.450144,0.310444 -1.210732,0.310444 -0.434621,0 -0.752826,-0.06985 -0.310444,-0.06985 -0.551038,-0.194028 v -0.620888 q 0.248355,0.124178 0.597604,0.232833 0.357011,0.100895 0.721783,0.100895 0.519993,0 0.752826,-0.162983 0.232833,-0.170745 0.232833,-0.450144 0,-0.155222 -0.08537,-0.2794 -0.08537,-0.124177 -0.310444,-0.248355 -0.217311,-0.124178 -0.628649,-0.2794 -0.403577,-0.155222 -0.690738,-0.310444 -0.287161,-0.155222 -0.442383,-0.372532 -0.155222,-0.217311 -0.155222,-0.5588 0,-0.527754 0.426861,-0.814915 0.434622,-0.287161 1.133121,-0.287161 0.380293,0 0.70626,0.07761 0.333727,0.06985 0.620888,0.201789 l -0.232833,0.543277 q -0.263878,-0.108656 -0.551038,-0.186267 -0.287161,-0.07761 -0.589844,-0.07761 -0.419099,0 -0.644171,0.1397 -0.217311,0.131939 -0.217311,0.364772 0,0.170744 0.100894,0.294922 0.100894,0.116416 0.333727,0.232833 0.240595,0.108655 0.636411,0.263877 0.395816,0.147461 0.675215,0.302683 0.2794,0.155222 0.426861,0.380294 0.147461,0.217311 0.147461,0.551038 z"
         id="path29603" />
      <path
         d="m 43.544868,42.778182 q 1.086554,0 1.583265,0.42686 0.49671,0.42686 0.49671,1.20297 0,0.457905 -0.20955,0.861483 -0.201788,0.395816 -0.690737,0.644171 -0.481189,0.248355 -1.311626,0.248355 h -0.63641 v 2.157586 h -0.698499 v -5.541425 z m -0.06209,0.597604 h -0.70626 v 2.18863 h 0.558799 q 0.791632,0 1.179687,-0.256116 0.388055,-0.256116 0.388055,-0.869243 0,-0.535516 -0.341488,-0.799393 -0.341489,-0.263878 -1.078793,-0.263878 z"
         id="path29605" />
      <path
         d="m 48.286897,44.082046 q 0.535516,0 0.91581,0.232833 0.388055,0.232833 0.589844,0.659694 0.209549,0.419099 0.209549,0.985659 v 0.411339 h -2.848323 q 0.01552,0.70626 0.35701,1.078793 0.34925,0.364771 0.970138,0.364771 0.395816,0 0.698499,-0.06985 0.310444,-0.07761 0.63641,-0.21731 v 0.597604 q -0.318205,0.1397 -0.628649,0.201789 -0.310444,0.06985 -0.737305,0.06985 -0.589843,0 -1.047748,-0.240594 -0.450144,-0.240594 -0.70626,-0.714021 -0.248355,-0.481189 -0.248355,-1.171927 0,-0.682976 0.225072,-1.171926 0.232833,-0.488949 0.644171,-0.752826 0.419099,-0.263878 0.970137,-0.263878 z m -0.0078,0.558799 q -0.488949,0 -0.77611,0.318206 -0.279399,0.310444 -0.333727,0.869243 h 2.11878 q -0.0078,-0.527755 -0.248355,-0.853721 -0.240594,-0.333728 -0.760588,-0.333728 z"
         id="path29607" />
      <path
         d="m 52.532213,48.397218 q -0.77611,0 -1.241776,-0.535516 -0.465666,-0.543277 -0.465666,-1.614309 0,-1.071032 0.465666,-1.614309 0.473427,-0.551038 1.249537,-0.551038 0.481188,0 0.783871,0.178506 0.310444,0.178505 0.504472,0.434621 h 0.04657 q -0.0078,-0.100894 -0.03104,-0.294922 -0.01552,-0.201788 -0.01552,-0.318205 v -1.660875 h 0.682977 v 5.898436 h -0.551039 l -0.100894,-0.558799 h -0.03104 q -0.186267,0.263877 -0.496711,0.450143 -0.310444,0.186267 -0.799393,0.186267 z m 0.108655,-0.566561 q 0.659694,0 0.923571,-0.35701 0.271639,-0.364772 0.271639,-1.094315 v -0.124178 q 0,-0.77611 -0.256116,-1.187448 -0.256117,-0.419099 -0.946855,-0.419099 -0.551038,0 -0.830437,0.442382 -0.271639,0.434622 -0.271639,1.171926 0,0.745066 0.271639,1.156404 0.279399,0.411338 0.838198,0.411338 z"
         id="path29609" />
      <path
         d="m 57.406181,44.089807 q 0.760587,0 1.125359,0.333728 0.364772,0.333727 0.364772,1.06327 v 2.832802 h -0.496711 l -0.131938,-0.589844 h -0.03104 q -0.271638,0.341489 -0.574321,0.504472 -0.294922,0.162983 -0.822677,0.162983 -0.56656,0 -0.939093,-0.294922 -0.372533,-0.302683 -0.372533,-0.939093 0,-0.620888 0.48895,-0.954615 0.488949,-0.341489 1.505653,-0.372533 l 0.70626,-0.02328 v -0.248356 q 0,-0.519993 -0.225072,-0.721782 -0.225072,-0.201789 -0.63641,-0.201789 -0.325966,0 -0.620888,0.100895 -0.294922,0.09313 -0.551038,0.217311 l -0.20955,-0.512233 q 0.271639,-0.147461 0.644172,-0.248355 0.372532,-0.108656 0.77611,-0.108656 z m 0.201788,2.219675 q -0.77611,0.03104 -1.078793,0.248355 -0.294922,0.217311 -0.294922,0.613127 0,0.34925 0.20955,0.512233 0.217311,0.162983 0.551038,0.162983 0.527755,0 0.877005,-0.287161 0.349249,-0.294922 0.349249,-0.900288 v -0.372532 z"
         id="path29611" />
      <path
         d="M 60.867637,48.319607 H 60.18466 v -5.898436 h 0.682977 z"
         id="path29613" />
      <path
         d="M 67.775015,48.319607 67.10756,46.604404 h -2.196391 l -0.659694,1.715203 h -0.70626 l 2.165347,-5.564709 h 0.628649 l 2.157586,5.564709 z m -1.497893,-4.012489 q -0.02328,-0.06209 -0.07761,-0.225072 -0.05433,-0.162983 -0.108655,-0.333727 -0.04657,-0.178505 -0.07761,-0.271639 -0.05433,0.240595 -0.124178,0.473428 -0.06985,0.225071 -0.116416,0.35701 l -0.628649,1.676398 h 1.754008 z"
         id="path29615" />
      <path
         d="m 70.553488,47.838419 q 0.155222,0 0.318206,-0.02328 0.162983,-0.03104 0.263877,-0.06209 v 0.519994 q -0.108655,0.05433 -0.310444,0.08537 -0.201789,0.03881 -0.388055,0.03881 -0.325966,0 -0.605366,-0.108656 -0.271638,-0.116416 -0.442383,-0.395816 -0.170744,-0.279399 -0.170744,-0.783871 v -2.421463 h -0.589843 v -0.325966 l 0.597604,-0.271639 0.271639,-0.884765 h 0.403577 v 0.954615 h 1.202971 v 0.527755 h -1.202971 v 2.405941 q 0,0.380294 0.178505,0.56656 0.186267,0.178506 0.473427,0.178506 z"
         id="path29617" />
      <path
         d="m 73.355246,47.838419 q 0.155222,0 0.318205,-0.02328 0.162983,-0.03104 0.263878,-0.06209 v 0.519994 q -0.108656,0.05433 -0.310444,0.08537 -0.201789,0.03881 -0.388055,0.03881 -0.325966,0 -0.605366,-0.108656 -0.271639,-0.116416 -0.442383,-0.395816 -0.170744,-0.279399 -0.170744,-0.783871 v -2.421463 h -0.589843 v -0.325966 l 0.597604,-0.271639 0.271639,-0.884765 h 0.403577 v 0.954615 h 1.20297 v 0.527755 h -1.20297 v 2.405941 q 0,0.380294 0.178505,0.56656 0.186267,0.178506 0.473427,0.178506 z"
         id="path29619" />
      <path
         d="m 76.34327,44.089807 q 0.760588,0 1.12536,0.333728 0.364772,0.333727 0.364772,1.06327 v 2.832802 h -0.496711 l -0.131938,-0.589844 h -0.03104 q -0.271638,0.341489 -0.574321,0.504472 -0.294922,0.162983 -0.822677,0.162983 -0.56656,0 -0.939093,-0.294922 -0.372533,-0.302683 -0.372533,-0.939093 0,-0.620888 0.48895,-0.954615 0.488949,-0.341489 1.505653,-0.372533 l 0.70626,-0.02328 v -0.248356 q 0,-0.519993 -0.225072,-0.721782 -0.225072,-0.201789 -0.63641,-0.201789 -0.325966,0 -0.620888,0.100895 -0.294922,0.09313 -0.551038,0.217311 l -0.20955,-0.512233 q 0.271639,-0.147461 0.644171,-0.248355 0.372533,-0.108656 0.77611,-0.108656 z m 0.201789,2.219675 q -0.77611,0.03104 -1.078793,0.248355 -0.294922,0.217311 -0.294922,0.613127 0,0.34925 0.20955,0.512233 0.217311,0.162983 0.551038,0.162983 0.527755,0 0.877004,-0.287161 0.34925,-0.294922 0.34925,-0.900288 v -0.372532 z"
         id="path29621" />
      <path
         d="m 80.790385,48.397218 q -0.551038,0 -0.98566,-0.225072 -0.42686,-0.225072 -0.675216,-0.698499 -0.240594,-0.473427 -0.240594,-1.210732 0,-0.768349 0.256117,-1.249537 0.256116,-0.481188 0.690737,-0.70626 0.442383,-0.225072 1.001182,-0.225072 0.318205,0 0.613127,0.06985 0.294922,0.06209 0.481188,0.155222 l -0.209549,0.56656 q -0.186267,-0.06985 -0.434622,-0.131938 -0.248355,-0.06209 -0.465666,-0.06209 -1.226254,0 -1.226254,1.575503 0,0.752827 0.294922,1.156404 0.302683,0.395816 0.892527,0.395816 0.341488,0 0.597604,-0.06985 0.263878,-0.06985 0.481188,-0.170744 v 0.605366 q -0.209549,0.108655 -0.465666,0.162983 -0.248355,0.06209 -0.605365,0.06209 z"
         id="path29623" />
      <path
         d="m 83.52229,45.502328 q 0,0.124177 -0.01552,0.325966 -0.0078,0.201788 -0.01552,0.349249 h 0.03104 q 0.04657,-0.06209 0.1397,-0.178505 0.09313,-0.116417 0.186267,-0.232833 0.100894,-0.124178 0.170744,-0.201789 l 1.327148,-1.404759 h 0.799393 l -1.684158,1.777292 1.800575,2.382658 H 85.439282 L 83.995718,46.379332 83.52229,46.79067 v 1.528937 h -0.675215 v -5.898436 h 0.675215 z"
         id="path29625" />
    </g>
  </g>
</svg>
