<?xml version="1.0" encoding="UTF-8" standalone="no"?>
<!-- Created with Inkscape (http://www.inkscape.org/) -->

<svg
   width="37.599876mm"
   height="20.99382mm"
   viewBox="0 0 37.599876 20.99382"
   version="1.1"
   id="svg5"
   sodipodi:docname="gateway_ecu_red.svg"
   inkscape:version="1.2.2 (b0a8486541, 2022-12-01)"
   inkscape:export-filename="gateway_ecu_red.svg"
   inkscape:export-xdpi="96"
   inkscape:export-ydpi="96"
   xmlns:inkscape="http://www.inkscape.org/namespaces/inkscape"
   xmlns:sodipodi="http://sodipodi.sourceforge.net/DTD/sodipodi-0.dtd"
   xmlns="http://www.w3.org/2000/svg"
   xmlns:svg="http://www.w3.org/2000/svg">
  <sodipodi:namedview
     id="namedview7"
     pagecolor="#ffffff"
     bordercolor="#666666"
     borderopacity="1.0"
     inkscape:showpageshadow="2"
     inkscape:pageopacity="0.0"
     inkscape:pagecheckerboard="0"
     inkscape:deskcolor="#d1d1d1"
     inkscape:document-units="mm"
     showgrid="false"
     inkscape:zoom="9.5489565"
     inkscape:cx="51.890487"
     inkscape:cy="39.742563"
     inkscape:window-width="1898"
     inkscape:window-height="1008"
     inkscape:window-x="0"
     inkscape:window-y="0"
     inkscape:window-maximized="1"
     inkscape:current-layer="layer1" />
  <defs
     id="defs2" />
  <g
     inkscape:label="Layer 1"
     inkscape:groupmode="layer"
     id="layer1"
     transform="translate(-17.97889,-111.18183)">
    <path
       id="rect111"
       style="fill:#ffffff;fill-opacity:0.4;fill-rule:evenodd;stroke:#000000;stroke-width:1.39958"
       d="m 24.182641,111.88162 c -0.775367,0 -1.399641,0.62427 -1.399641,1.39964 v 3.71767 h -2.704679 c -0.775368,0 -1.399641,0.62427 -1.399641,1.39965 v 6.56034 c 0,0.77536 0.624273,1.3995 1.399641,1.3995 H 22.783 v 3.7178 c 0,0.77537 0.624274,1.39964 1.399641,1.39964 h 25.192371 c 0.775367,0 1.399643,-0.62427 1.399643,-1.39964 v -3.7178 h 2.704679 c 0.775365,0 1.39964,-0.62414 1.39964,-1.3995 v -6.56034 c 0,-0.77538 -0.624275,-1.39965 -1.39964,-1.39965 h -2.704679 v -3.71767 c 0,-0.77537 -0.624276,-1.39964 -1.399643,-1.39964 z"
       inkscape:export-filename="gateway_ecu_green.svg"
       inkscape:export-xdpi="96"
       inkscape:export-ydpi="96" />
    <path
       style="fill:none;stroke:#000000;stroke-width:1.11967;stroke-linecap:butt;stroke-linejoin:miter;stroke-dasharray:none;stroke-opacity:1"
       d="m 18.156107,123.90058 h 4.65852"
       id="path8993" />
    <path
       style="fill:none;stroke:#000000;stroke-width:1.11967;stroke-linecap:butt;stroke-linejoin:miter;stroke-dasharray:none;stroke-opacity:1"
       d="m 18.156107,119.4569 h 4.65852"
       id="path8993-5" />
    <path
       style="fill:none;stroke:#000000;stroke-width:1.11967;stroke-linecap:butt;stroke-linejoin:miter;stroke-dasharray:none;stroke-opacity:1"
       d="m 50.743033,123.90058 h 4.658522"
       id="path8993-3" />
    <path
       style="fill:none;stroke:#000000;stroke-width:1.11967;stroke-linecap:butt;stroke-linejoin:miter;stroke-dasharray:none;stroke-opacity:1"
       d="m 50.743033,119.4569 h 4.658522"
       id="path8993-56" />
    <path
       style="fill:none;stroke:#000000;stroke-width:1.11967;stroke-linecap:butt;stroke-linejoin:miter;stroke-dasharray:none;stroke-opacity:1"
       d="m 50.743033,121.67874 h 4.658522"
       id="path8993-2" />
    <path
       style="fill:none;stroke:#000000;stroke-width:1.11967;stroke-linecap:butt;stroke-linejoin:miter;stroke-dasharray:none;stroke-opacity:1"
       d="m 18.156107,121.67874 h 4.65852"
       id="path8993-9" />
    <rect
       style="fill:#ff0000;fill-opacity:1;stroke:#000000;stroke-width:0.977914;stroke-dasharray:none"
       id="rect9096"
       width="23.112263"
       height="11.096384"
       x="25.222694"
       y="117.9714"
       rx="0.56328738" />
    <g
       aria-label="Gateway"
       id="text553"
       style="font-size:3.52778px;line-height:1.25;stroke-width:0.264583"
       transform="matrix(1.2,0,0,1.2,-13.487975,-15.928956)">
      <path
         d="m 36.071693,108.67727 h 0.871361 v 1.23472 q -0.204611,0.067 -0.41275,0.0988 -0.208139,0.0318 -0.472722,0.0318 -0.391584,0 -0.659695,-0.15522 -0.268111,-0.15875 -0.409222,-0.44803 -0.137583,-0.29281 -0.137583,-0.69145 0,-0.39511 0.155222,-0.68439 0.155222,-0.28927 0.4445,-0.44802 0.292805,-0.16228 0.705555,-0.16228 0.211667,0 0.398639,0.0388 0.1905,0.0388 0.352778,0.10937 l -0.119944,0.27516 q -0.134056,-0.06 -0.303389,-0.1023 -0.165806,-0.0423 -0.345723,-0.0423 -0.451555,0 -0.705555,0.27164 -0.250472,0.27164 -0.250472,0.74436 0,0.29986 0.09525,0.5327 0.09878,0.2293 0.306916,0.35983 0.208139,0.127 0.546806,0.127 0.165805,0 0.282222,-0.0176 0.116417,-0.0176 0.211667,-0.0423 v -0.74789 h -0.553861 z"
         id="path986" />
      <path
         d="m 38.220112,108.0846 q 0.345722,0 0.511527,0.1517 0.165806,0.15169 0.165806,0.4833 v 1.28764 h -0.225778 l -0.05997,-0.26811 h -0.01411 q -0.123472,0.15522 -0.261056,0.2293 -0.134055,0.0741 -0.373944,0.0741 -0.257528,0 -0.426861,-0.13406 -0.169334,-0.13758 -0.169334,-0.42686 0,-0.28222 0.22225,-0.43392 0.22225,-0.15522 0.684389,-0.16933 l 0.321028,-0.0106 v -0.11289 q 0,-0.23636 -0.102306,-0.32808 -0.102305,-0.0917 -0.289277,-0.0917 -0.148167,0 -0.282223,0.0459 -0.134055,0.0423 -0.250472,0.0988 l -0.09525,-0.23283 q 0.123472,-0.067 0.292806,-0.11289 0.169333,-0.0494 0.352778,-0.0494 z m 0.09172,1.00895 q -0.352778,0.0141 -0.490361,0.11288 -0.134056,0.0988 -0.134056,0.2787 0,0.15875 0.09525,0.23283 0.09878,0.0741 0.250472,0.0741 0.239889,0 0.398639,-0.13053 0.15875,-0.13406 0.15875,-0.40922 v -0.16934 z"
         id="path988" />
      <path
         d="m 40.114531,109.78852 q 0.07056,0 0.144639,-0.0106 0.07408,-0.0141 0.119945,-0.0282 v 0.23636 q -0.04939,0.0247 -0.141112,0.0388 -0.09172,0.0176 -0.176388,0.0176 -0.148167,0 -0.275167,-0.0494 -0.123472,-0.0529 -0.201083,-0.17992 -0.07761,-0.127 -0.07761,-0.3563 v -1.10067 h -0.268112 v -0.14817 l 0.271639,-0.12347 0.123473,-0.40217 h 0.183444 v 0.43392 h 0.546805 v 0.23989 h -0.546805 v 1.09361 q 0,0.17286 0.08114,0.25753 0.08467,0.0811 0.215194,0.0811 z"
         id="path990" />
      <path
         d="m 41.486837,108.08107 q 0.243416,0 0.416277,0.10584 0.176389,0.10583 0.268112,0.29986 0.09525,0.1905 0.09525,0.44803 v 0.18697 h -1.294695 q 0.0071,0.32103 0.162278,0.49036 0.15875,0.1658 0.440972,0.1658 0.179917,0 0.3175,-0.0318 0.141111,-0.0353 0.289278,-0.0988 v 0.27164 q -0.144639,0.0635 -0.28575,0.0917 -0.141111,0.0318 -0.335139,0.0318 -0.268111,0 -0.47625,-0.10936 -0.204611,-0.10936 -0.321028,-0.32456 -0.112889,-0.21872 -0.112889,-0.53269 0,-0.31045 0.102306,-0.5327 0.105833,-0.22225 0.292805,-0.34219 0.1905,-0.11995 0.440973,-0.11995 z m -0.0035,0.254 q -0.22225,0 -0.352778,0.14464 -0.127,0.14111 -0.151694,0.39511 h 0.963083 q -0.0035,-0.23989 -0.112889,-0.38805 -0.109361,-0.1517 -0.345722,-0.1517 z"
         id="path992" />
      <path
         d="m 43.896304,108.93832 q -0.04586,-0.14464 -0.08114,-0.28222 -0.03175,-0.14111 -0.04939,-0.21872 h -0.01411 q -0.01411,0.0776 -0.04586,0.21872 -0.03175,0.13758 -0.08114,0.28575 l -0.338666,1.06186 H 42.93322 l -0.518583,-1.89089 h 0.321027 l 0.261056,1.00895 q 0.03881,0.15169 0.07408,0.30691 0.03528,0.15523 0.04939,0.25753 h 0.01411 q 0.01411,-0.06 0.03175,-0.14816 0.02117,-0.0882 0.04586,-0.18345 0.0247,-0.0988 0.04939,-0.17639 l 0.335139,-1.06539 h 0.338667 l 0.324555,1.06539 q 0.03881,0.11995 0.07408,0.26106 0.03881,0.14111 0.05292,0.24341 h 0.01411 q 0.01058,-0.0882 0.04586,-0.24341 0.0388,-0.15522 0.08114,-0.3175 l 0.264584,-1.00895 h 0.3175 l -0.525639,1.89089 H 44.22086 Z"
         id="path994" />
      <path
         d="m 46.164663,108.0846 q 0.345722,0 0.511527,0.1517 0.165806,0.15169 0.165806,0.4833 v 1.28764 h -0.225778 l -0.05997,-0.26811 h -0.01411 q -0.123472,0.15522 -0.261056,0.2293 -0.134055,0.0741 -0.373944,0.0741 -0.257528,0 -0.426861,-0.13406 -0.169334,-0.13758 -0.169334,-0.42686 0,-0.28222 0.22225,-0.43392 0.22225,-0.15522 0.684389,-0.16933 l 0.321028,-0.0106 v -0.11289 q 0,-0.23636 -0.102306,-0.32808 -0.102305,-0.0917 -0.289277,-0.0917 -0.148167,0 -0.282223,0.0459 -0.134055,0.0423 -0.250472,0.0988 l -0.09525,-0.23283 q 0.123472,-0.067 0.292806,-0.11289 0.169333,-0.0494 0.352778,-0.0494 z m 0.09172,1.00895 q -0.352778,0.0141 -0.490361,0.11288 -0.134056,0.0988 -0.134056,0.2787 0,0.15875 0.09525,0.23283 0.09878,0.0741 0.250472,0.0741 0.239889,0 0.398639,-0.13053 0.15875,-0.13406 0.15875,-0.40922 v -0.16934 z"
         id="path996" />
      <path
         d="m 47.131277,108.11635 h 0.331611 l 0.409223,1.07597 q 0.05292,0.14111 0.09525,0.27164 0.04233,0.127 0.0635,0.24342 h 0.01411 q 0.02117,-0.0882 0.06703,-0.22931 0.04586,-0.14464 0.09525,-0.28927 l 0.384528,-1.07245 h 0.335139 l -0.814917,2.15195 q -0.09878,0.26811 -0.257527,0.42686 -0.155223,0.15875 -0.430389,0.15875 -0.08467,0 -0.148167,-0.0106 -0.0635,-0.007 -0.109361,-0.0176 v -0.24694 q 0.03881,0.007 0.09172,0.0141 0.05645,0.007 0.116417,0.007 0.162278,0 0.261055,-0.0917 0.102306,-0.0917 0.15875,-0.24341 l 0.09878,-0.25047 z"
         id="path998" />
    </g>
  </g>
</svg>
