<?xml version="1.0" encoding="UTF-8" standalone="no"?>
<!-- Created with Inkscape (http://www.inkscape.org/) -->

<svg
   width="67.165031mm"
   height="12.704519mm"
   viewBox="0 0 67.165031 12.704519"
   version="1.1"
   id="svg5"
   sodipodi:docname="reverse_steering_attack_button.svg"
   inkscape:version="1.2.2 (b0a8486541, 2022-12-01)"
   inkscape:export-filename="reverse_steering_attack_button.svg"
   inkscape:export-xdpi="96"
   inkscape:export-ydpi="96"
   xmlns:inkscape="http://www.inkscape.org/namespaces/inkscape"
   xmlns:sodipodi="http://sodipodi.sourceforge.net/DTD/sodipodi-0.dtd"
   xmlns="http://www.w3.org/2000/svg"
   xmlns:svg="http://www.w3.org/2000/svg">
  <sodipodi:namedview
     id="namedview7"
     pagecolor="#ffffff"
     bordercolor="#666666"
     borderopacity="1.0"
     inkscape:showpageshadow="2"
     inkscape:pageopacity="0.0"
     inkscape:pagecheckerboard="0"
     inkscape:deskcolor="#d1d1d1"
     inkscape:document-units="mm"
     showgrid="false"
     inkscape:zoom="1.9951192"
     inkscape:cx="156.88286"
     inkscape:cy="26.314218"
     inkscape:window-width="1898"
     inkscape:window-height="1008"
     inkscape:window-x="0"
     inkscape:window-y="0"
     inkscape:window-maximized="1"
     inkscape:current-layer="layer1" />
  <defs
     id="defs2" />
  <g
     inkscape:label="Layer 1"
     inkscape:groupmode="layer"
     id="layer1"
     transform="translate(-22.717711,-39.949462)">
    <path
       id="rect8286"
       style="fill:#ffffff;fill-opacity:0.398449;stroke:#000000;stroke-width:0.964999;stroke-linecap:round"
       d="m 26.200211,40.431961 h 60.200035 c 1.662,0 3,1.338 3,3 v 5.739519 c 0,1.662 -1.338,3 -3,3 H 26.200211 c -1.662,0 -3,-1.338 -3,-3 v -5.739519 c 0,-1.662 1.338,-3 3,-3 z" />
    <g
       aria-label="Horn Attack"
       id="text11700"
       style="font-size:7.7611px;line-height:1.25;stroke-width:0.264583"
       transform="translate(18.76404,-20.470615)">
      <path
         d="m 20.558787,69.682747 h -0.698499 v -2.584446 h -2.840563 v 2.584446 h -0.698499 v -5.541425 h 0.698499 v 2.343852 h 2.840563 v -2.343852 h 0.698499 z"
         id="path11706" />
      <path
         d="m 25.595734,67.595011 q 0,1.032226 -0.527754,1.598787 -0.519994,0.56656 -1.412521,0.56656 -0.551038,0 -0.985659,-0.248355 -0.426861,-0.256117 -0.675216,-0.737305 -0.248355,-0.488949 -0.248355,-1.179687 0,-1.032226 0.519994,-1.591025 0.519993,-0.5588 1.41252,-0.5588 0.56656,0 0.99342,0.256117 0.434622,0.248355 0.675216,0.729543 0.248355,0.473427 0.248355,1.164165 z m -3.143245,0 q 0,0.737305 0.287161,1.171926 0.294921,0.426861 0.931332,0.426861 0.628649,0 0.92357,-0.426861 0.294922,-0.434621 0.294922,-1.171926 0,-0.737304 -0.294922,-1.156404 -0.294921,-0.419099 -0.931331,-0.419099 -0.636411,0 -0.923571,0.419099 -0.287161,0.4191 -0.287161,1.156404 z"
         id="path11708" />
      <path
         d="m 28.614798,65.445186 q 0.116417,0 0.248355,0.01552 0.1397,0.0078 0.240594,0.03104 l -0.08537,0.628649 q -0.100894,-0.02328 -0.225072,-0.0388 -0.116416,-0.01552 -0.225072,-0.01552 -0.318205,0 -0.597604,0.178506 -0.2794,0.170744 -0.450144,0.488949 -0.162983,0.310444 -0.162983,0.729543 v 2.219675 h -0.682977 v -4.15995 h 0.558799 l 0.07761,0.760588 h 0.03105 q 0.201788,-0.341488 0.519993,-0.589843 0.318205,-0.248356 0.752827,-0.248356 z"
         id="path11710" />
      <path
         d="m 31.882222,65.445186 q 0.745066,0 1.12536,0.364772 0.380294,0.357011 0.380294,1.164165 v 2.708624 H 32.71266 V 67.02069 q 0,-1.001182 -0.931332,-1.001182 -0.690738,0 -0.954615,0.388055 -0.263877,0.388055 -0.263877,1.117598 v 2.157586 h -0.682977 v -4.15995 h 0.551038 l 0.100894,0.566561 h 0.03881 q 0.201788,-0.325967 0.558799,-0.481189 0.35701,-0.162983 0.752826,-0.162983 z"
         id="path11712" />
      <path
         d="m 40.264212,69.682747 -0.667455,-1.715203 h -2.196391 l -0.659694,1.715203 h -0.70626 l 2.165347,-5.564709 h 0.628649 l 2.157586,5.564709 z M 38.76632,65.670258 q -0.02328,-0.06209 -0.07761,-0.225072 -0.05433,-0.162983 -0.108656,-0.333727 -0.04657,-0.178505 -0.07761,-0.271638 -0.05433,0.240594 -0.124177,0.473427 -0.06985,0.225072 -0.116417,0.35701 l -0.628649,1.676398 h 1.754009 z"
         id="path11714" />
      <path
         d="m 43.042686,69.201559 q 0.155222,0 0.318205,-0.02328 0.162983,-0.03104 0.263877,-0.06209 v 0.519993 q -0.108655,0.05433 -0.310444,0.08537 -0.201788,0.03881 -0.388055,0.03881 -0.325966,0 -0.605366,-0.108656 Q 42.049265,69.53529 41.878521,69.25589 41.707777,68.976491 41.707777,68.472019 V 66.050556 H 41.117933 V 65.72459 l 0.597605,-0.271639 0.271638,-0.884765 h 0.403577 v 0.954615 h 1.202971 v 0.527755 h -1.202971 v 2.405941 q 0,0.380294 0.178506,0.56656 0.186266,0.178506 0.473427,0.178506 z"
         id="path11716" />
      <path
         d="m 45.844444,69.201559 q 0.155222,0 0.318205,-0.02328 0.162983,-0.03104 0.263877,-0.06209 v 0.519993 q -0.108655,0.05433 -0.310444,0.08537 -0.201789,0.03881 -0.388055,0.03881 -0.325966,0 -0.605366,-0.108656 Q 44.851023,69.53529 44.680279,69.25589 44.509534,68.976491 44.509534,68.472019 V 66.050556 H 43.919691 V 65.72459 l 0.597604,-0.271639 0.271639,-0.884765 h 0.403577 v 0.954615 h 1.202971 v 0.527755 h -1.202971 v 2.405941 q 0,0.380294 0.178505,0.56656 0.186267,0.178506 0.473428,0.178506 z"
         id="path11718" />
      <path
         d="m 48.832468,65.452947 q 0.760587,0 1.125359,0.333728 0.364772,0.333727 0.364772,1.06327 v 2.832802 H 49.825888 L 49.69395,69.092903 h -0.03104 q -0.271638,0.341489 -0.574321,0.504472 -0.294922,0.162983 -0.822677,0.162983 -0.56656,0 -0.939093,-0.294922 -0.372532,-0.302683 -0.372532,-0.939093 0,-0.620888 0.488949,-0.954615 0.488949,-0.341489 1.505653,-0.372533 l 0.70626,-0.02328 v -0.248356 q 0,-0.519993 -0.225072,-0.721782 -0.225071,-0.201788 -0.63641,-0.201788 -0.325966,0 -0.620888,0.100894 -0.294922,0.09313 -0.551038,0.217311 l -0.20955,-0.512233 q 0.271639,-0.147461 0.644172,-0.248355 0.372533,-0.108656 0.77611,-0.108656 z m 0.201788,2.219675 q -0.77611,0.03104 -1.078793,0.248355 -0.294921,0.217311 -0.294921,0.613127 0,0.34925 0.209549,0.512233 0.217311,0.162983 0.551038,0.162983 0.527755,0 0.877005,-0.287161 0.349249,-0.294922 0.349249,-0.900287 v -0.372533 z"
         id="path11720" />
      <path
         d="m 53.279584,69.760358 q -0.551038,0 -0.98566,-0.225072 -0.42686,-0.225072 -0.675216,-0.698499 -0.240594,-0.473427 -0.240594,-1.210732 0,-0.768348 0.256117,-1.249537 0.256116,-0.481188 0.690738,-0.70626 0.442382,-0.225072 1.001181,-0.225072 0.318206,0 0.613127,0.06985 0.294922,0.06209 0.481189,0.155222 l -0.20955,0.566561 q -0.186267,-0.06985 -0.434622,-0.131939 -0.248355,-0.06209 -0.465666,-0.06209 -1.226254,0 -1.226254,1.575503 0,0.752827 0.294922,1.156404 0.302683,0.395816 0.892527,0.395816 0.341488,0 0.597604,-0.06985 0.263878,-0.06985 0.481189,-0.170744 v 0.605366 q -0.20955,0.108655 -0.465666,0.162983 -0.248356,0.06209 -0.605366,0.06209 z"
         id="path11722" />
      <path
         d="m 56.011486,66.865468 q 0,0.124177 -0.01552,0.325966 -0.0078,0.201788 -0.01552,0.349249 h 0.03104 q 0.04657,-0.06209 0.1397,-0.178505 0.09313,-0.116416 0.186266,-0.232833 0.100894,-0.124178 0.170744,-0.201789 l 1.327148,-1.404759 h 0.799394 l -1.684159,1.777292 1.800575,2.382658 h -0.822677 l -1.443564,-1.940275 -0.473427,0.411338 v 1.528937 H 55.33627 v -5.898436 h 0.675216 z"
         id="path11724" />
    </g>
  </g>
</svg>
