<?xml version="1.0" encoding="UTF-8" standalone="no"?>
<!-- Created with Inkscape (http://www.inkscape.org/) -->

<svg
   width="25mm"
   height="26mm"
   viewBox="0 0 25 26"
   version="1.1"
   id="svg5"
   xml:space="preserve"
   sodipodi:docname="left_door_closed_window_closed.svg"
   inkscape:export-filename="left_door_closed_window_closed.svg"
   inkscape:export-xdpi="96"
   inkscape:export-ydpi="96"
   xmlns:inkscape="http://www.inkscape.org/namespaces/inkscape"
   xmlns:sodipodi="http://sodipodi.sourceforge.net/DTD/sodipodi-0.dtd"
   xmlns="http://www.w3.org/2000/svg"
   xmlns:svg="http://www.w3.org/2000/svg"><sodipodi:namedview
     id="namedview7"
     pagecolor="#ffffff"
     bordercolor="#000000"
     borderopacity="0.25"
     inkscape:showpageshadow="2"
     inkscape:pageopacity="0.0"
     inkscape:pagecheckerboard="0"
     inkscape:deskcolor="#d1d1d1"
     inkscape:document-units="mm"
     showgrid="false" /><defs
     id="defs2" /><g
     inkscape:label="Layer 1"
     inkscape:groupmode="layer"
     id="layer1"
     transform="translate(-88.965889,-202.34428)"><path
       id="path3271"
       style="fill:none;fill-opacity:0.348789;stroke:#000000;stroke-width:0.532;stroke-linecap:butt;stroke-linejoin:miter;stroke-dasharray:none;stroke-opacity:1"
       d="m 111.94493,212.23484 -3.35896,-7.23677 c 0,0 -0.005,0.10284 -0.0134,0.29042 -0.008,0.18759 -0.02,0.45996 -0.0331,0.79944 -0.0131,0.33947 -0.0278,0.7458 -0.0419,1.20147 -0.007,0.22784 -0.0136,0.46811 -0.0201,0.71831 -0.007,0.25019 -0.013,0.51067 -0.0186,0.77876 -0.006,0.26809 -0.0108,0.54375 -0.015,0.82527 -0.004,0.28153 -0.007,0.56888 -0.01,0.85938 -0.002,0.2905 -0.004,0.58452 -0.004,0.87954 -7e-5,0.29501 0.001,0.59118 0.004,0.88625 0.003,0.29506 0.007,0.58887 0.0129,0.87953 0.003,0.14533 0.007,0.28966 0.0103,0.43305 0.004,0.14339 0.008,0.28595 0.0129,0.42684 0.005,0.1409 0.0102,0.28023 0.016,0.41807 0.006,0.13783 0.0122,0.27401 0.0191,0.40824 0.007,0.13423 0.0147,0.2663 0.0227,0.39636 0.008,0.13006 0.0166,0.25811 0.0258,0.38344 0.0185,0.25066 0.0394,0.51443 0.0625,0.78858 0.0231,0.27415 0.0485,0.55869 0.0755,0.85111 0.0269,0.29242 0.0553,0.59267 0.0853,0.89814 0.03,0.30547 0.0618,0.61636 0.094,0.92966 0.0323,0.31329 0.0654,0.62874 0.0992,0.94464 0.0338,0.31591 0.0682,0.63187 0.10283,0.94516 0.0692,0.62659 0.13906,1.243 0.20671,1.8278 0.0677,0.5848 0.1328,1.13792 0.19275,1.63918 0.06,0.50125 0.11461,0.95059 0.16072,1.32653 0.0922,0.75187 0.15089,1.2113 0.15089,1.2113 l 3.52382,-0.77929 0.17466,-10.59987 z"
       inkscape:transform-center-x="-4.2576842"
       inkscape:transform-center-y="12.67606" /><path
       id="path510"
       style="fill:none;fill-opacity:0.402145;stroke:#000000;stroke-width:0.532;stroke-linecap:butt;stroke-linejoin:miter;stroke-dasharray:none;stroke-opacity:1"
       d="m 106.78969,203.53925 c -0.45922,-0.001 -0.95016,0.096 -1.4614,0.30902 l 0.56275,23.98148 7.41712,-1.66088 v -0.004 l -3.52382,0.77929 c 0,0 -0.0587,-0.45943 -0.15089,-1.2113 -0.0461,-0.37594 -0.10076,-0.82528 -0.16071,-1.32653 -0.06,-0.50126 -0.12511,-1.05438 -0.19276,-1.63918 -0.0677,-0.5848 -0.1375,-1.20121 -0.2067,-1.8278 -0.0346,-0.31329 -0.069,-0.62925 -0.10284,-0.94516 -0.0338,-0.3159 -0.0669,-0.63135 -0.0992,-0.94464 -0.0323,-0.3133 -0.064,-0.62419 -0.094,-0.92966 -0.03,-0.30547 -0.0583,-0.60572 -0.0853,-0.89814 -0.0269,-0.29242 -0.0524,-0.57696 -0.0755,-0.85111 -0.0231,-0.27415 -0.044,-0.53792 -0.0625,-0.78858 -0.009,-0.12533 -0.0178,-0.25338 -0.0258,-0.38344 -0.008,-0.13006 -0.0158,-0.26213 -0.0227,-0.39636 -0.007,-0.13423 -0.0133,-0.27041 -0.0191,-0.40824 -0.006,-0.13784 -0.0112,-0.27717 -0.016,-0.41807 -0.005,-0.14089 -0.009,-0.28345 -0.0129,-0.42684 -0.004,-0.14339 -0.007,-0.28772 -0.0103,-0.43305 -0.006,-0.29066 -0.0102,-0.58447 -0.0129,-0.87953 -0.003,-0.29507 -0.004,-0.59124 -0.004,-0.88625 7e-5,-0.29502 0.002,-0.58904 0.004,-0.87954 0.002,-0.2905 0.006,-0.57785 0.01,-0.85938 0.004,-0.28152 0.009,-0.55718 0.015,-0.82527 0.006,-0.26809 0.0121,-0.52857 0.0186,-0.77876 0.007,-0.2502 0.0132,-0.49047 0.0202,-0.71831 0.014,-0.45567 0.0288,-0.862 0.0419,-1.20147 0.0131,-0.33948 0.0247,-0.61185 0.0331,-0.79944 0.008,-0.18758 0.0134,-0.29042 0.0134,-0.29042 l 3.35896,7.23677 -3.88451,-8.41447 c -0.38381,-0.18011 -0.8115,-0.27977 -1.27072,-0.28112 z"
       inkscape:transform-center-x="-2.6195457"
       inkscape:transform-center-y="12.389248" /></g></svg>
