<?xml version="1.0" encoding="UTF-8" standalone="no"?>
<!-- Created with Inkscape (http://www.inkscape.org/) -->

<svg
   width="25mm"
   height="26mm"
   viewBox="0 0 25 26"
   version="1.1"
   id="svg5"
   xml:space="preserve"
   sodipodi:docname="left_door_closed_window_closed.svg"
   inkscape:export-filename="left_door_open_window_open.svg"
   inkscape:export-xdpi="96"
   inkscape:export-ydpi="96"
   xmlns:inkscape="http://www.inkscape.org/namespaces/inkscape"
   xmlns:sodipodi="http://sodipodi.sourceforge.net/DTD/sodipodi-0.dtd"
   xmlns="http://www.w3.org/2000/svg"
   xmlns:svg="http://www.w3.org/2000/svg"><sodipodi:namedview
     id="namedview7"
     pagecolor="#ffffff"
     bordercolor="#000000"
     borderopacity="0.25"
     inkscape:showpageshadow="2"
     inkscape:pageopacity="0.0"
     inkscape:pagecheckerboard="0"
     inkscape:deskcolor="#d1d1d1"
     inkscape:document-units="mm"
     showgrid="false" /><defs
     id="defs2" /><g
     inkscape:label="Layer 1"
     inkscape:groupmode="layer"
     id="layer1"
     transform="translate(-88.965889,-202.34428)"><path
       id="path3271"
       style="fill:none;fill-opacity:0.348789;stroke:#000000;stroke-width:0.532;stroke-linecap:butt;stroke-linejoin:miter;stroke-dasharray:none;stroke-opacity:1"
       d="m 104.52247,213.42967 2.41605,-7.60369 c 0,0 -0.0732,0.0724 -0.20618,0.20498 -0.13269,0.13284 -0.32563,0.32545 -0.56475,0.56679 -0.23911,0.24132 -0.52459,0.53084 -0.84298,0.85712 -0.15916,0.16318 -0.32643,0.33579 -0.50034,0.51579 -0.17427,0.17965 -0.35475,0.36756 -0.54009,0.56135 -0.18563,0.19352 -0.37549,0.39343 -0.56888,0.59806 -0.19324,0.20478 -0.38967,0.41452 -0.58824,0.62658 -0.19783,0.21274 -0.39804,0.42807 -0.59745,0.64549 -0.19946,0.21737 -0.39886,0.43636 -0.59609,0.65585 -0.19723,0.21948 -0.39288,0.43871 -0.58499,0.6569 -0.096,0.10914 -0.19063,0.21821 -0.28512,0.32611 -0.094,0.10838 -0.18738,0.21615 -0.279,0.32329 -0.0916,0.10722 -0.1819,0.21342 -0.2708,0.31892 -0.0887,0.10563 -0.17622,0.21018 -0.26186,0.31377 -0.0856,0.10366 -0.16917,0.20619 -0.25118,0.30745 -0.08201,0.10126 -0.16223,0.20144 -0.240163,0.30002 -0.155793,0.19724 -0.318679,0.40575 -0.48696,0.62341 -0.168281,0.21765 -0.341889,0.44452 -0.519645,0.67827 -0.177829,0.23369 -0.359846,0.47416 -0.544211,0.71956 -0.184366,0.2454 -0.371069,0.49601 -0.559105,0.74867 -0.187957,0.25272 -0.376783,0.50757 -0.565398,0.76323 -0.188622,0.25566 -0.376836,0.51176 -0.563075,0.76606 -0.372529,0.50855 -0.737691,1.01005 -1.083116,1.48675 -0.345387,0.47674 -0.671278,0.92838 -0.965911,1.33831 -0.294589,0.40997 -0.558063,0.77803 -0.778188,1.08625 -0.440259,0.61643 -0.707546,0.99469 -0.707546,0.99469 l 3.123693,1.80752 7.293435,-7.69374 z"
       inkscape:transform-center-x="6.7355882"
       inkscape:transform-center-y="11.92633" /><path
       id="path510"
       style="fill:#ffffff;fill-opacity:0.147034;stroke:#000000;stroke-width:0.532;stroke-linecap:butt;stroke-linejoin:miter;stroke-dasharray:none;stroke-opacity:1"
       d="m 106.60077,203.53672 c -0.33776,-0.31113 -0.76513,-0.57148 -1.28588,-0.76005 l -15.794949,18.05402 6.58883,3.7894 0.0027,-0.003 -3.123694,-1.80752 c 0,0 0.26728,-0.37827 0.707546,-0.99469 0.220133,-0.30821 0.48357,-0.67631 0.778196,-1.08624 0.294596,-0.40997 0.620479,-0.86161 0.965904,-1.33832 0.345388,-0.47674 0.710594,-0.97819 1.083123,-1.48675 0.186261,-0.25427 0.374475,-0.51037 0.563067,-0.76606 0.188615,-0.25566 0.377442,-0.51051 0.565398,-0.76323 0.187963,-0.25272 0.374739,-0.50327 0.559105,-0.74867 0.184366,-0.2454 0.366456,-0.4858 0.544211,-0.71956 0.17783,-0.23368 0.351365,-0.46062 0.519645,-0.67827 0.168281,-0.21766 0.331167,-0.42617 0.48696,-0.62341 0.07808,-0.0985 0.158148,-0.19876 0.240168,-0.30002 0.082,-0.10126 0.16554,-0.20386 0.25118,-0.30745 0.0856,-0.10365 0.17297,-0.20827 0.26186,-0.31377 0.0888,-0.10564 0.17909,-0.21184 0.2708,-0.31892 0.0915,-0.10721 0.18495,-0.21498 0.279,-0.32329 0.094,-0.10838 0.18932,-0.21677 0.28512,-0.32611 0.19204,-0.21826 0.38754,-0.43763 0.58499,-0.6569 0.19723,-0.21949 0.39668,-0.43843 0.59609,-0.65585 0.19946,-0.21737 0.39962,-0.43275 0.59745,-0.64549 0.19783,-0.21274 0.395,-0.4218 0.58824,-0.62658 0.19324,-0.20477 0.38325,-0.40454 0.56888,-0.59806 0.18563,-0.19352 0.36619,-0.38136 0.54009,-0.56135 0.17428,-0.17966 0.34125,-0.35254 0.50041,-0.51572 0.31832,-0.32635 0.60387,-0.6158 0.84298,-0.85713 0.23912,-0.24133 0.43177,-0.43422 0.56476,-0.56679 0.13268,-0.13283 0.20618,-0.20497 0.20618,-0.20497 l -2.41606,7.60369 2.82478,-8.82685 c -0.16112,-0.39217 -0.40895,-0.7547 -0.74647,-1.06609 z"
       inkscape:transform-center-x="8.2648555"
       inkscape:transform-center-y="10.403131" /></g></svg>
