<?xml version="1.0" encoding="UTF-8" standalone="no"?>
<!-- Created with Inkscape (http://www.inkscape.org/) -->

<svg
   width="26.993793mm"
   height="26.993793mm"
   viewBox="0 0 26.993794 26.993794"
   version="1.1"
   id="svg5"
   xml:space="preserve"
   inkscape:export-filename="light_switch_off.svg"
   inkscape:export-xdpi="96"
   inkscape:export-ydpi="96"
   xmlns:inkscape="http://www.inkscape.org/namespaces/inkscape"
   xmlns:sodipodi="http://sodipodi.sourceforge.net/DTD/sodipodi-0.dtd"
   xmlns="http://www.w3.org/2000/svg"
   xmlns:svg="http://www.w3.org/2000/svg"><sodipodi:namedview
     id="namedview7"
     pagecolor="#ffffff"
     bordercolor="#000000"
     borderopacity="0.25"
     inkscape:showpageshadow="2"
     inkscape:pageopacity="0.0"
     inkscape:pagecheckerboard="0"
     inkscape:deskcolor="#d1d1d1"
     inkscape:document-units="mm"
     showgrid="false" /><defs
     id="defs2" /><g
     inkscape:label="Layer 1"
     inkscape:groupmode="layer"
     id="layer1"
     transform="translate(-79.29241,-105.91698)"><circle
       style="fill:none;stroke:#000000;stroke-width:5.66322;stroke-dasharray:none"
       id="path286"
       cx="92.789307"
       cy="119.41388"
       r="10.665287" /><g
       id="g2226"
       transform="matrix(0.39577537,0,0,0.39577537,61.556703,78.0618)"><rect
         style="fill:#000000;stroke:#000000;stroke-width:3;stroke-dasharray:none"
         id="rect1014"
         width="8.5910301"
         height="33.156521"
         x="74.471413"
         y="88.003555"
         ry="1.5" /><rect
         style="fill:#ffffff;stroke:#ffffff;stroke-width:3;stroke-dasharray:none"
         id="rect1898"
         width="0.37602794"
         height="5.9276118"
         x="78.578911"
         y="90.358398"
         ry="0.2"
         rx="0.18801397" /></g><g
       aria-label="0"
       id="text2008"
       style="font-size:2.97253px;fill:#ffffff;stroke:#ffffff;stroke-width:0.1;stroke-dasharray:none"
       transform="matrix(1.6864685,0,0,1.6864685,-71.485803,-82.208599)"><path
         d="m 97.407755,112.19571 c -0.196187,0 -0.374539,0.0892 -0.484523,0.23483 -0.136736,0.19024 -0.205104,0.4756 -0.205104,0.87392 0,0.7253 0.237802,1.10876 0.689627,1.10876 0.445879,0 0.689627,-0.38346 0.689627,-1.09092 0,-0.41616 -0.0654,-0.69557 -0.205105,-0.89176 -0.109983,-0.14863 -0.285363,-0.23483 -0.484522,-0.23483 z m 0,0.23186 c 0.28239,0 0.422099,0.28833 0.422099,0.87095 0,0.61234 -0.136736,0.8977 -0.428044,0.8977 -0.276445,0 -0.416154,-0.29725 -0.416154,-0.88878 0,-0.59154 0.139709,-0.87987 0.422099,-0.87987 z"
         id="path2596"
         style="stroke-width:0.1;stroke-dasharray:none" /></g><g
       id="g2366"
       transform="matrix(0.71029984,0,0,0.69142655,27.062529,40.058605)"
       style="stroke-width:0.543923;stroke-dasharray:none"><path
         style="fill:none;stroke:#ffffff;stroke-width:0.543923;stroke-linecap:round;stroke-dasharray:none"
         d="m 100.89294,103.09643 1.72346,-0.57713"
         id="path2132" /><path
         style="fill:none;stroke:#ffffff;stroke-width:0.543923;stroke-linecap:round;stroke-dasharray:none"
         d="m 100.89294,103.91961 1.72346,-0.57713"
         id="path2134" /><path
         style="fill:none;stroke:#ffffff;stroke-width:0.543923;stroke-linecap:round;stroke-dasharray:none"
         d="m 100.89294,104.7428 1.72346,-0.57713"
         id="path2136" /><path
         style="fill:none;stroke:#ffffff;stroke-width:0.543923;stroke-linecap:round;stroke-dasharray:none"
         d="m 100.89294,105.56599 1.72346,-0.57713"
         id="path2138" /><g
         id="g2357"
         style="stroke-width:0.543923;stroke-dasharray:none"><path
           style="fill:none;stroke:#ffffff;stroke-width:0.543923;stroke-dasharray:none"
           d="m 103.86388,102.15812 c 0,0 -0.59606,0.63076 -0.59606,1.89222 0,1.26146 0.50761,1.89444 0.50761,1.89444 0,0 3.17656,-0.12872 3.17656,-1.91801 0,-1.78928 -3.08811,-1.86865 -3.08811,-1.86865 z"
           id="path2130" /><path
           style="fill:none;stroke:#ffffff;stroke-width:0.543923;stroke-linecap:round;stroke-dasharray:none"
           d="m 100.89294,106.38916 1.72346,-0.57712"
           id="path2140" /></g></g><g
       id="g2222"
       transform="matrix(0.69800963,0,0,0.69800963,33.222341,37.919443)"
       inkscape:export-filename="light_switch_off.svg"
       inkscape:export-xdpi="96"
       inkscape:export-ydpi="96"
       style="stroke-width:0.539194;stroke-dasharray:none"><path
         style="fill:none;stroke:#ffffff;stroke-width:0.539194;stroke-dasharray:none"
         d="m 100.68888,114.85813 c 0,0 -0.59606,0.63076 -0.59606,1.89221 0,1.26146 0.50762,1.89444 0.50762,1.89444 0,0 3.17655,-0.12872 3.17655,-1.91801 0,-1.78928 -3.08811,-1.86864 -3.08811,-1.86864 z"
         id="path2146" /><g
         id="g2201"
         transform="translate(0,0.17011048)"
         style="stroke-width:0.539194;stroke-dasharray:none"><path
           style="fill:none;stroke:#ffffff;stroke-width:0.539194;stroke-linecap:round;stroke-dasharray:none"
           d="m 97.599694,115.05839 1.817516,-0.004"
           id="path2148" /><path
           style="fill:none;stroke:#ffffff;stroke-width:0.539194;stroke-linecap:round;stroke-dasharray:none"
           d="m 97.599694,115.82133 1.817516,-0.004"
           id="path2174" /><path
           style="fill:none;stroke:#ffffff;stroke-width:0.539194;stroke-linecap:round;stroke-dasharray:none"
           d="m 97.599695,116.58427 1.817516,-0.004"
           id="path2176" /><path
           style="fill:none;stroke:#ffffff;stroke-width:0.539194;stroke-linecap:round;stroke-dasharray:none"
           d="m 97.599694,117.34722 1.817516,-0.004"
           id="path2184" /><path
           style="fill:none;stroke:#ffffff;stroke-width:0.539194;stroke-linecap:round;stroke-dasharray:none"
           d="m 97.599695,118.11016 1.817516,-0.004"
           id="path2186" /></g></g></g></svg>
