<?xml version="1.0" encoding="UTF-8" standalone="no"?>
<!-- Created with Inkscape (http://www.inkscape.org/) -->

<svg
   width="75mm"
   height="13mm"
   viewBox="0 0 75 13.000001"
   version="1.1"
   id="svg5"
   sodipodi:docname="unlock_attack_button.svg"
   inkscape:export-filename="clipping_selected.svg"
   inkscape:export-xdpi="96"
   inkscape:export-ydpi="96"
   inkscape:version="1.2.2 (b0a8486541, 2022-12-01)"
   xmlns:inkscape="http://www.inkscape.org/namespaces/inkscape"
   xmlns:sodipodi="http://sodipodi.sourceforge.net/DTD/sodipodi-0.dtd"
   xmlns="http://www.w3.org/2000/svg"
   xmlns:svg="http://www.w3.org/2000/svg">
  <sodipodi:namedview
     id="namedview7"
     pagecolor="#ffffff"
     bordercolor="#666666"
     borderopacity="1.0"
     inkscape:showpageshadow="2"
     inkscape:pageopacity="0.0"
     inkscape:pagecheckerboard="0"
     inkscape:deskcolor="#d1d1d1"
     inkscape:document-units="mm"
     showgrid="false"
     inkscape:zoom="2.2591939"
     inkscape:cx="23.681013"
     inkscape:cy="68.387225"
     inkscape:window-width="1898"
     inkscape:window-height="1008"
     inkscape:window-x="0"
     inkscape:window-y="0"
     inkscape:window-maximized="1"
     inkscape:current-layer="layer1" />
  <defs
     id="defs2" />
  <g
     inkscape:label="Layer 1"
     inkscape:groupmode="layer"
     id="layer1"
     transform="translate(-23.773119,-24.42087)">
    <rect
       style="fill:none;fill-opacity:0.40173;stroke:#000000;stroke-width:0.961082;stroke-linecap:round"
       id="rect12654"
       width="74.038918"
       height="12.038918"
       x="24.25366"
       y="24.901411"
       rx="2.9440806"
       ry="2.9389617" />
    <rect
       style="fill:#ffffff;fill-opacity:0.40173;stroke:#000000;stroke-width:1.02917;stroke-linecap:round"
       id="rect587"
       width="36.470829"
       height="11.796468"
       x="24.288074"
       y="25.022636"
       rx="3.4051478"
       ry="2.9846466" />
    <g
       aria-label="OBD-II        Clipping"
       id="text12810"
       style="font-size:7.7611px;line-height:1.25;stroke-width:0.264583"
       transform="translate(-0.82531053,-11.045833)">
      <path
         d="m 32.427746,41.206115 q 0,0.861482 -0.294922,1.505653 -0.287161,0.63641 -0.853721,0.993421 -0.56656,0.357011 -1.404759,0.357011 -0.861482,0 -1.435803,-0.357011 -0.566561,-0.357011 -0.84596,-1.001182 -0.2794,-0.644171 -0.2794,-1.505653 0,-0.853721 0.2794,-1.490131 0.279399,-0.636411 0.84596,-0.993421 0.574321,-0.357011 1.443564,-0.357011 0.830438,0 1.396998,0.357011 0.56656,0.349249 0.853721,0.993421 0.294922,0.63641 0.294922,1.497892 z m -4.37726,0 q 0,1.047748 0.442382,1.653114 0.442383,0.597605 1.381476,0.597605 0.946854,0 1.381476,-0.597605 0.434621,-0.605366 0.434621,-1.653114 0,-1.047749 -0.434621,-1.637592 -0.434622,-0.597605 -1.373715,-0.597605 -0.939093,0 -1.389237,0.597605 -0.442382,0.589843 -0.442382,1.637592 z"
         id="path12812" />
      <path
         d="m 35.237265,38.443163 q 1.039987,0 1.567742,0.310444 0.535516,0.302683 0.535516,1.063271 0,0.488949 -0.271638,0.814916 -0.271639,0.318205 -0.783871,0.411338 v 0.03881 q 0.349249,0.05433 0.628649,0.201789 0.28716,0.147461 0.450143,0.419099 0.162984,0.271639 0.162984,0.70626 0,0.752827 -0.519994,1.164165 -0.512233,0.411339 -1.404759,0.411339 h -1.948036 v -5.541426 z m 0.1397,2.359375 q 0.714021,0 0.977898,-0.225072 0.263878,-0.232833 0.263878,-0.682977 0,-0.457905 -0.325966,-0.651932 Q 35.97457,39.040768 35.26831,39.040768 H 34.3525 v 1.76177 z M 34.3525,41.38462 v 2.010125 h 1.117598 q 0.737305,0 1.024465,-0.287161 0.287161,-0.28716 0.287161,-0.752826 0,-0.434622 -0.302683,-0.698499 Q 36.184119,41.38462 35.41577,41.38462 Z"
         id="path12814" />
      <path
         d="m 43.138062,41.159548 q 0,1.404759 -0.768348,2.118781 -0.760588,0.70626 -2.126542,0.70626 h -1.544459 v -5.541426 h 1.707442 q 0.838199,0 1.451326,0.310444 0.613127,0.310444 0.946854,0.91581 0.333727,0.597605 0.333727,1.490131 z m -0.737304,0.02328 q 0,-1.109838 -0.551038,-1.62207 -0.543277,-0.519994 -1.544459,-0.519994 h -0.908049 v 4.346216 h 0.752827 q 2.250719,0 2.250719,-2.204152 z"
         id="path12816" />
      <path
         d="m 43.92193,42.207297 v -0.605366 h 1.878187 v 0.605366 z"
         id="path12818" />
      <path
         d="m 48.423371,43.984589 h -2.002364 v -0.403578 l 0.651933,-0.14746 v -4.431588 l -0.651933,-0.155222 v -0.403578 h 2.002364 v 0.403578 l -0.651932,0.155222 v 4.431588 l 0.651932,0.14746 z"
         id="path12820" />
      <path
         d="m 51.054391,43.984589 h -2.002364 v -0.403578 l 0.651932,-0.14746 v -4.431588 l -0.651932,-0.155222 v -0.403578 h 2.002364 v 0.403578 l -0.651933,0.155222 v 4.431588 l 0.651933,0.14746 z"
         id="path12822" />
      <path
         d="m 70.643426,38.978679 q -0.892526,0 -1.404759,0.597605 -0.512232,0.597605 -0.512232,1.637592 0,1.032226 0.473427,1.637592 0.481188,0.597605 1.435803,0.597605 0.364772,0 0.690738,-0.06209 0.325966,-0.06209 0.63641,-0.155222 v 0.605366 q -0.310444,0.116416 -0.644171,0.170744 -0.325966,0.05433 -0.783871,0.05433 -0.84596,0 -1.41252,-0.34925 -0.56656,-0.349249 -0.853721,-0.993421 -0.2794,-0.644171 -0.2794,-1.513414 0,-0.838199 0.302683,-1.474609 0.310444,-0.644171 0.908049,-1.001182 0.597605,-0.364772 1.451326,-0.364772 0.877004,0 1.528936,0.325967 l -0.279399,0.589843 q -0.256117,-0.116416 -0.574322,-0.20955 -0.310444,-0.09313 -0.682977,-0.09313 z"
         id="path12824" />
      <path
         d="m 73.763388,43.984589 h -0.682977 v -5.898436 h 0.682977 z"
         id="path12826" />
      <path
         d="m 75.432022,38.264658 q 0.155222,0 0.271638,0.108655 0.124178,0.100895 0.124178,0.325967 0,0.21731 -0.124178,0.325966 -0.116416,0.108655 -0.271638,0.108655 -0.170745,0 -0.287161,-0.108655 -0.116417,-0.108656 -0.116417,-0.325966 0,-0.225072 0.116417,-0.325967 0.116416,-0.108655 0.287161,-0.108655 z m 0.333727,1.559981 v 4.15995 h -0.682977 v -4.15995 z"
         id="path12828" />
      <path
         d="m 79.06421,39.747028 q 0.768349,0 1.234015,0.535516 0.473427,0.535516 0.473427,1.614309 0,1.06327 -0.473427,1.614309 -0.465666,0.551038 -1.241776,0.551038 -0.481188,0 -0.799393,-0.178506 -0.310444,-0.186266 -0.48895,-0.42686 h -0.04657 q 0.01552,0.131939 0.03104,0.333727 0.01552,0.201789 0.01552,0.34925 v 1.707442 H 77.08513 v -6.022614 h 0.558799 l 0.09313,0.56656 h 0.03104 q 0.186267,-0.271638 0.48895,-0.457904 0.302682,-0.186267 0.807154,-0.186267 z m -0.124178,0.574322 q -0.63641,0 -0.900287,0.35701 -0.256117,0.357011 -0.271639,1.086554 v 0.131939 q 0,0.768349 0.248355,1.187448 0.256117,0.411338 0.939094,0.411338 0.380293,0 0.620888,-0.209549 0.248355,-0.20955 0.364771,-0.566561 0.124178,-0.364771 0.124178,-0.830437 0,-0.714022 -0.2794,-1.140882 -0.271638,-0.42686 -0.84596,-0.42686 z"
         id="path12830" />
      <path
         d="m 83.837285,39.747028 q 0.768349,0 1.234015,0.535516 0.473427,0.535516 0.473427,1.614309 0,1.06327 -0.473427,1.614309 -0.465666,0.551038 -1.241776,0.551038 -0.481188,0 -0.799393,-0.178506 -0.310444,-0.186266 -0.48895,-0.42686 h -0.04657 q 0.01552,0.131939 0.03104,0.333727 0.01552,0.201789 0.01552,0.34925 v 1.707442 h -0.682976 v -6.022614 h 0.558799 l 0.09313,0.56656 h 0.03104 q 0.186267,-0.271638 0.48895,-0.457904 0.302683,-0.186267 0.807154,-0.186267 z m -0.124178,0.574322 q -0.63641,0 -0.900287,0.35701 -0.256116,0.357011 -0.271639,1.086554 v 0.131939 q 0,0.768349 0.248356,1.187448 0.256116,0.411338 0.939093,0.411338 0.380294,0 0.620888,-0.209549 0.248355,-0.20955 0.364771,-0.566561 0.124178,-0.364771 0.124178,-0.830437 0,-0.714022 -0.2794,-1.140882 -0.271638,-0.42686 -0.84596,-0.42686 z"
         id="path12832" />
      <path
         d="m 86.980529,38.264658 q 0.155222,0 0.271639,0.108655 0.124177,0.100895 0.124177,0.325967 0,0.21731 -0.124177,0.325966 -0.116417,0.108655 -0.271639,0.108655 -0.170744,0 -0.28716,-0.108655 -0.116417,-0.108656 -0.116417,-0.325966 0,-0.225072 0.116417,-0.325967 0.116416,-0.108655 0.28716,-0.108655 z m 0.333727,1.559981 v 4.15995 H 86.63128 v -4.15995 z"
         id="path12834" />
      <path
         d="m 90.636001,39.747028 q 0.745066,0 1.125359,0.364772 0.380294,0.35701 0.380294,1.164165 v 2.708624 h -0.675215 v -2.662058 q 0,-1.001181 -0.931332,-1.001181 -0.690738,0 -0.954616,0.388055 -0.263877,0.388054 -0.263877,1.117598 v 2.157586 h -0.682977 v -4.15995 h 0.551038 l 0.100895,0.56656 h 0.0388 q 0.201789,-0.325966 0.558799,-0.481188 0.357011,-0.162983 0.752827,-0.162983 z"
         id="path12836" />
      <path
         d="m 94.904606,39.747028 q 0.411338,0 0.737305,0.155222 0.333727,0.155222 0.56656,0.473427 h 0.0388 l 0.09313,-0.551038 h 0.543277 v 4.2298 q 0,0.892526 -0.457905,1.34267 -0.450144,0.450144 -1.404759,0.450144 -0.91581,0 -1.497893,-0.263878 v -0.628649 q 0.613127,0.325966 1.536698,0.325966 0.535516,0 0.838199,-0.318205 0.310444,-0.310444 0.310444,-0.853721 v -0.162983 q 0,-0.09313 0.0078,-0.263877 0.0078,-0.178506 0.01552,-0.248355 h -0.03104 q -0.4191,0.628649 -1.288343,0.628649 -0.807154,0 -1.265059,-0.566561 -0.450144,-0.56656 -0.450144,-1.583264 0,-0.993421 0.450144,-1.575503 0.457905,-0.589844 1.257298,-0.589844 z m 0.09313,0.574322 q -0.519993,0 -0.807154,0.419099 -0.287161,0.411338 -0.287161,1.179687 0,0.768349 0.2794,1.179687 0.287161,0.403577 0.830438,0.403577 0.628649,0 0.915809,-0.333727 0.287161,-0.341488 0.287161,-1.094315 v -0.162983 q 0,-0.853721 -0.294922,-1.218493 -0.294922,-0.372532 -0.923571,-0.372532 z"
         id="path12838" />
    </g>
  </g>
</svg>
