<?xml version="1.0" encoding="UTF-8" standalone="no"?>
<!-- Created with Inkscape (http://www.inkscape.org/) -->

<svg
   width="37.599876mm"
   height="20.99382mm"
   viewBox="0 0 37.599876 20.99382"
   version="1.1"
   id="svg5"
   xmlns="http://www.w3.org/2000/svg"
   xmlns:svg="http://www.w3.org/2000/svg">
  <defs
     id="defs2" />
  <g
     id="layer1"
     transform="translate(-17.97889,-111.18183)">
    <path
       id="rect111"
       style="fill:#ffffff;fill-opacity:0.4;fill-rule:evenodd;stroke:#000000;stroke-width:1.39958"
       d="m 24.182641,111.88162 c -0.775367,0 -1.399641,0.62427 -1.399641,1.39964 v 3.71767 h -2.704679 c -0.775368,0 -1.399641,0.62427 -1.399641,1.39965 v 6.56034 c 0,0.77536 0.624273,1.3995 1.399641,1.3995 H 22.783 v 3.7178 c 0,0.77537 0.624274,1.39964 1.399641,1.39964 h 25.192371 c 0.775367,0 1.399643,-0.62427 1.399643,-1.39964 v -3.7178 h 2.704679 c 0.775365,0 1.39964,-0.62414 1.39964,-1.3995 v -6.56034 c 0,-0.77538 -0.624275,-1.39965 -1.39964,-1.39965 h -2.704679 v -3.71767 c 0,-0.77537 -0.624276,-1.39964 -1.399643,-1.39964 z" />
    <path
       style="fill:none;stroke:#000000;stroke-width:1.11967;stroke-linecap:butt;stroke-linejoin:miter;stroke-dasharray:none;stroke-opacity:1"
       d="m 18.156107,123.90058 h 4.65852"
       id="path8993" />
    <path
       style="fill:none;stroke:#000000;stroke-width:1.11967;stroke-linecap:butt;stroke-linejoin:miter;stroke-dasharray:none;stroke-opacity:1"
       d="m 18.156107,119.4569 h 4.65852"
       id="path8993-5" />
    <path
       style="fill:none;stroke:#000000;stroke-width:1.11967;stroke-linecap:butt;stroke-linejoin:miter;stroke-dasharray:none;stroke-opacity:1"
       d="m 50.743033,123.90058 h 4.658522"
       id="path8993-3" />
    <path
       style="fill:none;stroke:#000000;stroke-width:1.11967;stroke-linecap:butt;stroke-linejoin:miter;stroke-dasharray:none;stroke-opacity:1"
       d="m 50.743033,119.4569 h 4.658522"
       id="path8993-56" />
    <path
       style="fill:none;stroke:#000000;stroke-width:1.11967;stroke-linecap:butt;stroke-linejoin:miter;stroke-dasharray:none;stroke-opacity:1"
       d="m 50.743033,121.67874 h 4.658522"
       id="path8993-2" />
    <path
       style="fill:none;stroke:#000000;stroke-width:1.11967;stroke-linecap:butt;stroke-linejoin:miter;stroke-dasharray:none;stroke-opacity:1"
       d="m 18.156107,121.67874 h 4.65852"
       id="path8993-9" />
    <rect
       style="fill:#ff7f2a;fill-opacity:1;stroke:#000000;stroke-width:0.977914;stroke-dasharray:none"
       id="rect9096"
       width="23.112263"
       height="11.096384"
       x="25.222694"
       y="117.9714"
       rx="0.56328738" />
    <g
       aria-label="Observer"
       id="text557"
       style="font-size:3.52778px;line-height:1.25;stroke-width:0.264583"
       transform="matrix(1.2,0,0,1.2,-38.230055,-22.340724)">
      <path
         d="m 57.316279,114.55661 q 0,0.39159 -0.134055,0.68439 -0.130528,0.28928 -0.388056,0.45156 -0.257527,0.16227 -0.638527,0.16227 -0.391584,0 -0.652639,-0.16227 -0.257528,-0.16228 -0.384528,-0.45509 -0.127,-0.2928 -0.127,-0.68438 0,-0.38806 0.127,-0.67734 0.127,-0.28928 0.384528,-0.45155 0.261055,-0.16228 0.656166,-0.16228 0.377473,0 0.635,0.16228 0.257528,0.15875 0.388056,0.45155 0.134055,0.28928 0.134055,0.68086 z m -1.989666,0 q 0,0.47625 0.201083,0.75142 0.201083,0.27164 0.627945,0.27164 0.430388,0 0.627944,-0.27164 0.197555,-0.27517 0.197555,-0.75142 0,-0.47625 -0.197555,-0.74436 -0.197556,-0.27164 -0.624417,-0.27164 -0.426861,0 -0.631472,0.27164 -0.201083,0.26811 -0.201083,0.74436 z"
         id="path1001" />
      <path
         d="m 58.14178,113.79109 q 0,0.11994 -0.0071,0.22577 -0.0035,0.10231 -0.01058,0.16228 h 0.01764 q 0.08114,-0.11994 0.22225,-0.20108 0.141111,-0.0811 0.363361,-0.0811 0.352778,0 0.564444,0.24694 0.215195,0.24342 0.215195,0.73025 0,0.48684 -0.215195,0.73378 -0.215194,0.24694 -0.564444,0.24694 -0.22225,0 -0.363361,-0.0811 -0.141111,-0.0811 -0.22225,-0.19403 h -0.02469 l -0.0635,0.23989 H 57.8313 v -2.68111 h 0.310445 z m 0.532694,0.36336 q -0.299861,0 -0.416277,0.17286 -0.116417,0.17286 -0.116417,0.53622 v 0.0141 q 0,0.34925 0.112889,0.53622 0.116416,0.18345 0.426861,0.18345 0.254,0 0.377472,-0.18698 0.127,-0.18697 0.127,-0.53975 0,-0.71613 -0.511528,-0.71613 z"
         id="path1003" />
      <path
         d="m 61.232112,115.29745 q 0,0.27516 -0.204611,0.41627 -0.204611,0.14111 -0.550333,0.14111 -0.197556,0 -0.342195,-0.0318 -0.141111,-0.0318 -0.250472,-0.0882 v -0.28222 q 0.112889,0.0564 0.271639,0.10583 0.162278,0.0459 0.328083,0.0459 0.236361,0 0.342195,-0.0741 0.105833,-0.0776 0.105833,-0.20461 0,-0.0706 -0.03881,-0.127 -0.0388,-0.0565 -0.141111,-0.11289 -0.09878,-0.0564 -0.28575,-0.127 -0.183444,-0.0706 -0.313972,-0.14111 -0.130528,-0.0706 -0.201083,-0.16933 -0.07056,-0.0988 -0.07056,-0.254 0,-0.23989 0.194028,-0.37042 0.197555,-0.13053 0.515055,-0.13053 0.172862,0 0.321028,0.0353 0.151695,0.0318 0.282222,0.0917 l -0.105833,0.24695 q -0.119944,-0.0494 -0.250472,-0.0847 -0.130528,-0.0353 -0.268111,-0.0353 -0.1905,0 -0.292806,0.0635 -0.09878,0.06 -0.09878,0.16581 0,0.0776 0.04586,0.13405 0.04586,0.0529 0.151694,0.10584 0.109361,0.0494 0.289278,0.11994 0.179916,0.067 0.306916,0.13758 0.127,0.0706 0.194028,0.17286 0.06703,0.0988 0.06703,0.25048 z"
         id="path1005" />
      <path
         d="m 62.420974,113.89339 q 0.243416,0 0.416277,0.10583 0.176389,0.10584 0.268111,0.29987 0.09525,0.1905 0.09525,0.44802 v 0.18697 h -1.294694 q 0.0071,0.32103 0.162278,0.49037 0.15875,0.1658 0.440972,0.1658 0.179917,0 0.3175,-0.0318 0.141111,-0.0353 0.289278,-0.0988 v 0.27164 q -0.144639,0.0635 -0.28575,0.0917 -0.141111,0.0318 -0.335139,0.0318 -0.268111,0 -0.47625,-0.10936 -0.204611,-0.10936 -0.321028,-0.32455 -0.112889,-0.21872 -0.112889,-0.5327 0,-0.31044 0.102306,-0.53269 0.105833,-0.22225 0.292805,-0.34219 0.1905,-0.11995 0.440973,-0.11995 z m -0.0035,0.254 q -0.22225,0 -0.352778,0.14464 -0.127,0.14111 -0.151694,0.39511 h 0.963083 q -0.0035,-0.23989 -0.112889,-0.38805 -0.109361,-0.1517 -0.345722,-0.1517 z"
         id="path1007" />
      <path
         d="m 64.562332,113.89339 q 0.05292,0 0.112889,0.007 0.0635,0.004 0.109361,0.0141 l -0.0388,0.28575 q -0.04586,-0.0106 -0.102306,-0.0176 -0.05292,-0.007 -0.102306,-0.007 -0.144638,0 -0.271638,0.0811 -0.127,0.0776 -0.204612,0.22225 -0.07408,0.14111 -0.07408,0.33161 v 1.00895 h -0.310444 v -1.89089 h 0.254 l 0.03528,0.34572 h 0.01411 q 0.09172,-0.15522 0.236361,-0.26811 0.144639,-0.11289 0.342194,-0.11289 z"
         id="path1009" />
      <path
         d="m 65.553638,115.81956 -0.716139,-1.89089 h 0.331611 l 0.402166,1.11478 q 0.02822,0.0776 0.05997,0.17286 0.03175,0.0953 0.05644,0.18344 0.0247,0.0847 0.03528,0.14464 h 0.01411 q 0.01411,-0.06 0.03881,-0.14817 0.02822,-0.0882 0.05997,-0.18344 0.03528,-0.0952 0.05997,-0.16933 l 0.402167,-1.11478 h 0.331611 l -0.719667,1.89089 z"
         id="path1011" />
      <path
         d="m 67.659719,113.89339 q 0.243417,0 0.416278,0.10583 0.176389,0.10584 0.268111,0.29987 0.09525,0.1905 0.09525,0.44802 v 0.18697 h -1.294694 q 0.0071,0.32103 0.162277,0.49037 0.15875,0.1658 0.440973,0.1658 0.179916,0 0.3175,-0.0318 0.141111,-0.0353 0.289277,-0.0988 v 0.27164 q -0.144638,0.0635 -0.28575,0.0917 -0.141111,0.0318 -0.335138,0.0318 -0.268112,0 -0.47625,-0.10936 -0.204612,-0.10936 -0.321028,-0.32455 -0.112889,-0.21872 -0.112889,-0.5327 0,-0.31044 0.102305,-0.53269 0.105834,-0.22225 0.292806,-0.34219 0.1905,-0.11995 0.440972,-0.11995 z m -0.0035,0.254 q -0.22225,0 -0.352777,0.14464 -0.127,0.14111 -0.151695,0.39511 h 0.963084 q -0.0035,-0.23989 -0.112889,-0.38805 -0.109361,-0.1517 -0.345723,-0.1517 z"
         id="path1013" />
      <path
         d="m 69.801077,113.89339 q 0.05292,0 0.112889,0.007 0.0635,0.004 0.109361,0.0141 l -0.03881,0.28575 q -0.04586,-0.0106 -0.102305,-0.0176 -0.05292,-0.007 -0.102306,-0.007 -0.144639,0 -0.271639,0.0811 -0.127,0.0776 -0.204611,0.22225 -0.07408,0.14111 -0.07408,0.33161 v 1.00895 h -0.310445 v -1.89089 h 0.254 l 0.03528,0.34572 h 0.01411 q 0.09172,-0.15522 0.236361,-0.26811 0.144639,-0.11289 0.342195,-0.11289 z"
         id="path1015" />
    </g>
  </g>
</svg>
