<?xml version="1.0" encoding="UTF-8" standalone="no"?>
<!-- Created with Inkscape (http://www.inkscape.org/) -->

<svg
   width="40mm"
   height="29.646534mm"
   viewBox="0 0 40.000001 29.646534"
   version="1.1"
   id="svg175"
   inkscape:export-filename="park_brake_released.svg"
   inkscape:export-xdpi="8.8994455"
   inkscape:export-ydpi="8.8994455"
   xmlns:inkscape="http://www.inkscape.org/namespaces/inkscape"
   xmlns:sodipodi="http://sodipodi.sourceforge.net/DTD/sodipodi-0.dtd"
   xmlns="http://www.w3.org/2000/svg"
   xmlns:svg="http://www.w3.org/2000/svg">
  <sodipodi:namedview
     id="namedview177"
     pagecolor="#ffffff"
     bordercolor="#666666"
     borderopacity="1.0"
     inkscape:showpageshadow="2"
     inkscape:pageopacity="0.0"
     inkscape:pagecheckerboard="0"
     inkscape:deskcolor="#d1d1d1"
     inkscape:document-units="mm"
     showgrid="false" />
  <defs
     id="defs172" />
  <g
     inkscape:label="Layer 1"
     inkscape:groupmode="layer"
     id="layer1"
     transform="translate(-41.286148,-190.23514)">
    <path
       style="fill:#4d4d4d;stroke:#1a1a1a;stroke-width:2.65516;stroke-linecap:round;stroke-linejoin:miter;stroke-dasharray:none;stroke-opacity:1"
       d="m 79.187322,207.82554 -1.773954,0.11254"
       id="path4976"
       sodipodi:nodetypes="cc" />
    <path
       style="fill:none;stroke:#000000;stroke-width:4.83399;stroke-linecap:round;stroke-linejoin:miter;stroke-dasharray:none;stroke-opacity:1"
       d="m 44.815456,215.3188 c 0,0 11.334913,-7.12563 31.163766,-7.34131"
       id="path3522"
       sodipodi:nodetypes="cc" />
    <rect
       style="fill:#000000;stroke:none;stroke-width:2.72901;stroke-linecap:round;stroke-dasharray:none"
       id="rect5150"
       width="40"
       height="7.6146564"
       x="41.286148"
       y="212.26701"
       ry="2.7519064" />
    <ellipse
       style="fill:#808080;stroke:none;stroke-width:2.72901;stroke-linecap:round;stroke-dasharray:none"
       id="path5206"
       cx="44.75909"
       cy="216.01717"
       inkscape:export-filename="park_brake_pulled.svg"
       inkscape:export-xdpi="8.8994455"
       inkscape:export-ydpi="8.8994455"
       rx="1.7923511"
       ry="1.8225487" />
    <g
       aria-label="Park Brake"
       id="text6257"
       style="font-size:5.29167px;line-height:1.25;fill:#ffffff;stroke-width:0.264583">
      <path
         d="m 49.250242,214.28046 q 0.740833,0 1.0795,0.29105 0.338667,0.29104 0.338667,0.8202 0,0.31221 -0.142875,0.58738 -0.137583,0.26987 -0.470959,0.43921 -0.328083,0.16933 -0.894292,0.16933 h -0.433917 v 1.47109 h -0.47625 v -3.77826 z m -0.04233,0.40746 H 48.72637 v 1.49225 h 0.381001 q 0.53975,0 0.804333,-0.17462 0.264584,-0.17463 0.264584,-0.59267 0,-0.36512 -0.232834,-0.54504 -0.232833,-0.17992 -0.735542,-0.17992 z"
         id="path6311" />
      <path
         d="m 52.462283,215.17476 q 0.518583,0 0.767292,0.22754 0.248708,0.22754 0.248708,0.72496 v 1.93146 h -0.338667 l -0.08996,-0.40217 h -0.02117 q -0.185208,0.23283 -0.391583,0.34396 -0.201084,0.11112 -0.560917,0.11112 -0.386292,0 -0.640292,-0.20108 -0.254,-0.20638 -0.254,-0.64029 0,-0.42334 0.333375,-0.65088 0.333375,-0.23283 1.026584,-0.254 l 0.481542,-0.0159 v -0.16934 q 0,-0.35454 -0.153459,-0.49212 -0.153458,-0.13759 -0.433917,-0.13759 -0.22225,0 -0.423333,0.0688 -0.201084,0.0635 -0.375709,0.14816 l -0.142875,-0.34925 q 0.185209,-0.10054 0.439209,-0.16933 0.254,-0.0741 0.529167,-0.0741 z m 0.137583,1.51341 q -0.529167,0.0212 -0.735542,0.16934 -0.201083,0.14816 -0.201083,0.41804 0,0.23812 0.142875,0.34925 0.148166,0.11112 0.375708,0.11112 0.359834,0 0.597959,-0.19579 0.238125,-0.20108 0.238125,-0.61383 v -0.254 z"
         id="path6313" />
      <path
         d="m 55.679622,215.16946 q 0.07937,0 0.169334,0.0106 0.09525,0.005 0.164041,0.0212 l -0.05821,0.42863 q -0.06879,-0.0159 -0.153458,-0.0265 -0.07937,-0.0106 -0.153459,-0.0106 -0.216958,0 -0.407458,0.12171 -0.190501,0.11641 -0.306917,0.33337 -0.111125,0.21167 -0.111125,0.49742 v 1.51342 h -0.465667 v -2.83634 h 0.381 l 0.05292,0.51858 h 0.02117 q 0.137584,-0.23283 0.354542,-0.40216 0.216959,-0.16934 0.513292,-0.16934 z"
         id="path6315" />
      <path
         d="m 57.00254,216.13784 q 0,0.0847 -0.01058,0.22225 -0.0053,0.13758 -0.01058,0.23812 h 0.02117 q 0.03175,-0.0423 0.09525,-0.1217 0.0635,-0.0794 0.127,-0.15875 0.06879,-0.0847 0.116417,-0.13759 l 0.904876,-0.95779 h 0.545042 l -1.148293,1.21179 1.227668,1.62455 h -0.560917 l -0.984251,-1.32292 -0.322792,0.28046 v 1.04246 h -0.460375 v -4.02167 h 0.460375 z"
         id="path6317" />
      <path
         d="m 61.886755,214.28046 q 0.709084,0 1.068917,0.21167 0.365126,0.20638 0.365126,0.72496 0,0.33337 -0.185209,0.55562 -0.185208,0.21696 -0.534458,0.28046 v 0.0265 q 0.238125,0.037 0.428625,0.13758 0.195792,0.10055 0.306917,0.28575 0.111125,0.18521 0.111125,0.48155 0,0.51329 -0.354542,0.79375 -0.34925,0.28046 -0.957792,0.28046 h -1.32821 v -3.77826 z m 0.09525,1.60867 q 0.486834,0 0.666751,-0.15346 0.179916,-0.15875 0.179916,-0.46566 0,-0.31221 -0.22225,-0.4445 -0.216958,-0.13759 -0.6985,-0.13759 h -0.624417 v 1.20121 z m -0.6985,0.39688 v 1.37054 h 0.762 q 0.502709,0 0.698501,-0.19579 0.195791,-0.19579 0.195791,-0.51329 0,-0.29634 -0.206375,-0.47626 -0.201083,-0.1852 -0.724958,-0.1852 z"
         id="path6319" />
      <path
         d="m 65.506255,215.16946 q 0.07937,0 0.169333,0.0106 0.09525,0.005 0.164042,0.0212 l -0.05821,0.42863 q -0.06879,-0.0159 -0.153459,-0.0265 -0.07937,-0.0106 -0.153458,-0.0106 -0.216959,0 -0.407459,0.12171 -0.1905,0.11641 -0.306917,0.33337 -0.111125,0.21167 -0.111125,0.49742 v 1.51342 h -0.465667 v -2.83634 h 0.381 l 0.05292,0.51858 h 0.02117 q 0.137583,-0.23283 0.354542,-0.40216 0.216958,-0.16934 0.513292,-0.16934 z"
         id="path6321" />
      <path
         d="m 67.33717,215.17476 q 0.518584,0 0.767293,0.22754 0.248708,0.22754 0.248708,0.72496 v 1.93146 h -0.338667 l -0.08996,-0.40217 h -0.02117 q -0.185208,0.23283 -0.391584,0.34396 -0.201083,0.11112 -0.560917,0.11112 -0.386291,0 -0.640292,-0.20108 -0.254,-0.20638 -0.254,-0.64029 0,-0.42334 0.333375,-0.65088 0.333376,-0.23283 1.026584,-0.254 l 0.481542,-0.0159 v -0.16934 q 0,-0.35454 -0.153458,-0.49212 -0.153458,-0.13759 -0.433917,-0.13759 -0.22225,0 -0.423334,0.0688 -0.201083,0.0635 -0.375708,0.14816 l -0.142875,-0.34925 q 0.185208,-0.10054 0.439208,-0.16933 0.254001,-0.0741 0.529167,-0.0741 z m 0.137584,1.51341 q -0.529167,0.0212 -0.735542,0.16934 -0.201084,0.14816 -0.201084,0.41804 0,0.23812 0.142875,0.34925 0.148167,0.11112 0.375709,0.11112 0.359833,0 0.597959,-0.19579 0.238125,-0.20108 0.238125,-0.61383 v -0.254 z"
         id="path6323" />
      <path
         d="m 69.691968,216.13784 q 0,0.0847 -0.01058,0.22225 -0.0053,0.13758 -0.01058,0.23812 h 0.02117 q 0.03175,-0.0423 0.09525,-0.1217 0.0635,-0.0794 0.127001,-0.15875 0.06879,-0.0847 0.116416,-0.13759 l 0.904876,-0.95779 h 0.545042 l -1.148293,1.21179 1.227668,1.62455 h -0.560917 l -0.984251,-1.32292 -0.322792,0.28046 v 1.04246 h -0.460375 v -4.02167 h 0.460375 z"
         id="path6325" />
      <path
         d="m 73.152723,215.16946 q 0.365125,0 0.624417,0.15875 0.264584,0.15875 0.402167,0.4498 0.142875,0.28575 0.142875,0.67204 v 0.28046 h -1.942043 q 0.01058,0.48154 0.243417,0.73554 0.238125,0.24871 0.661459,0.24871 0.269875,0 0.47625,-0.0476 0.211667,-0.0529 0.433917,-0.14816 v 0.40745 q -0.216959,0.0952 -0.428625,0.13759 -0.211667,0.0476 -0.502709,0.0476 -0.402167,0 -0.714375,-0.16404 -0.306917,-0.16404 -0.481542,-0.48683 -0.169334,-0.32809 -0.169334,-0.79905 0,-0.46566 0.153459,-0.79904 0.15875,-0.33337 0.439208,-0.51329 0.28575,-0.17992 0.661459,-0.17992 z m -0.0053,0.381 q -0.333375,0 -0.529167,0.21696 -0.1905,0.21167 -0.227541,0.59267 h 1.444625 q -0.0053,-0.35983 -0.169333,-0.58208 -0.164042,-0.22755 -0.518584,-0.22755 z"
         id="path6327" />
    </g>
  </g>
</svg>
