<?xml version="1.0" encoding="UTF-8" standalone="no"?>
<!-- Created with Inkscape (http://www.inkscape.org/) -->

<svg
   width="37.599876mm"
   height="20.99382mm"
   viewBox="0 0 37.599876 20.99382"
   version="1.1"
   id="svg5"
   xmlns="http://www.w3.org/2000/svg"
   xmlns:svg="http://www.w3.org/2000/svg">
  <defs
     id="defs2" />
  <g
     id="layer1"
     transform="translate(-17.97889,-111.18183)">
    <path
       id="rect111"
       style="fill:#ffffff;fill-opacity:0.4;fill-rule:evenodd;stroke:#000000;stroke-width:1.39958"
       d="m 24.182641,111.88162 c -0.775367,0 -1.399641,0.62427 -1.399641,1.39964 v 3.71767 h -2.704679 c -0.775368,0 -1.399641,0.62427 -1.399641,1.39965 v 6.56034 c 0,0.77536 0.624273,1.3995 1.399641,1.3995 H 22.783 v 3.7178 c 0,0.77537 0.624274,1.39964 1.399641,1.39964 h 25.192371 c 0.775367,0 1.399643,-0.62427 1.399643,-1.39964 v -3.7178 h 2.704679 c 0.775365,0 1.39964,-0.62414 1.39964,-1.3995 v -6.56034 c 0,-0.77538 -0.624275,-1.39965 -1.39964,-1.39965 h -2.704679 v -3.71767 c 0,-0.77537 -0.624276,-1.39964 -1.399643,-1.39964 z" />
    <path
       style="fill:none;stroke:#000000;stroke-width:1.11967;stroke-linecap:butt;stroke-linejoin:miter;stroke-dasharray:none;stroke-opacity:1"
       d="m 18.156107,123.90058 h 4.65852"
       id="path8993" />
    <path
       style="fill:none;stroke:#000000;stroke-width:1.11967;stroke-linecap:butt;stroke-linejoin:miter;stroke-dasharray:none;stroke-opacity:1"
       d="m 18.156107,119.4569 h 4.65852"
       id="path8993-5" />
    <path
       style="fill:none;stroke:#000000;stroke-width:1.11967;stroke-linecap:butt;stroke-linejoin:miter;stroke-dasharray:none;stroke-opacity:1"
       d="m 50.743033,123.90058 h 4.658522"
       id="path8993-3" />
    <path
       style="fill:none;stroke:#000000;stroke-width:1.11967;stroke-linecap:butt;stroke-linejoin:miter;stroke-dasharray:none;stroke-opacity:1"
       d="m 50.743033,119.4569 h 4.658522"
       id="path8993-56" />
    <path
       style="fill:none;stroke:#000000;stroke-width:1.11967;stroke-linecap:butt;stroke-linejoin:miter;stroke-dasharray:none;stroke-opacity:1"
       d="m 50.743033,121.67874 h 4.658522"
       id="path8993-2" />
    <path
       style="fill:none;stroke:#000000;stroke-width:1.11967;stroke-linecap:butt;stroke-linejoin:miter;stroke-dasharray:none;stroke-opacity:1"
       d="m 18.156107,121.67874 h 4.65852"
       id="path8993-9" />
    <rect
       style="fill:#00ff00;fill-opacity:1;stroke:#000000;stroke-width:0.977914;stroke-dasharray:none"
       id="rect9096"
       width="23.112263"
       height="11.096384"
       x="25.222694"
       y="117.9714"
       rx="0.56328738" />
    <g
       aria-label="Powertrain"
       id="text549"
       style="font-size:3.52778px;line-height:1.25;stroke-width:0.264583"
       transform="matrix(1.2,0,0,1.2,-16.028769,-12.851262)">
      <path
         d="m 35.913611,105.35231 q 0.493889,0 0.719667,0.19403 0.225778,0.19403 0.225778,0.54681 0,0.20814 -0.09525,0.39158 -0.09172,0.17992 -0.313972,0.29281 -0.218723,0.11288 -0.596195,0.11288 h -0.289278 v 0.98073 h -0.3175 v -2.51884 z m -0.02822,0.27164 h -0.321028 v 0.99484 h 0.254 q 0.359834,0 0.536223,-0.11642 0.176388,-0.11642 0.176388,-0.39511 0,-0.24342 -0.155222,-0.36336 -0.155222,-0.11995 -0.490361,-0.11995 z"
         id="path965" />
      <path
         d="m 38.982776,106.92217 q 0,0.4692 -0.239889,0.72673 -0.236361,0.25752 -0.642055,0.25752 -0.250472,0 -0.448028,-0.11288 -0.194028,-0.11642 -0.306917,-0.33514 -0.112889,-0.22225 -0.112889,-0.53623 0,-0.46919 0.236362,-0.72319 0.236361,-0.254 0.642055,-0.254 0.257528,0 0.451556,0.11642 0.197555,0.11289 0.306916,0.33161 0.112889,0.21519 0.112889,0.52916 z m -1.42875,0 q 0,0.33514 0.130528,0.5327 0.134056,0.19403 0.423333,0.19403 0.28575,0 0.419806,-0.19403 0.134055,-0.19756 0.134055,-0.5327 0,-0.33513 -0.134055,-0.52563 -0.134056,-0.1905 -0.423333,-0.1905 -0.289278,0 -0.419806,0.1905 -0.130528,0.1905 -0.130528,0.52563 z"
         id="path967" />
      <path
         d="m 40.62319,106.80223 q -0.04586,-0.14464 -0.08114,-0.28222 -0.03175,-0.14111 -0.04939,-0.21872 h -0.01411 q -0.01411,0.0776 -0.04586,0.21872 -0.03175,0.13758 -0.08114,0.28575 l -0.338667,1.06186 h -0.352778 l -0.518583,-1.89089 h 0.321028 l 0.261055,1.00894 q 0.03881,0.1517 0.07408,0.30692 0.03528,0.15522 0.04939,0.25753 h 0.01411 q 0.01411,-0.06 0.03175,-0.14817 0.02117,-0.0882 0.04586,-0.18344 0.02469,-0.0988 0.04939,-0.17639 l 0.335138,-1.06539 h 0.338667 l 0.324556,1.06539 q 0.03881,0.11994 0.07408,0.26105 0.03881,0.14112 0.05292,0.24342 h 0.01411 q 0.01058,-0.0882 0.04586,-0.24342 0.0388,-0.15522 0.08114,-0.3175 l 0.264583,-1.00894 h 0.3175 l -0.525639,1.89089 h -0.363361 z"
         id="path969" />
      <path
         d="m 42.905659,105.94498 q 0.243417,0 0.416278,0.10583 0.176389,0.10584 0.268111,0.29986 0.09525,0.1905 0.09525,0.44803 v 0.18697 h -1.294694 q 0.0071,0.32103 0.162278,0.49037 0.15875,0.1658 0.440972,0.1658 0.179917,0 0.3175,-0.0318 0.141111,-0.0353 0.289278,-0.0988 v 0.27164 q -0.144639,0.0635 -0.28575,0.0917 -0.141111,0.0318 -0.335139,0.0318 -0.268111,0 -0.47625,-0.10936 -0.204611,-0.10936 -0.321028,-0.32455 -0.112889,-0.21872 -0.112889,-0.5327 0,-0.31044 0.102306,-0.53269 0.105833,-0.22225 0.292805,-0.3422 0.1905,-0.11994 0.440972,-0.11994 z m -0.0035,0.254 q -0.22225,0 -0.352778,0.14464 -0.127,0.14111 -0.151695,0.39511 h 0.963084 q -0.0035,-0.23989 -0.112889,-0.38806 -0.109361,-0.15169 -0.345722,-0.15169 z"
         id="path971" />
      <path
         d="m 45.047017,105.94498 q 0.05292,0 0.112889,0.007 0.0635,0.004 0.109361,0.0141 l -0.03881,0.28575 q -0.04586,-0.0106 -0.102305,-0.0176 -0.05292,-0.007 -0.102306,-0.007 -0.144639,0 -0.271639,0.0811 -0.127,0.0776 -0.204611,0.22225 -0.07408,0.14111 -0.07408,0.33161 v 1.00895 h -0.310444 v -1.89089 h 0.254 l 0.03528,0.34572 h 0.01411 q 0.09172,-0.15522 0.236362,-0.26811 0.144638,-0.11289 0.342194,-0.11289 z"
         id="path973" />
      <path
         d="m 46.253518,107.65242 q 0.07055,0 0.144639,-0.0106 0.07408,-0.0141 0.119944,-0.0282 v 0.23636 q -0.04939,0.0247 -0.141111,0.0388 -0.09172,0.0176 -0.176389,0.0176 -0.148166,0 -0.275166,-0.0494 -0.123473,-0.0529 -0.201084,-0.17992 -0.07761,-0.127 -0.07761,-0.35631 v -1.10066 H 45.37863 v -0.14817 l 0.271639,-0.12347 0.123472,-0.40217 h 0.183445 v 0.43392 h 0.546805 v 0.23989 h -0.546805 v 1.09361 q 0,0.17286 0.08114,0.25753 0.08467,0.0811 0.215195,0.0811 z"
         id="path975" />
      <path
         d="m 47.777518,105.94498 q 0.05292,0 0.112889,0.007 0.0635,0.004 0.109361,0.0141 l -0.03881,0.28575 q -0.04586,-0.0106 -0.102306,-0.0176 -0.05292,-0.007 -0.102305,-0.007 -0.144639,0 -0.271639,0.0811 -0.127,0.0776 -0.204611,0.22225 -0.07408,0.14111 -0.07408,0.33161 v 1.00895 h -0.310444 v -1.89089 h 0.254 l 0.03528,0.34572 h 0.01411 q 0.09172,-0.15522 0.236361,-0.26811 0.144639,-0.11289 0.342194,-0.11289 z"
         id="path977" />
      <path
         d="m 48.998128,105.94851 q 0.345722,0 0.511528,0.15169 0.165805,0.1517 0.165805,0.48331 v 1.28764 h -0.225777 l -0.05997,-0.26811 H 49.3756 q -0.123472,0.15522 -0.261055,0.2293 -0.134056,0.0741 -0.373945,0.0741 -0.257527,0 -0.426861,-0.13405 -0.169333,-0.13758 -0.169333,-0.42686 0,-0.28222 0.22225,-0.43392 0.22225,-0.15522 0.684389,-0.16933 l 0.321028,-0.0106 v -0.11288 q 0,-0.23637 -0.102306,-0.32809 -0.102306,-0.0917 -0.289278,-0.0917 -0.148166,0 -0.282222,0.0459 -0.134056,0.0423 -0.250472,0.0988 l -0.09525,-0.23283 q 0.123472,-0.067 0.292805,-0.11289 0.169334,-0.0494 0.352778,-0.0494 z m 0.09172,1.00894 q -0.352777,0.0141 -0.490361,0.11289 -0.134055,0.0988 -0.134055,0.2787 0,0.15875 0.09525,0.23283 0.09878,0.0741 0.250472,0.0741 0.239889,0 0.398639,-0.13053 0.15875,-0.13405 0.15875,-0.40922 v -0.16933 z"
         id="path979" />
      <path
         d="m 50.419825,105.27118 q 0.07056,0 0.123472,0.0494 0.05644,0.0459 0.05644,0.14817 0,0.0988 -0.05644,0.14817 -0.05292,0.0494 -0.123472,0.0494 -0.07761,0 -0.130528,-0.0494 -0.05292,-0.0494 -0.05292,-0.14817 0,-0.1023 0.05292,-0.14817 0.05292,-0.0494 0.130528,-0.0494 z m 0.151695,0.70908 v 1.89089 h -0.310445 v -1.89089 z"
         id="path981" />
      <path
         d="m 52.081407,105.94498 q 0.338666,0 0.511527,0.16581 0.172862,0.16227 0.172862,0.52916 v 1.2312 h -0.306917 v -1.21003 q 0,-0.45508 -0.423333,-0.45508 -0.313973,0 -0.433917,0.17638 -0.119945,0.17639 -0.119945,0.508 v 0.98073 H 51.17124 v -1.89089 h 0.250472 l 0.04586,0.25753 h 0.01764 q 0.09172,-0.14817 0.254,-0.21873 0.162278,-0.0741 0.342195,-0.0741 z"
         id="path983" />
    </g>
  </g>
</svg>
