<?xml version="1.0" encoding="UTF-8" standalone="no"?>
<!-- Created with Inkscape (http://www.inkscape.org/) -->

<svg
   width="67.165031mm"
   height="12.704519mm"
   viewBox="0 0 67.165031 12.704519"
   version="1.1"
   id="svg5"
   sodipodi:docname="reverse_steering_attack_button.svg"
   inkscape:version="1.2.2 (b0a8486541, 2022-12-01)"
   inkscape:export-filename="unlock_attack_button.svg"
   inkscape:export-xdpi="96"
   inkscape:export-ydpi="96"
   xmlns:inkscape="http://www.inkscape.org/namespaces/inkscape"
   xmlns:sodipodi="http://sodipodi.sourceforge.net/DTD/sodipodi-0.dtd"
   xmlns="http://www.w3.org/2000/svg"
   xmlns:svg="http://www.w3.org/2000/svg">
  <sodipodi:namedview
     id="namedview7"
     pagecolor="#ffffff"
     bordercolor="#666666"
     borderopacity="1.0"
     inkscape:showpageshadow="2"
     inkscape:pageopacity="0.0"
     inkscape:pagecheckerboard="0"
     inkscape:deskcolor="#d1d1d1"
     inkscape:document-units="mm"
     showgrid="false"
     inkscape:zoom="1.9951192"
     inkscape:cx="156.88286"
     inkscape:cy="26.314218"
     inkscape:window-width="1898"
     inkscape:window-height="1008"
     inkscape:window-x="0"
     inkscape:window-y="0"
     inkscape:window-maximized="1"
     inkscape:current-layer="layer1" />
  <defs
     id="defs2" />
  <g
     inkscape:label="Layer 1"
     inkscape:groupmode="layer"
     id="layer1"
     transform="translate(-22.717711,-39.949462)">
    <path
       id="rect8286"
       style="fill:#ffffff;fill-opacity:0.398449;stroke:#000000;stroke-width:0.964999;stroke-linecap:round"
       d="m 26.200211,40.431961 h 60.200035 c 1.662,0 3,1.338 3,3 v 5.739519 c 0,1.662 -1.338,3 -3,3 H 26.200211 c -1.662,0 -3,-1.338 -3,-3 v -5.739519 c 0,-1.662 1.338,-3 3,-3 z" />
    <g
       aria-label="Random Attack"
       id="text8677"
       style="font-size:7.76111px;line-height:1.25;stroke-width:0.264583"
       transform="translate(-0.044588,37.430161)">
      <path
         d="m 30.531362,6.2405423 q 1.032228,0 1.521178,0.3958167 0.496711,0.3880555 0.496711,1.1796889 0,0.4423833 -0.162983,0.7373056 -0.162983,0.2949222 -0.4191,0.4734277 -0.248356,0.1707445 -0.527756,0.2716389 L 32.96059,11.781976 H 32.145673 L 30.803001,9.4924479 h -1.102078 v 2.2895281 h -0.6985 V 6.2405423 Z m -0.0388,0.6053667 h -0.791634 v 2.0566945 h 0.830439 q 0.675217,0 0.985661,-0.2638778 0.310445,-0.2716389 0.310445,-0.7916334 0,-0.5432778 -0.325967,-0.76835 Q 31.175535,6.845909 30.492557,6.845909 Z"
         id="path10108" />
      <path
         d="m 35.312205,7.5521701 q 0.760589,0 1.125361,0.3337278 0.364772,0.3337278 0.364772,1.0632722 v 2.8328059 h -0.496711 l -0.131939,-0.589845 h -0.03104 q -0.271639,0.341489 -0.574322,0.504473 -0.294923,0.162983 -0.822678,0.162983 -0.566561,0 -0.939095,-0.294922 -0.372533,-0.302684 -0.372533,-0.939095 0,-0.620889 0.48895,-0.9546165 0.48895,-0.3414889 1.505656,-0.3725334 l 0.706261,-0.023283 V 9.0267812 q 0,-0.5199944 -0.225072,-0.7217833 -0.225073,-0.2017889 -0.636412,-0.2017889 -0.325966,0 -0.620889,0.1008945 -0.294922,0.093133 -0.551038,0.2173111 L 33.891922,7.9091812 Q 34.16356,7.7617201 34.536094,7.6608257 34.908627,7.5521701 35.312205,7.5521701 Z m 0.201789,2.2196778 q -0.776111,0.031045 -1.078795,0.2483551 -0.294922,0.217312 -0.294922,0.613128 0,0.34925 0.20955,0.512234 0.217311,0.162983 0.551039,0.162983 0.527756,0 0.877006,-0.287161 0.34925,-0.294922 0.34925,-0.900289 V 9.7485646 Z"
         id="path10110" />
      <path
         d="m 40.093055,7.544409 q 0.745067,0 1.125361,0.3647722 0.380295,0.3570111 0.380295,1.1641667 V 11.781976 H 40.923494 V 9.1199146 q 0,-1.0011834 -0.931333,-1.0011834 -0.690739,0 -0.954617,0.3880556 -0.263878,0.3880556 -0.263878,1.1176 V 11.781976 H 38.090688 V 7.6220201 h 0.551039 l 0.100895,0.5665611 h 0.03881 Q 38.983221,7.8626146 39.340232,7.7073923 39.697244,7.544409 40.09306,7.544409 Z"
         id="path10112" />
      <path
         d="m 44.361667,11.859587 q -0.776111,0 -1.241778,-0.535517 -0.465666,-0.543278 -0.465666,-1.614311 0,-1.0710333 0.465666,-1.6143111 0.473428,-0.5510389 1.249539,-0.5510389 0.481189,0 0.783873,0.1785056 0.310444,0.1785055 0.504472,0.4346222 h 0.04657 Q 45.696578,8.0566423 45.673295,7.8626146 45.657773,7.6608257 45.657773,7.544409 V 5.8835312 h 0.682978 v 5.8984448 h -0.551039 l -0.100895,-0.5588 h -0.03104 q -0.186267,0.263878 -0.496711,0.450144 -0.310445,0.186267 -0.799395,0.186267 z m 0.108656,-0.566561 q 0.659694,0 0.923572,-0.357011 0.271639,-0.364773 0.271639,-1.0943171 V 9.7175202 q 0,-0.7761112 -0.256117,-1.1874501 -0.256116,-0.4191 -0.946855,-0.4191 -0.551039,0 -0.830439,0.4423834 -0.271639,0.4346222 -0.271639,1.1719278 0,0.7450667 0.271639,1.1564057 0.2794,0.411339 0.8382,0.411339 z"
         id="path10114" />
      <path
         d="m 51.276815,9.6942368 q 0,1.0322282 -0.527756,1.5987892 -0.519994,0.566561 -1.412522,0.566561 -0.551039,0 -0.985661,-0.248356 -0.426861,-0.256116 -0.675217,-0.737305 -0.248355,-0.48895 -0.248355,-1.1796892 0,-1.0322278 0.519994,-1.5910278 0.519995,-0.5588 1.412522,-0.5588 0.566561,0 0.993423,0.2561167 0.434622,0.2483555 0.675216,0.7295444 0.248356,0.4734278 0.248356,1.1641667 z m -3.14325,0 q 0,0.7373052 0.287161,1.1719282 0.294922,0.426861 0.931333,0.426861 0.62865,0 0.923572,-0.426861 0.294923,-0.434623 0.294923,-1.1719282 0,-0.7373056 -0.294923,-1.1564056 -0.294922,-0.4191 -0.931333,-0.4191 -0.636411,0 -0.923572,0.4191 -0.287161,0.4191 -0.287161,1.1564056 z"
         id="path10116" />
      <path
         d="m 56.919139,7.544409 q 0.706261,0 1.055511,0.3647722 0.34925,0.3570111 0.34925,1.1641667 V 11.781976 H 57.648684 V 9.1043924 q 0,-0.9856612 -0.845961,-0.9856612 -0.605367,0 -0.869245,0.34925 -0.256117,0.34925 -0.256117,1.0167056 V 11.781976 H 55.002145 V 9.1043924 q 0,-0.9856612 -0.853722,-0.9856612 -0.62865,0 -0.869245,0.3880556 -0.240594,0.3880556 -0.240594,1.1176 V 11.781976 H 52.355606 V 7.6220201 h 0.551039 l 0.100894,0.5665611 h 0.03881 Q 53.240373,7.8626146 53.566339,7.7073923 53.900067,7.544409 54.2726,7.544409 q 0.9779,0 1.272823,0.6985 h 0.03881 q 0.20955,-0.3570111 0.566561,-0.5277556 0.364772,-0.1707444 0.76835,-0.1707444 z"
         id="path10118" />
      <path
         d="M 65.200242,11.781976 64.532786,10.06677 h -2.196394 l -0.659695,1.715206 h -0.706261 l 2.16535,-5.564717 h 0.62865 l 2.157589,5.564717 z M 63.702347,7.7694812 q -0.02328,-0.062089 -0.07761,-0.2250722 -0.05433,-0.1629833 -0.108655,-0.3337278 -0.04657,-0.1785055 -0.07761,-0.2716389 -0.05433,0.2405945 -0.124177,0.4734278 -0.06985,0.2250722 -0.116417,0.3570111 l -0.62865,1.6764001 h 1.754011 z"
         id="path10120" />
      <path
         d="m 67.97872,11.300787 q 0.155222,0 0.318206,-0.02328 0.162983,-0.03105 0.263877,-0.06209 v 0.519994 q -0.108655,0.05433 -0.310444,0.08537 -0.201789,0.03881 -0.388056,0.03881 -0.325966,0 -0.605366,-0.108656 -0.271639,-0.116416 -0.442384,-0.395816 -0.170744,-0.2794 -0.170744,-0.783873 V 8.1497757 H 66.053964 V 7.823809 L 66.65157,7.5521701 66.923209,6.6674034 h 0.403578 v 0.9546167 h 1.202972 V 8.1497757 H 67.326787 V 10.55572 q 0,0.380295 0.178505,0.566561 0.186267,0.178506 0.473428,0.178506 z"
         id="path10122" />
      <path
         d="m 70.780482,11.300787 q 0.155222,0 0.318205,-0.02328 0.162984,-0.03105 0.263878,-0.06209 v 0.519994 q -0.108656,0.05433 -0.310444,0.08537 -0.201789,0.03881 -0.388056,0.03881 -0.325967,0 -0.605367,-0.108656 -0.271639,-0.116416 -0.442383,-0.395816 -0.170744,-0.2794 -0.170744,-0.783873 V 8.1497757 H 68.855726 V 7.823809 l 0.597606,-0.2716389 0.271639,-0.8847667 h 0.403577 v 0.9546167 h 1.202973 V 8.1497757 H 70.128548 V 10.55572 q 0,0.380295 0.178506,0.566561 0.186267,0.178506 0.473428,0.178506 z"
         id="path10124" />
      <path
         d="m 73.76851,7.5521701 q 0.760589,0 1.125361,0.3337278 0.364772,0.3337278 0.364772,1.0632722 v 2.8328059 h -0.496711 l -0.131939,-0.589845 h -0.03104 q -0.271639,0.341489 -0.574322,0.504473 -0.294923,0.162983 -0.822678,0.162983 -0.566561,0 -0.939095,-0.294922 -0.372533,-0.302684 -0.372533,-0.939095 0,-0.620889 0.48895,-0.9546165 0.48895,-0.3414889 1.505656,-0.3725334 l 0.706261,-0.023283 V 9.0267812 q 0,-0.5199944 -0.225072,-0.7217833 -0.225073,-0.2017889 -0.636412,-0.2017889 -0.325966,0 -0.620888,0.1008945 -0.294923,0.093133 -0.551039,0.2173111 L 72.348227,7.9091812 Q 72.619866,7.7617201 72.992399,7.6608257 73.364932,7.5521701 73.76851,7.5521701 Z m 0.201789,2.2196778 q -0.776111,0.031045 -1.078795,0.2483551 -0.294922,0.217312 -0.294922,0.613128 0,0.34925 0.20955,0.512234 0.217311,0.162983 0.551039,0.162983 0.527756,0 0.877006,-0.287161 0.34925,-0.294922 0.34925,-0.900289 V 9.7485646 Z"
         id="path10126" />
      <path
         d="m 78.215632,11.859587 q -0.551039,0 -0.985661,-0.225072 -0.426861,-0.225073 -0.675217,-0.6985 -0.240594,-0.473428 -0.240594,-1.2107337 0,-0.7683501 0.256116,-1.249539 0.256117,-0.4811888 0.690739,-0.7062611 0.442384,-0.2250722 1.001184,-0.2250722 0.318205,0 0.613127,0.06985 0.294923,0.062089 0.481189,0.1552222 l -0.20955,0.5665611 q -0.186266,-0.06985 -0.434622,-0.1319388 -0.248355,-0.062089 -0.465667,-0.062089 -1.226255,0 -1.226255,1.5755056 0,0.7528279 0.294922,1.1564059 0.302683,0.395816 0.892528,0.395816 0.341489,0 0.597605,-0.06985 0.263878,-0.06985 0.481189,-0.170744 v 0.605367 q -0.20955,0.108655 -0.465666,0.162983 -0.248356,0.06209 -0.605367,0.06209 z"
         id="path10128" />
      <path
         d="m 80.94754,8.9646924 q 0,0.1241777 -0.01552,0.3259666 -0.0078,0.2017889 -0.01552,0.34925 h 0.03104 q 0.04657,-0.062089 0.1397,-0.1785055 0.09313,-0.1164167 0.186267,-0.2328334 0.100894,-0.1241777 0.170744,-0.2017889 l 1.32715,-1.4047611 h 0.799395 l -1.684161,1.7772945 1.800577,2.3826614 H 82.864535 L 81.420968,9.8416979 80.94754,10.253037 v 1.528939 H 80.272323 V 5.8835312 h 0.675217 z"
         id="path10130" />
    </g>
  </g>
</svg>
