<?xml version="1.0" encoding="UTF-8" standalone="no"?>
<!-- Created with Inkscape (http://www.inkscape.org/) -->

<svg
   width="67.165031mm"
   height="12.704519mm"
   viewBox="0 0 67.165031 12.704519"
   version="1.1"
   id="svg5"
   sodipodi:docname="reverse_steering_attack_button.svg"
   inkscape:version="1.2.2 (b0a8486541, 2022-12-01)"
   inkscape:export-filename="sniffing_attack_button.svg"
   inkscape:export-xdpi="96"
   inkscape:export-ydpi="96"
   xmlns:inkscape="http://www.inkscape.org/namespaces/inkscape"
   xmlns:sodipodi="http://sodipodi.sourceforge.net/DTD/sodipodi-0.dtd"
   xmlns="http://www.w3.org/2000/svg"
   xmlns:svg="http://www.w3.org/2000/svg">
  <sodipodi:namedview
     id="namedview7"
     pagecolor="#ffffff"
     bordercolor="#666666"
     borderopacity="1.0"
     inkscape:showpageshadow="2"
     inkscape:pageopacity="0.0"
     inkscape:pagecheckerboard="0"
     inkscape:deskcolor="#d1d1d1"
     inkscape:document-units="mm"
     showgrid="false"
     inkscape:zoom="1.9951192"
     inkscape:cx="156.88286"
     inkscape:cy="26.314218"
     inkscape:window-width="1898"
     inkscape:window-height="1008"
     inkscape:window-x="0"
     inkscape:window-y="0"
     inkscape:window-maximized="1"
     inkscape:current-layer="layer1" />
  <defs
     id="defs2" />
  <g
     inkscape:label="Layer 1"
     inkscape:groupmode="layer"
     id="layer1"
     transform="translate(-22.717711,-39.949462)">
    <path
       id="rect8286"
       style="fill:#ffffff;fill-opacity:0.398449;stroke:#000000;stroke-width:0.964999;stroke-linecap:round"
       d="m 26.200211,40.431961 h 60.200035 c 1.662,0 3,1.338 3,3 v 5.739519 c 0,1.662 -1.338,3 -3,3 H 26.200211 c -1.662,0 -3,-1.338 -3,-3 v -5.739519 c 0,-1.662 1.338,-3 3,-3 z" />
    <g
       aria-label="Replay Attack"
       id="text8673"
       style="font-size:7.76111px;line-height:1.25;stroke-width:0.264583"
       transform="translate(-51.058833,17.954062)">
      <path
         d="m 84.750944,24.824116 q 1.032228,0 1.521178,0.395816 0.496711,0.388056 0.496711,1.179689 0,0.442384 -0.162983,0.737306 -0.162984,0.294922 -0.4191,0.473428 -0.248356,0.170744 -0.527756,0.271638 l 1.521178,2.483556 h -0.814917 l -1.342672,-2.289528 h -1.102078 v 2.289528 h -0.6985 v -5.541433 z m -0.03881,0.605366 h -0.791633 v 2.056695 h 0.830439 q 0.675217,0 0.985661,-0.263878 0.310445,-0.271639 0.310445,-0.791633 0,-0.543278 -0.325967,-0.76835 -0.325967,-0.232834 -1.008945,-0.232834 z"
         id="path10133" />
      <path
         d="m 89.562831,26.127982 q 0.535517,0 0.915811,0.232834 0.388056,0.232833 0.589845,0.659694 0.20955,0.4191 0.20955,0.985661 v 0.411339 h -2.848328 q 0.01552,0.706261 0.357011,1.078795 0.34925,0.364772 0.970139,0.364772 0.395816,0 0.6985,-0.06985 0.310444,-0.07761 0.636411,-0.217311 v 0.597605 q -0.318206,0.1397 -0.62865,0.201789 -0.310445,0.06985 -0.737306,0.06985 -0.589844,0 -1.04775,-0.240594 -0.450144,-0.240595 -0.706261,-0.714022 -0.248355,-0.481189 -0.248355,-1.171928 0,-0.682978 0.225072,-1.171928 0.232833,-0.48895 0.644172,-0.752828 0.4191,-0.263878 0.970139,-0.263878 z m -0.0078,0.5588 q -0.48895,0 -0.776111,0.318206 -0.2794,0.310444 -0.333728,0.869244 h 2.118783 q -0.0078,-0.527755 -0.248355,-0.853722 -0.240595,-0.333728 -0.760589,-0.333728 z"
         id="path10135" />
      <path
         d="m 94.312625,26.127982 q 0.76835,0 1.234017,0.535517 0.473428,0.535517 0.473428,1.614311 0,1.063272 -0.473428,1.614311 -0.465667,0.551039 -1.241778,0.551039 -0.481189,0 -0.799395,-0.178505 -0.310444,-0.186267 -0.48895,-0.426861 h -0.04657 q 0.01552,0.131938 0.03104,0.333727 0.01552,0.201789 0.01552,0.34925 v 1.707445 h -0.682977 v -6.022623 h 0.5588 l 0.09313,0.566562 h 0.03104 q 0.186267,-0.271639 0.48895,-0.457906 0.302684,-0.186267 0.807156,-0.186267 z m -0.124178,0.574323 q -0.636411,0 -0.900289,0.357011 -0.256116,0.357011 -0.271639,1.086555 v 0.131939 q 0,0.76835 0.248356,1.18745 0.256117,0.411339 0.939094,0.411339 0.380295,0 0.620889,-0.20955 0.248356,-0.20955 0.364773,-0.566561 0.124177,-0.364772 0.124177,-0.830439 0,-0.714022 -0.2794,-1.140883 -0.271639,-0.426861 -0.845961,-0.426861 z"
         id="path10137" />
      <path
         d="M 97.7896,30.365549 H 97.106622 V 24.467105 H 97.7896 Z"
         id="path10139" />
      <path
         d="m 100.68449,26.135743 q 0.76059,0 1.12536,0.333728 0.36477,0.333728 0.36477,1.063272 v 2.832806 h -0.49671 l -0.13194,-0.589844 h -0.031 q -0.27164,0.341489 -0.57432,0.504472 -0.29492,0.162983 -0.82268,0.162983 -0.566561,0 -0.939094,-0.294922 -0.372534,-0.302683 -0.372534,-0.939094 0,-0.620889 0.48895,-0.954617 0.48895,-0.341489 1.505658,-0.372534 l 0.70626,-0.02328 v -0.248355 q 0,-0.519995 -0.22507,-0.721784 -0.22508,-0.201789 -0.63641,-0.201789 -0.32597,0 -0.62089,0.100895 -0.294925,0.09313 -0.551042,0.217311 l -0.20955,-0.512233 q 0.271639,-0.147462 0.644172,-0.248356 0.37253,-0.108656 0.77611,-0.108656 z m 0.20179,2.219678 q -0.77611,0.03104 -1.078794,0.248356 -0.294923,0.217311 -0.294923,0.613128 0,0.34925 0.20955,0.512233 0.217312,0.162983 0.551037,0.162983 0.52776,0 0.87701,-0.287161 0.34925,-0.294922 0.34925,-0.900289 v -0.372533 z"
         id="path10141" />
      <path
         d="m 102.81104,26.205593 h 0.72955 l 0.90028,2.367139 q 0.11642,0.310445 0.20955,0.597606 0.0931,0.2794 0.1397,0.535517 h 0.031 q 0.0466,-0.194028 0.14746,-0.504473 0.10089,-0.318205 0.20955,-0.636411 l 0.84596,-2.359378 h 0.73731 l -1.79282,4.734278 q -0.21731,0.589845 -0.56656,0.939095 -0.34149,0.34925 -0.94686,0.34925 -0.18626,0 -0.32596,-0.02328 -0.1397,-0.01552 -0.2406,-0.0388 v -0.543278 q 0.0854,0.01552 0.20179,0.03105 0.12418,0.01552 0.25612,0.01552 0.35701,0 0.57432,-0.201789 0.22507,-0.201789 0.34925,-0.535517 l 0.21731,-0.551039 z"
         id="path10143" />
      <path
         d="m 113.00914,30.365549 -0.66745,-1.715206 h -2.1964 l -0.65969,1.715206 h -0.70626 l 2.16535,-5.564717 h 0.62865 l 2.15759,5.564717 z m -1.49789,-4.012494 q -0.0233,-0.06209 -0.0776,-0.225073 -0.0543,-0.162983 -0.10866,-0.333727 -0.0466,-0.178506 -0.0776,-0.271639 -0.0543,0.240594 -0.12418,0.473427 -0.0698,0.225073 -0.11641,0.357012 l -0.62865,1.6764 h 1.75401 z"
         id="path10145" />
      <path
         d="m 115.78762,29.88436 q 0.15523,0 0.31821,-0.02328 0.16298,-0.03105 0.26388,-0.06209 v 0.519994 q -0.10866,0.05433 -0.31045,0.08537 -0.20179,0.0388 -0.38805,0.0388 -0.32597,0 -0.60537,-0.108655 -0.27164,-0.116417 -0.44238,-0.395817 -0.17075,-0.2794 -0.17075,-0.783872 v -2.421467 h -0.58984 v -0.325967 l 0.5976,-0.271639 0.27164,-0.884766 h 0.40358 v 0.954616 h 1.20297 v 0.527756 h -1.20297 v 2.405945 q 0,0.380294 0.17851,0.566561 0.18626,0.178505 0.47342,0.178505 z"
         id="path10147" />
      <path
         d="m 118.58938,29.88436 q 0.15523,0 0.31821,-0.02328 0.16298,-0.03105 0.26388,-0.06209 v 0.519994 q -0.10866,0.05433 -0.31045,0.08537 -0.20179,0.0388 -0.38805,0.0388 -0.32597,0 -0.60537,-0.108655 -0.27164,-0.116417 -0.44238,-0.395817 -0.17075,-0.2794 -0.17075,-0.783872 v -2.421467 h -0.58984 v -0.325967 l 0.5976,-0.271639 0.27164,-0.884766 h 0.40358 v 0.954616 h 1.20297 v 0.527756 h -1.20297 v 2.405945 q 0,0.380294 0.17851,0.566561 0.18626,0.178505 0.47342,0.178505 z"
         id="path10149" />
      <path
         d="m 121.57741,26.135743 q 0.76059,0 1.12536,0.333728 0.36478,0.333728 0.36478,1.063272 v 2.832806 h -0.49672 l -0.13193,-0.589844 h -0.0311 q -0.27164,0.341489 -0.57432,0.504472 -0.29492,0.162983 -0.82268,0.162983 -0.56656,0 -0.93909,-0.294922 -0.37254,-0.302683 -0.37254,-0.939094 0,-0.620889 0.48895,-0.954617 0.48895,-0.341489 1.50566,-0.372534 l 0.70626,-0.02328 v -0.248355 q 0,-0.519995 -0.22507,-0.721784 -0.22507,-0.201789 -0.63641,-0.201789 -0.32597,0 -0.62089,0.100895 -0.29492,0.09313 -0.55104,0.217311 l -0.20955,-0.512233 q 0.27164,-0.147462 0.64417,-0.248356 0.37253,-0.108656 0.77611,-0.108656 z m 0.20179,2.219678 q -0.77611,0.03104 -1.07879,0.248356 -0.29493,0.217311 -0.29493,0.613128 0,0.34925 0.20955,0.512233 0.21732,0.162983 0.55104,0.162983 0.52776,0 0.87701,-0.287161 0.34925,-0.294922 0.34925,-0.900289 v -0.372533 z"
         id="path10151" />
      <path
         d="m 126.02453,30.44316 q -0.55103,0 -0.98566,-0.225072 -0.42686,-0.225072 -0.67521,-0.6985 -0.2406,-0.473428 -0.2406,-1.210733 0,-0.76835 0.25612,-1.249539 0.25612,-0.481189 0.69074,-0.706261 0.44238,-0.225073 1.00118,-0.225073 0.31821,0 0.61313,0.06985 0.29492,0.06209 0.48119,0.155223 l -0.20955,0.566561 q -0.18627,-0.06985 -0.43462,-0.131939 -0.24836,-0.06209 -0.46567,-0.06209 -1.22626,0 -1.22626,1.575505 0,0.752828 0.29493,1.156406 0.30268,0.395817 0.89252,0.395817 0.34149,0 0.59761,-0.06985 0.26388,-0.06985 0.48119,-0.170745 v 0.605367 q -0.20955,0.108656 -0.46567,0.162983 -0.24835,0.06209 -0.60537,0.06209 z"
         id="path10153" />
      <path
         d="m 128.75644,27.548266 q 0,0.124177 -0.0155,0.325966 -0.008,0.201789 -0.0155,0.34925 h 0.031 q 0.0466,-0.06209 0.1397,-0.178505 0.0931,-0.116417 0.18627,-0.232834 0.10089,-0.124177 0.17074,-0.201788 l 1.32715,-1.404762 h 0.7994 l -1.68416,1.777295 1.80058,2.382661 h -0.82268 l -1.44357,-1.940278 -0.47343,0.411339 v 1.528939 h -0.67521 v -5.898444 h 0.67521 z"
         id="path10155" />
    </g>
  </g>
</svg>
