<?xml version="1.0" encoding="UTF-8" standalone="no"?>
<!-- Created with Inkscape (http://www.inkscape.org/) -->

<svg
   width="67.165031mm"
   height="12.704519mm"
   viewBox="0 0 67.165031 12.704519"
   version="1.1"
   id="svg5"
   sodipodi:docname="reverse_steering_attack_button.svg"
   inkscape:version="1.2.2 (b0a8486541, 2022-12-01)"
   inkscape:export-filename="brake_attack_button.svg"
   inkscape:export-xdpi="96"
   inkscape:export-ydpi="96"
   xmlns:inkscape="http://www.inkscape.org/namespaces/inkscape"
   xmlns:sodipodi="http://sodipodi.sourceforge.net/DTD/sodipodi-0.dtd"
   xmlns="http://www.w3.org/2000/svg"
   xmlns:svg="http://www.w3.org/2000/svg">
  <sodipodi:namedview
     id="namedview7"
     pagecolor="#ffffff"
     bordercolor="#666666"
     borderopacity="1.0"
     inkscape:showpageshadow="2"
     inkscape:pageopacity="0.0"
     inkscape:pagecheckerboard="0"
     inkscape:deskcolor="#d1d1d1"
     inkscape:document-units="mm"
     showgrid="false"
     inkscape:zoom="1.9951192"
     inkscape:cx="156.88286"
     inkscape:cy="26.314218"
     inkscape:window-width="1898"
     inkscape:window-height="1008"
     inkscape:window-x="0"
     inkscape:window-y="0"
     inkscape:window-maximized="1"
     inkscape:current-layer="layer1" />
  <defs
     id="defs2" />
  <g
     inkscape:label="Layer 1"
     inkscape:groupmode="layer"
     id="layer1"
     transform="translate(-22.717711,-39.949462)">
    <path
       id="rect8286"
       style="fill:#ffffff;fill-opacity:0.398449;stroke:#000000;stroke-width:0.964999;stroke-linecap:round"
       d="m 26.200211,40.431961 h 60.200035 c 1.662,0 3,1.338 3,3 v 5.739519 c 0,1.662 -1.338,3 -3,3 H 26.200211 c -1.662,0 -3,-1.338 -3,-3 v -5.739519 c 0,-1.662 1.338,-3 3,-3 z" />
    <g
       aria-label="Reverse Steering"
       id="text8290"
       style="font-size:7.76111px;line-height:1.25;stroke-width:0.264583">
      <path
         d="m 27.894588,42.688926 q 1.032227,0 1.521177,0.395816 0.496711,0.388056 0.496711,1.179689 0,0.442383 -0.162983,0.737305 -0.162983,0.294923 -0.4191,0.473428 -0.248355,0.170745 -0.527755,0.271639 l 1.521177,2.483555 h -0.814916 l -1.342672,-2.289527 h -1.102078 v 2.289527 h -0.6985 v -5.541432 z m -0.03881,0.605366 h -0.791633 v 2.056694 h 0.830439 q 0.675216,0 0.985661,-0.263877 0.310444,-0.271639 0.310444,-0.791634 0,-0.543277 -0.325966,-0.768349 -0.325967,-0.232834 -1.008945,-0.232834 z"
         id="path10250" />
      <path
         d="m 32.706474,43.992792 q 0.535517,0 0.915811,0.232833 0.388055,0.232834 0.589844,0.659695 0.20955,0.4191 0.20955,0.985661 v 0.411339 h -2.848327 q 0.01552,0.706261 0.357011,1.078794 0.34925,0.364772 0.970139,0.364772 0.395816,0 0.6985,-0.06985 0.310444,-0.07761 0.636411,-0.217311 v 0.597605 q -0.318206,0.1397 -0.62865,0.201789 -0.310445,0.06985 -0.737306,0.06985 -0.589844,0 -1.04775,-0.240594 -0.450144,-0.240595 -0.706261,-0.714022 -0.248355,-0.481189 -0.248355,-1.171928 0,-0.682978 0.225072,-1.171927 0.232833,-0.48895 0.644172,-0.752828 0.4191,-0.263878 0.970139,-0.263878 z m -0.0078,0.5588 q -0.48895,0 -0.776111,0.318206 -0.2794,0.310444 -0.333728,0.869244 h 2.118783 q -0.0078,-0.527756 -0.248355,-0.853722 -0.240595,-0.333728 -0.760589,-0.333728 z"
         id="path10252" />
      <path
         d="m 36.237769,48.230358 -1.575505,-4.159955 h 0.729544 l 0.884767,2.452511 q 0.06209,0.170744 0.131939,0.380294 0.06985,0.20955 0.124177,0.403578 0.05433,0.186267 0.07761,0.318206 h 0.03105 q 0.03104,-0.131939 0.08537,-0.325967 0.06209,-0.194028 0.131939,-0.403578 0.07761,-0.20955 0.131939,-0.372533 l 0.884766,-2.452511 h 0.729545 l -1.583267,4.159955 z"
         id="path10254" />
      <path
         d="m 40.871147,43.992792 q 0.535517,0 0.915811,0.232833 0.388056,0.232834 0.589845,0.659695 0.20955,0.4191 0.20955,0.985661 v 0.411339 h -2.848328 q 0.01552,0.706261 0.357011,1.078794 0.34925,0.364772 0.970139,0.364772 0.395817,0 0.6985,-0.06985 0.310444,-0.07761 0.636411,-0.217311 v 0.597605 q -0.318206,0.1397 -0.62865,0.201789 -0.310444,0.06985 -0.737305,0.06985 -0.589845,0 -1.04775,-0.240594 -0.450145,-0.240595 -0.706261,-0.714022 -0.248356,-0.481189 -0.248356,-1.171928 0,-0.682978 0.225072,-1.171927 0.232834,-0.48895 0.644173,-0.752828 0.419099,-0.263878 0.970138,-0.263878 z m -0.0078,0.5588 q -0.48895,0 -0.776111,0.318206 -0.2794,0.310444 -0.333728,0.869244 h 2.118783 q -0.0078,-0.527756 -0.248355,-0.853722 -0.240594,-0.333728 -0.760589,-0.333728 z"
         id="path10256" />
      <path
         d="m 45.582134,43.992792 q 0.116417,0 0.248356,0.01552 0.1397,0.0078 0.240594,0.03104 l -0.08537,0.62865 q -0.100894,-0.02328 -0.225072,-0.03881 -0.116417,-0.01552 -0.225072,-0.01552 -0.318206,0 -0.597606,0.178505 -0.2794,0.170745 -0.450144,0.48895 -0.162984,0.310445 -0.162984,0.729545 v 2.219677 h -0.682977 v -4.159955 h 0.5588 l 0.07761,0.760589 h 0.03104 q 0.201789,-0.341489 0.519995,-0.589844 0.318205,-0.248356 0.752827,-0.248356 z"
         id="path10258" />
      <path
         d="m 49.555824,47.081714 q 0,0.605366 -0.450145,0.915811 -0.450144,0.310444 -1.210733,0.310444 -0.434622,0 -0.752828,-0.06985 -0.310444,-0.06985 -0.551038,-0.194028 v -0.620888 q 0.248355,0.124177 0.597605,0.232833 0.357011,0.100894 0.721783,0.100894 0.519995,0 0.752828,-0.162983 0.232833,-0.170744 0.232833,-0.450144 0,-0.155222 -0.08537,-0.2794 -0.08537,-0.124178 -0.310444,-0.248356 -0.217311,-0.124177 -0.62865,-0.2794 -0.403578,-0.155222 -0.690739,-0.310444 -0.287161,-0.155222 -0.442383,-0.372533 -0.155222,-0.217311 -0.155222,-0.5588 0,-0.527756 0.426861,-0.814917 0.434622,-0.287161 1.133122,-0.287161 0.380294,0 0.706261,0.07761 0.333727,0.06985 0.620888,0.201789 l -0.232833,0.543278 q -0.263878,-0.108656 -0.551039,-0.186267 -0.287161,-0.07761 -0.589844,-0.07761 -0.4191,0 -0.644172,0.1397 -0.217311,0.131939 -0.217311,0.364772 0,0.170745 0.100894,0.294922 0.100895,0.116417 0.333728,0.232834 0.240594,0.108655 0.636411,0.263877 0.395816,0.147461 0.675216,0.302684 0.2794,0.155222 0.426861,0.380294 0.147462,0.217311 0.147462,0.551039 z"
         id="path10260" />
      <path
         d="m 52.171319,43.992792 q 0.535517,0 0.915811,0.232833 0.388056,0.232834 0.589844,0.659695 0.20955,0.4191 0.20955,0.985661 v 0.411339 h -2.848327 q 0.01552,0.706261 0.357011,1.078794 0.34925,0.364772 0.970139,0.364772 0.395816,0 0.6985,-0.06985 0.310444,-0.07761 0.636411,-0.217311 v 0.597605 q -0.318206,0.1397 -0.62865,0.201789 -0.310445,0.06985 -0.737306,0.06985 -0.589844,0 -1.047749,-0.240594 -0.450145,-0.240595 -0.706261,-0.714022 -0.248356,-0.481189 -0.248356,-1.171928 0,-0.682978 0.225072,-1.171927 0.232834,-0.48895 0.644172,-0.752828 0.4191,-0.263878 0.970139,-0.263878 z m -0.0078,0.5588 q -0.48895,0 -0.776111,0.318206 -0.2794,0.310444 -0.333728,0.869244 h 2.118783 q -0.0078,-0.527756 -0.248355,-0.853722 -0.240595,-0.333728 -0.760589,-0.333728 z"
         id="path10262" />
      <path
         d="m 60.196301,46.747986 q 0,0.737306 -0.535516,1.148644 -0.535517,0.411339 -1.443567,0.411339 -0.465666,0 -0.861483,-0.06985 -0.395816,-0.06985 -0.659694,-0.194028 v -0.667455 q 0.2794,0.124178 0.690739,0.225072 0.4191,0.100895 0.861483,0.100895 0.620889,0 0.931333,-0.240595 0.318206,-0.240594 0.318206,-0.651933 0,-0.271639 -0.116417,-0.457905 -0.116417,-0.186267 -0.403578,-0.341489 -0.2794,-0.162984 -0.783872,-0.341489 -0.706261,-0.256117 -1.071033,-0.62865 -0.357011,-0.372533 -0.357011,-1.016705 0,-0.442384 0.225072,-0.752828 0.225072,-0.318206 0.620889,-0.48895 0.403578,-0.170744 0.923572,-0.170744 0.457905,0 0.8382,0.08537 0.380294,0.08537 0.690739,0.225072 l -0.217312,0.597605 q -0.287161,-0.124177 -0.628649,-0.20955 -0.333728,-0.08537 -0.6985,-0.08537 -0.519995,0 -0.783872,0.225072 -0.263878,0.217312 -0.263878,0.582084 0,0.2794 0.116417,0.465666 0.116416,0.186267 0.380294,0.333728 0.263878,0.147461 0.714022,0.318206 0.48895,0.178505 0.822678,0.388055 0.341488,0.201789 0.512233,0.48895 0.178505,0.287161 0.178505,0.721783 z"
         id="path10264" />
      <path
         d="m 62.610004,47.749169 q 0.155223,0 0.318206,-0.02328 0.162983,-0.03104 0.263878,-0.06209 v 0.519994 q -0.108656,0.05433 -0.310445,0.08537 -0.201789,0.0388 -0.388055,0.0388 -0.325967,0 -0.605367,-0.108655 -0.271639,-0.116417 -0.442383,-0.395817 -0.170744,-0.2794 -0.170744,-0.783872 v -2.421466 h -0.589845 v -0.325967 l 0.597606,-0.271639 0.271638,-0.884766 h 0.403578 v 0.954616 h 1.202972 v 0.527756 h -1.202972 v 2.405944 q 0,0.380294 0.178506,0.566561 0.186266,0.178505 0.473427,0.178505 z"
         id="path10266" />
      <path
         d="m 65.629077,43.992792 q 0.535517,0 0.915811,0.232833 0.388056,0.232834 0.589844,0.659695 0.20955,0.4191 0.20955,0.985661 v 0.411339 h -2.848327 q 0.01552,0.706261 0.357011,1.078794 0.34925,0.364772 0.970139,0.364772 0.395816,0 0.6985,-0.06985 0.310444,-0.07761 0.636411,-0.217311 v 0.597605 q -0.318206,0.1397 -0.62865,0.201789 -0.310445,0.06985 -0.737306,0.06985 -0.589844,0 -1.047749,-0.240594 -0.450145,-0.240595 -0.706261,-0.714022 -0.248356,-0.481189 -0.248356,-1.171928 0,-0.682978 0.225072,-1.171927 0.232834,-0.48895 0.644172,-0.752828 0.4191,-0.263878 0.970139,-0.263878 z m -0.0078,0.5588 q -0.48895,0 -0.776111,0.318206 -0.2794,0.310444 -0.333728,0.869244 h 2.118783 q -0.0078,-0.527756 -0.248355,-0.853722 -0.240595,-0.333728 -0.760589,-0.333728 z"
         id="path10268" />
      <path
         d="m 70.006335,43.992792 q 0.535517,0 0.915811,0.232833 0.388056,0.232834 0.589845,0.659695 0.20955,0.4191 0.20955,0.985661 v 0.411339 h -2.848328 q 0.01552,0.706261 0.357011,1.078794 0.34925,0.364772 0.970139,0.364772 0.395817,0 0.6985,-0.06985 0.310444,-0.07761 0.636411,-0.217311 v 0.597605 q -0.318205,0.1397 -0.62865,0.201789 -0.310444,0.06985 -0.737305,0.06985 -0.589845,0 -1.04775,-0.240594 -0.450144,-0.240595 -0.706261,-0.714022 -0.248356,-0.481189 -0.248356,-1.171928 0,-0.682978 0.225073,-1.171927 0.232833,-0.48895 0.644172,-0.752828 0.4191,-0.263878 0.970138,-0.263878 z m -0.0078,0.5588 q -0.48895,0 -0.776111,0.318206 -0.2794,0.310444 -0.333727,0.869244 H 71.00748 Q 70.99968,45.211286 70.759124,44.88532 70.51853,44.551592 69.998535,44.551592 Z"
         id="path10270" />
      <path
         d="m 74.717325,43.992792 q 0.116417,0 0.248356,0.01552 0.1397,0.0078 0.240594,0.03104 l -0.08537,0.62865 q -0.100894,-0.02328 -0.225072,-0.03881 -0.116417,-0.01552 -0.225072,-0.01552 -0.318206,0 -0.597606,0.178505 -0.2794,0.170745 -0.450144,0.48895 -0.162984,0.310445 -0.162984,0.729545 v 2.219677 H 72.77705 v -4.159955 h 0.5588 l 0.07761,0.760589 h 0.03104 q 0.201789,-0.341489 0.519995,-0.589844 0.318205,-0.248356 0.752827,-0.248356 z"
         id="path10272" />
      <path
         d="m 76.331635,42.51042 q 0.155222,0 0.271639,0.108656 0.124178,0.100894 0.124178,0.325966 0,0.217311 -0.124178,0.325967 -0.116417,0.108655 -0.271639,0.108655 -0.170744,0 -0.287161,-0.108655 -0.116416,-0.108656 -0.116416,-0.325967 0,-0.225072 0.116416,-0.325966 0.116417,-0.108656 0.287161,-0.108656 z m 0.333728,1.559983 v 4.159955 h -0.682978 v -4.159955 z"
         id="path10274" />
      <path
         d="m 79.987113,43.992792 q 0.745066,0 1.125361,0.364772 0.380294,0.357011 0.380294,1.164167 v 2.708627 h -0.675216 v -2.662061 q 0,-1.001183 -0.931333,-1.001183 -0.690739,0 -0.954617,0.388056 -0.263878,0.388055 -0.263878,1.1176 v 2.157588 h -0.682977 v -4.159955 h 0.551038 l 0.100895,0.566561 h 0.0388 q 0.201789,-0.325966 0.5588,-0.481189 0.357011,-0.162983 0.752828,-0.162983 z"
         id="path10276" />
      <path
         d="m 84.255725,43.992792 q 0.411339,0 0.737306,0.155222 0.333727,0.155223 0.566561,0.473428 h 0.03881 l 0.09313,-0.551039 h 0.543278 v 4.229805 q 0,0.892528 -0.457905,1.342672 -0.450145,0.450144 -1.404761,0.450144 -0.915811,0 -1.497894,-0.263877 v -0.62865 q 0.613127,0.325966 1.536699,0.325966 0.535517,0 0.8382,-0.318205 0.310445,-0.310444 0.310445,-0.853722 v -0.162983 q 0,-0.09313 0.0078,-0.263878 0.0078,-0.178506 0.01552,-0.248356 h -0.03105 q -0.419099,0.62865 -1.288344,0.62865 -0.807155,0 -1.265061,-0.566561 -0.450144,-0.566561 -0.450144,-1.583266 0,-0.993422 0.450144,-1.575505 0.457906,-0.589845 1.2573,-0.589845 z m 0.09313,0.574322 q -0.519994,0 -0.807155,0.4191 -0.287161,0.411339 -0.287161,1.179689 0,0.76835 0.2794,1.179689 0.287161,0.403577 0.830439,0.403577 0.62865,0 0.915811,-0.333727 0.287161,-0.341489 0.287161,-1.094317 v -0.162983 q 0,-0.853722 -0.294923,-1.218494 -0.294922,-0.372534 -0.923572,-0.372534 z"
         id="path10278" />
    </g>
  </g>
</svg>
