<?xml version="1.0" encoding="UTF-8" standalone="no"?>
<!-- Created with Inkscape (http://www.inkscape.org/) -->

<svg
   width="25mm"
   height="27mm"
   viewBox="0 0 25 27.000001"
   version="1.1"
   id="svg5"
   xml:space="preserve"
   sodipodi:docname="right_door_closed_window_closed.svg"
   inkscape:export-filename="right_door_open_window_open.svg"
   inkscape:export-xdpi="96"
   inkscape:export-ydpi="96"
   xmlns:inkscape="http://www.inkscape.org/namespaces/inkscape"
   xmlns:sodipodi="http://sodipodi.sourceforge.net/DTD/sodipodi-0.dtd"
   xmlns="http://www.w3.org/2000/svg"
   xmlns:svg="http://www.w3.org/2000/svg"><sodipodi:namedview
     id="namedview7"
     pagecolor="#ffffff"
     bordercolor="#000000"
     borderopacity="0.25"
     inkscape:showpageshadow="2"
     inkscape:pageopacity="0.0"
     inkscape:pagecheckerboard="0"
     inkscape:deskcolor="#d1d1d1"
     inkscape:document-units="mm"
     showgrid="false" /><defs
     id="defs2" /><g
     inkscape:label="Layer 1"
     inkscape:groupmode="layer"
     id="layer1"
     transform="translate(-108.6378,-211.54361)"><g
       id="g9574"
       transform="rotate(0.49061357,-1021.0336,4238.5744)"
       inkscape:transform-center-x="3.0105829"
       inkscape:transform-center-y="12.742617"><path
         id="path21323"
         style="fill:none;fill-opacity:0.350034;stroke:#000000;stroke-width:0.532;stroke-linecap:butt;stroke-linejoin:miter;stroke-dasharray:none;stroke-opacity:1"
         inkscape:transform-center-x="-6.3577073"
         inkscape:transform-center-y="12.804462"
         d="m 93.00649,224.42771 1.476259,-0.71355 c 0,0 -0.250628,-0.4088 -0.662302,-1.07433 -0.205834,-0.33275 -0.452133,-0.72961 -0.727307,-1.17139 -0.27518,-0.44179 -0.57919,-0.92852 -0.901312,-1.44109 -0.322129,-0.51257 -0.662029,-1.05116 -1.008715,-1.59628 -0.173343,-0.27257 -0.348564,-0.54672 -0.523854,-0.82026 -0.17528,-0.27353 -0.350898,-0.54663 -0.525335,-0.81636 -0.174429,-0.26972 -0.347605,-0.53618 -0.518393,-0.79731 -0.170773,-0.26114 -0.339275,-0.5169 -0.503597,-0.76466 -0.164329,-0.24776 -0.324593,-0.48717 -0.479668,-0.71678 -0.155074,-0.22961 -0.304783,-0.44934 -0.447813,-0.65601 -0.07155,-0.10331 -0.145256,-0.20802 -0.220658,-0.31428 -0.07538,-0.1063 -0.152678,-0.2139 -0.231592,-0.3227 -0.07892,-0.10879 -0.15951,-0.21898 -0.241524,-0.32992 -0.08197,-0.11097 -0.165437,-0.22286 -0.250153,-0.33554 -0.169415,-0.22537 -0.343554,-0.45386 -0.521448,-0.6838 -0.177872,-0.22996 -0.359443,-0.46116 -0.542631,-0.69248 -0.183209,-0.23132 -0.368391,-0.46253 -0.55367,-0.69212 -0.185322,-0.22953 -0.370701,-0.45775 -0.555015,-0.68232 -0.184308,-0.22456 -0.367363,-0.44533 -0.547477,-0.66175 -0.180075,-0.21645 -0.357344,-0.42815 -0.530083,-0.63324 -0.172731,-0.20512 -0.340813,-0.40402 -0.503041,-0.59461 -0.162189,-0.19062 -0.318516,-0.37301 -0.46706,-0.54591 -0.297079,-0.34581 -0.563859,-0.65291 -0.787216,-0.90889 -0.223364,-0.25598 -0.403,-0.46069 -0.52734,-0.6014 -0.124341,-0.1407 -0.193106,-0.21721 -0.193106,-0.21721 l 0.165493,0.66318 2.84266,10.82611 3.226907,3.95528 3.472155,4.1912 z" /><path
         id="path21321"
         style="fill:#ffffff;fill-opacity:0.151721;stroke:#000000;stroke-width:0.532;stroke-linecap:butt;stroke-linejoin:miter;stroke-dasharray:none;stroke-opacity:1"
         inkscape:transform-center-x="-8.1887148"
         inkscape:transform-center-y="10.70224"
         d="m 81.544137,202.72403 c -0.253426,0.21094 -0.455067,0.47699 -0.601507,0.78287 l 0.735286,2.79981 -0.165494,-0.66318 c 0,0 0.0688,0.0765 0.193107,0.21721 0.124347,0.14071 0.303976,0.34543 0.527339,0.60141 0.223358,0.25597 0.490138,0.56307 0.787217,0.90888 0.148536,0.17291 0.304832,0.35532 0.46706,0.54592 0.162189,0.19062 0.330287,0.3895 0.50304,0.5946 0.172724,0.20511 0.349985,0.41681 0.530084,0.63324 0.180075,0.21645 0.363208,0.43716 0.547476,0.66176 0.184314,0.22456 0.369665,0.4528 0.555016,0.68231 0.185329,0.22955 0.370461,0.4608 0.55367,0.69212 0.183203,0.23131 0.364697,0.46258 0.54263,0.69248 0.177872,0.22996 0.352018,0.45844 0.521449,0.6838 0.08475,0.11266 0.168147,0.2246 0.250153,0.33555 0.08197,0.11097 0.162624,0.22111 0.241524,0.32991 0.07893,0.10879 0.156183,0.21643 0.231591,0.3227 0.07537,0.10629 0.149147,0.21094 0.220658,0.31428 0.143023,0.20668 0.292739,0.4264 0.447814,0.65601 0.155075,0.22961 0.315338,0.46902 0.479667,0.71679 0.164323,0.24775 0.332825,0.50352 0.503598,0.76465 0.17078,0.26114 0.343956,0.5276 0.518393,0.79731 0.174434,0.26973 0.350052,0.54284 0.525335,0.81636 0.175287,0.27354 0.350507,0.5477 0.523853,0.82026 0.346686,0.54512 0.686586,1.08371 1.008715,1.59629 0.322123,0.51257 0.626132,0.99929 0.901313,1.44108 0.275174,0.44179 0.521471,0.83864 0.727307,1.1714 0.411675,0.66552 0.662302,1.07433 0.662302,1.07433 l -1.476259,0.71355 5.672844,-2.70294 -16.227162,-19.45761 c -0.350727,0.0884 -0.654904,0.24555 -0.908035,0.45686 z" /></g></g></svg>
