<?xml version="1.0" encoding="UTF-8" standalone="no"?>
<!-- Created with Inkscape (http://www.inkscape.org/) -->

<svg
   width="25mm"
   height="27mm"
   viewBox="0 0 25 27.000001"
   version="1.1"
   id="svg5"
   xml:space="preserve"
   sodipodi:docname="right_door_closed_window_closed.svg"
   inkscape:export-filename="right_door_closed_window_closed.svg"
   inkscape:export-xdpi="96"
   inkscape:export-ydpi="96"
   xmlns:inkscape="http://www.inkscape.org/namespaces/inkscape"
   xmlns:sodipodi="http://sodipodi.sourceforge.net/DTD/sodipodi-0.dtd"
   xmlns="http://www.w3.org/2000/svg"
   xmlns:svg="http://www.w3.org/2000/svg"><sodipodi:namedview
     id="namedview7"
     pagecolor="#ffffff"
     bordercolor="#000000"
     borderopacity="0.25"
     inkscape:showpageshadow="2"
     inkscape:pageopacity="0.0"
     inkscape:pagecheckerboard="0"
     inkscape:deskcolor="#d1d1d1"
     inkscape:document-units="mm"
     showgrid="false" /><defs
     id="defs2" /><g
     inkscape:label="Layer 1"
     inkscape:groupmode="layer"
     id="layer1"
     transform="translate(-108.6378,-211.54361)"><g
       id="g9574"
       transform="rotate(0.49061357,-1021.0336,4238.5744)"
       inkscape:transform-center-x="3.0105829"
       inkscape:transform-center-y="12.742617"><path
         id="path21323"
         style="fill:none;stroke:#000000;stroke-width:0.532;stroke-linecap:butt;stroke-linejoin:miter;stroke-dasharray:none;stroke-opacity:1"
         inkscape:transform-center-x="2.9906763"
         inkscape:transform-center-y="12.752757"
         d="m 76.815705,226.81099 1.596944,0.37184 c 0,0 0.0617,-0.47553 0.159301,-1.25198 0.0488,-0.38822 0.106363,-0.85173 0.169673,-1.36834 0.06331,-0.51662 0.132403,-1.08631 0.203633,-1.68749 0.07123,-0.60119 0.144965,-1.23378 0.217524,-1.87572 0.03628,-0.32097 0.0721,-0.64436 0.107476,-0.96731 0.03538,-0.32294 0.07023,-0.64576 0.103877,-0.96521 0.03365,-0.31944 0.06623,-0.63556 0.09732,-0.94603 0.0311,-0.31046 0.0606,-0.61532 0.08832,-0.91132 0.02772,-0.29601 0.05336,-0.58297 0.07688,-0.85904 0.02352,-0.27607 0.04501,-0.54108 0.0635,-0.79174 0.0092,-0.12533 0.0176,-0.2531 0.02566,-0.38315 0.0081,-0.13006 0.01552,-0.26234 0.02244,-0.39657 0.0069,-0.13422 0.01339,-0.27058 0.01924,-0.40842 0.0059,-0.13784 0.01122,-0.27733 0.01606,-0.41822 0.0097,-0.28178 0.01768,-0.56895 0.02365,-0.85961 0.006,-0.29066 0.0099,-0.58461 0.01262,-0.87967 0.0027,-0.29507 0.0038,-0.5913 0.0038,-0.88632 -6.4e-5,-0.29501 -0.001,-0.58903 -0.0034,-0.87954 -0.0024,-0.2905 -0.0062,-0.57727 -0.01045,-0.8588 -0.0042,-0.28153 -0.0092,-0.5576 -0.01482,-0.82569 -0.0056,-0.2681 -0.01149,-0.52844 -0.01804,-0.77864 -0.0065,-0.2502 -0.01361,-0.49031 -0.02062,-0.71815 -0.01401,-0.45568 -0.02875,-0.86221 -0.04181,-1.20168 -0.01306,-0.33948 -0.02429,-0.6116 -0.03268,-0.79919 -0.0084,-0.18758 -0.01386,-0.29031 -0.01386,-0.29031 l -0.287706,0.62002 -4.586876,10.21009 0.02717,5.10455 0.06986,5.44216 z" /><path
         id="path21321"
         style="fill:none;stroke:#000000;stroke-width:0.532;stroke-linecap:butt;stroke-linejoin:miter;stroke-dasharray:none;stroke-opacity:1"
         inkscape:transform-center-x="2.9906763"
         inkscape:transform-center-y="12.752757"
         d="m 81.526112,202.72266 c -0.329694,0.005 -0.653691,0.0854 -0.959752,0.23147 l -1.186144,2.64058 0.287706,-0.62002 c 0,0 0.0055,0.10273 0.01386,0.29031 0.0084,0.18759 0.01962,0.45971 0.03268,0.79919 0.01306,0.33947 0.0278,0.746 0.04181,1.20168 0.007,0.22784 0.01407,0.46795 0.02062,0.71815 0.0065,0.2502 0.01241,0.51054 0.01804,0.77864 0.0056,0.26809 0.01059,0.54416 0.01482,0.82569 0.0042,0.28153 0.0081,0.5683 0.01045,0.8588 0.0024,0.29051 0.0033,0.58453 0.0034,0.87954 6.5e-5,0.29502 -0.0011,0.59125 -0.0038,0.88632 -0.0027,0.29506 -0.0067,0.58901 -0.01262,0.87967 -0.006,0.29066 -0.01397,0.57783 -0.02365,0.85961 -0.0048,0.14089 -0.0102,0.28038 -0.01606,0.41822 -0.0059,0.13784 -0.01231,0.2742 -0.01924,0.40842 -0.0069,0.13423 -0.01438,0.26651 -0.02244,0.39657 -0.0081,0.13005 -0.01641,0.25782 -0.02566,0.38315 -0.0185,0.25066 -0.03998,0.51567 -0.0635,0.79174 -0.02352,0.27607 -0.04916,0.56303 -0.07688,0.85904 -0.02772,0.296 -0.05722,0.60086 -0.08832,0.91132 -0.0311,0.31047 -0.06368,0.62659 -0.09732,0.94603 -0.03365,0.31945 -0.0685,0.64227 -0.103877,0.96521 -0.03538,0.32295 -0.0712,0.64634 -0.107476,0.96731 -0.07256,0.64194 -0.146294,1.27453 -0.217524,1.87572 -0.07123,0.60118 -0.140323,1.17087 -0.203633,1.68749 -0.06331,0.51661 -0.120875,0.98012 -0.169673,1.36834 -0.0976,0.77645 -0.159301,1.25198 -0.159301,1.25198 l -1.596944,-0.37184 6.112088,1.45925 -0.408135,-25.33284 c -0.328453,-0.15147 -0.663853,-0.22021 -0.993546,-0.21474 z" /></g></g></svg>
