<?xml version="1.0" encoding="UTF-8" standalone="no"?>
<!-- Created with Inkscape (http://www.inkscape.org/) -->

<svg
   width="67.165031mm"
   height="12.704519mm"
   viewBox="0 0 67.165031 12.704519"
   version="1.1"
   id="svg5"
   sodipodi:docname="reverse_steering_attack_button.svg"
   inkscape:version="1.2.2 (b0a8486541, 2022-12-01)"
   inkscape:export-filename="random_attack_button.svg"
   inkscape:export-xdpi="96"
   inkscape:export-ydpi="96"
   xmlns:inkscape="http://www.inkscape.org/namespaces/inkscape"
   xmlns:sodipodi="http://sodipodi.sourceforge.net/DTD/sodipodi-0.dtd"
   xmlns="http://www.w3.org/2000/svg"
   xmlns:svg="http://www.w3.org/2000/svg">
  <sodipodi:namedview
     id="namedview7"
     pagecolor="#ffffff"
     bordercolor="#666666"
     borderopacity="1.0"
     inkscape:showpageshadow="2"
     inkscape:pageopacity="0.0"
     inkscape:pagecheckerboard="0"
     inkscape:deskcolor="#d1d1d1"
     inkscape:document-units="mm"
     showgrid="false"
     inkscape:zoom="1.9951192"
     inkscape:cx="156.88286"
     inkscape:cy="26.314218"
     inkscape:window-width="1898"
     inkscape:window-height="1008"
     inkscape:window-x="0"
     inkscape:window-y="0"
     inkscape:window-maximized="1"
     inkscape:current-layer="layer1" />
  <defs
     id="defs2" />
  <g
     inkscape:label="Layer 1"
     inkscape:groupmode="layer"
     id="layer1"
     transform="translate(-22.717711,-39.949462)">
    <path
       id="rect8286"
       style="fill:#ffffff;fill-opacity:0.398449;stroke:#000000;stroke-width:0.964999;stroke-linecap:round"
       d="m 26.200211,40.431961 h 60.200035 c 1.662,0 3,1.338 3,3 v 5.739519 c 0,1.662 -1.338,3 -3,3 H 26.200211 c -1.662,0 -3,-1.338 -3,-3 v -5.739519 c 0,-1.662 1.338,-3 3,-3 z" />
    <g
       aria-label="RPM Attack"
       id="text8661"
       style="font-size:7.76111px;line-height:1.25;stroke-width:0.264583"
       transform="translate(-41.563789,32.062011)">
      <path
         d="m 79.120886,11.608692 q 1.032227,0 1.521177,0.395817 0.496712,0.388055 0.496712,1.179689 0,0.442383 -0.162984,0.737305 -0.162983,0.294922 -0.4191,0.473428 -0.248355,0.170744 -0.527755,0.271639 l 1.521177,2.483556 h -0.814916 l -1.342672,-2.289528 h -1.102078 v 2.289528 h -0.6985 v -5.541434 z m -0.03881,0.605367 h -0.791633 v 2.056694 h 0.830439 q 0.675216,0 0.985661,-0.263878 0.310444,-0.271638 0.310444,-0.791633 0,-0.543278 -0.325966,-0.76835 -0.325967,-0.232833 -1.008945,-0.232833 z"
         id="path10206" />
      <path
         d="m 83.886206,11.608692 q 1.086556,0 1.583267,0.426861 0.496711,0.426861 0.496711,1.202972 0,0.457906 -0.20955,0.861484 -0.201789,0.395816 -0.690739,0.644172 -0.481189,0.248356 -1.311628,0.248356 h -0.636411 v 2.157589 h -0.6985 v -5.541434 z m -0.06209,0.597606 h -0.706261 v 2.188633 h 0.5588 q 0.791633,0 1.179689,-0.256117 0.388056,-0.256116 0.388056,-0.869244 0,-0.535517 -0.341489,-0.799395 -0.341489,-0.263877 -1.078795,-0.263877 z"
         id="path10208" />
      <path
         d="M 89.559575,17.150126 87.735714,12.29167 h -0.03104 q 0.02328,0.240594 0.03881,0.651933 0.01552,0.403578 0.01552,0.845961 v 3.360562 h -0.644173 v -5.541434 h 1.032228 l 1.707445,4.54025 h 0.03104 l 1.738489,-4.54025 H 92.6485 v 5.541434 h -0.690739 v -3.407128 q 0,-0.403578 0.01552,-0.799395 0.02328,-0.395816 0.03881,-0.644172 h -0.03104 l -1.847144,4.850695 z"
         id="path10210" />
      <path
         d="M 99.649018,17.150126 98.981562,15.43492 h -2.196394 l -0.659695,1.715206 h -0.706261 l 2.16535,-5.564717 h 0.62865 l 2.157588,5.564717 z m -1.497894,-4.012495 q -0.02328,-0.06209 -0.07761,-0.225072 -0.05433,-0.162984 -0.108655,-0.333728 -0.04657,-0.178506 -0.07761,-0.271639 -0.05433,0.240595 -0.124178,0.473428 -0.06985,0.225072 -0.116417,0.357011 l -0.62865,1.6764 h 1.754011 z"
         id="path10212" />
      <path
         d="m 102.4275,16.668937 q 0.15522,0 0.3182,-0.02328 0.16299,-0.03104 0.26388,-0.06209 v 0.519995 q -0.10866,0.05433 -0.31044,0.08537 -0.20179,0.03881 -0.38806,0.03881 -0.32597,0 -0.60537,-0.108656 -0.27164,-0.116417 -0.44238,-0.395817 -0.17074,-0.2794 -0.17074,-0.783872 V 13.51793 h -0.58985 v -0.325966 l 0.59761,-0.271639 0.27164,-0.884767 h 0.40357 v 0.954617 h 1.20298 v 0.527755 h -1.20298 v 2.405945 q 0,0.380294 0.17851,0.566561 0.18627,0.178506 0.47343,0.178506 z"
         id="path10214" />
      <path
         d="m 105.22926,16.668937 q 0.15522,0 0.3182,-0.02328 0.16299,-0.03104 0.26388,-0.06209 v 0.519995 q -0.10865,0.05433 -0.31044,0.08537 -0.20179,0.03881 -0.38806,0.03881 -0.32597,0 -0.60537,-0.108656 -0.27163,-0.116417 -0.44238,-0.395817 -0.17074,-0.2794 -0.17074,-0.783872 V 13.51793 h -0.58985 v -0.325966 l 0.59761,-0.271639 0.27164,-0.884767 h 0.40357 v 0.954617 h 1.20298 v 0.527755 h -1.20298 v 2.405945 q 0,0.380294 0.17851,0.566561 0.18627,0.178506 0.47343,0.178506 z"
         id="path10216" />
      <path
         d="m 108.21729,12.92032 q 0.76059,0 1.12536,0.333728 0.36477,0.333727 0.36477,1.063272 v 2.832806 h -0.49671 l -0.13194,-0.589845 h -0.031 q -0.27164,0.341489 -0.57433,0.504472 -0.29492,0.162984 -0.82267,0.162984 -0.56657,0 -0.9391,-0.294923 -0.37253,-0.302683 -0.37253,-0.939094 0,-0.620889 0.48895,-0.954617 0.48895,-0.341489 1.50565,-0.372533 L 109.04,14.64329 v -0.248356 q 0,-0.519994 -0.22507,-0.721783 -0.22507,-0.201789 -0.63641,-0.201789 -0.32597,0 -0.62089,0.100894 -0.29492,0.09313 -0.55104,0.217311 L 106.797,13.277331 q 0.27164,-0.147461 0.64418,-0.248356 0.37253,-0.108655 0.77611,-0.108655 z m 0.20179,2.219678 q -0.77612,0.03104 -1.0788,0.248355 -0.29492,0.217311 -0.29492,0.613128 0,0.34925 0.20955,0.512233 0.21731,0.162984 0.55104,0.162984 0.52775,0 0.877,-0.287161 0.34925,-0.294923 0.34925,-0.900289 v -0.372534 z"
         id="path10218" />
      <path
         d="m 112.66441,17.227737 q -0.55104,0 -0.98566,-0.225073 -0.42686,-0.225072 -0.67522,-0.6985 -0.24059,-0.473427 -0.24059,-1.210733 0,-0.76835 0.25611,-1.249539 0.25612,-0.481189 0.69074,-0.706261 0.44238,-0.225072 1.00118,-0.225072 0.31821,0 0.61313,0.06985 0.29492,0.06209 0.48119,0.155222 l -0.20955,0.566561 q -0.18627,-0.06985 -0.43462,-0.131939 -0.24836,-0.06209 -0.46567,-0.06209 -1.22625,0 -1.22625,1.575506 0,0.752828 0.29492,1.156405 0.30268,0.395817 0.89253,0.395817 0.34149,0 0.5976,-0.06985 0.26388,-0.06985 0.48119,-0.170744 v 0.605366 q -0.20955,0.108656 -0.46567,0.162984 -0.24835,0.06209 -0.60536,0.06209 z"
         id="path10220" />
      <path
         d="m 115.39632,14.332842 q 0,0.124178 -0.0155,0.325967 -0.008,0.201789 -0.0155,0.34925 h 0.0311 q 0.0466,-0.06209 0.1397,-0.178506 0.0931,-0.116416 0.18626,-0.232833 0.1009,-0.124178 0.17075,-0.201789 l 1.32715,-1.404761 h 0.79939 l -1.68416,1.777294 1.80058,2.382662 h -0.82268 l -1.44357,-1.940278 -0.47342,0.411339 v 1.528939 h -0.67522 v -5.898445 h 0.67522 z"
         id="path10222" />
    </g>
  </g>
</svg>
