<?xml version="1.0" encoding="UTF-8" standalone="no"?>
<!-- Created with Inkscape (http://www.inkscape.org/) -->

<svg
   width="114.9129mm"
   height="12.740001mm"
   viewBox="0 0 114.9129 12.74"
   version="1.1"
   id="svg5"
   sodipodi:docname="sniffing_attack_button.svg"
   inkscape:version="1.2.2 (b0a8486541, 2022-12-01)"
   xmlns:inkscape="http://www.inkscape.org/namespaces/inkscape"
   xmlns:sodipodi="http://sodipodi.sourceforge.net/DTD/sodipodi-0.dtd"
   xmlns="http://www.w3.org/2000/svg"
   xmlns:svg="http://www.w3.org/2000/svg">
  <sodipodi:namedview
     id="namedview7"
     pagecolor="#ffffff"
     bordercolor="#666666"
     borderopacity="1.0"
     inkscape:showpageshadow="2"
     inkscape:pageopacity="0.0"
     inkscape:pagecheckerboard="0"
     inkscape:deskcolor="#d1d1d1"
     inkscape:document-units="mm"
     showgrid="false"
     inkscape:zoom="1.9951192"
     inkscape:cx="228.30716"
     inkscape:cy="75.935313"
     inkscape:window-width="1898"
     inkscape:window-height="1008"
     inkscape:window-x="0"
     inkscape:window-y="0"
     inkscape:window-maximized="1"
     inkscape:current-layer="layer1">
    <inkscape:grid
       type="xygrid"
       id="grid6030" />
  </sodipodi:namedview>
  <defs
     id="defs2" />
  <rect
     style="fill:#ffffff;fill-opacity:0.4;stroke:#000000;stroke-width:0.989591;stroke-linecap:round;stroke-linejoin:round;stroke-dasharray:none;stroke-dashoffset:5.66929"
     id="rect26628"
     width="113.92332"
     height="11.750409"
     x="0.4947955"
     y="0.49479583"
     rx="3.0002742"
     ry="2.9376023" />
  <g
     inkscape:label="Layer 1"
     inkscape:groupmode="layer"
     id="layer1"
     transform="translate(-22.374673,-57.499651)">
    <g
       aria-label="Sniffing/Replay Attack"
       id="text24710"
       style="font-size:7.7611px;line-height:1.25;text-align:center;text-anchor:middle;stroke-width:0.264583">
      <path
         d="m 43.586798,64.424567 q 0,0.737304 -0.535515,1.148642 -0.535516,0.411339 -1.443565,0.411339 -0.465666,0 -0.861482,-0.06985 -0.395816,-0.06985 -0.659694,-0.194028 v -0.667454 q 0.2794,0.124177 0.690738,0.225072 0.4191,0.100894 0.861482,0.100894 0.620888,0 0.931332,-0.240594 0.318205,-0.240594 0.318205,-0.651933 0,-0.271638 -0.116416,-0.457905 -0.116417,-0.186266 -0.403577,-0.341488 -0.2794,-0.162983 -0.783871,-0.341488 -0.70626,-0.256117 -1.071032,-0.628649 -0.357011,-0.372533 -0.357011,-1.016704 0,-0.442383 0.225072,-0.752827 0.225072,-0.318205 0.620888,-0.488949 0.403577,-0.170745 0.923571,-0.170745 0.457905,0 0.838199,0.08537 0.380294,0.08537 0.690738,0.225072 l -0.217311,0.597605 q -0.287161,-0.124178 -0.628649,-0.20955 -0.333727,-0.08537 -0.698499,-0.08537 -0.519994,0 -0.783871,0.225072 -0.263878,0.217311 -0.263878,0.582083 0,0.279399 0.116417,0.465666 0.116416,0.186266 0.380294,0.333727 0.263877,0.147461 0.714021,0.318205 0.488949,0.178505 0.822677,0.388055 0.341488,0.201789 0.512232,0.488949 0.178505,0.287161 0.178505,0.721783 z"
         id="path27255" />
      <path
         d="m 46.613626,61.669376 q 0.745065,0 1.125359,0.364772 0.380294,0.35701 0.380294,1.164165 v 2.708624 h -0.675215 v -2.662058 q 0,-1.001181 -0.931332,-1.001181 -0.690738,0 -0.954616,0.388055 -0.263877,0.388055 -0.263877,1.117598 v 2.157586 h -0.682977 v -4.15995 H 45.1623 l 0.100894,0.56656 H 45.302 q 0.201789,-0.325966 0.558799,-0.481188 0.357011,-0.162983 0.752827,-0.162983 z"
         id="path27257" />
      <path
         d="m 49.756872,60.187006 q 0.155222,0 0.271638,0.108655 0.124178,0.100895 0.124178,0.325967 0,0.21731 -0.124178,0.325966 -0.116416,0.108655 -0.271638,0.108655 -0.170745,0 -0.287161,-0.108655 -0.116417,-0.108656 -0.116417,-0.325966 0,-0.225072 0.116417,-0.325967 0.116416,-0.108655 0.287161,-0.108655 z m 0.333727,1.559981 v 4.15995 h -0.682977 v -4.15995 z"
         id="path27259" />
      <path
         d="m 53.326973,62.274742 h -1.047748 v 3.632195 h -0.682977 v -3.632195 h -0.729543 v -0.318205 l 0.729543,-0.232833 V 61.48311 q 0,-0.807155 0.357011,-1.156404 0.35701,-0.357011 0.99342,-0.357011 0.248355,0 0.450144,0.04657 0.20955,0.03881 0.357011,0.09313 l -0.178506,0.535516 q -0.124177,-0.03881 -0.28716,-0.07761 -0.162983,-0.03881 -0.333728,-0.03881 -0.341488,0 -0.512232,0.232833 -0.162983,0.225072 -0.162983,0.714022 v 0.271638 h 1.047748 z m 2.669819,0 h -1.047749 v 3.632195 h -0.682977 v -3.632195 h -0.729543 v -0.318205 l 0.729543,-0.232833 V 61.48311 q 0,-0.807155 0.357011,-1.156404 0.35701,-0.357011 0.993421,-0.357011 0.248355,0 0.450143,0.04657 0.20955,0.03881 0.357011,0.09313 l -0.178505,0.535516 q -0.124178,-0.03881 -0.287161,-0.07761 -0.162983,-0.03881 -0.333727,-0.03881 -0.341489,0 -0.512233,0.232833 -0.162983,0.225072 -0.162983,0.714022 v 0.271638 h 1.047749 z m 1.102076,-2.087736 q 0.155222,0 0.271638,0.108655 0.124178,0.100895 0.124178,0.325967 0,0.21731 -0.124178,0.325966 -0.116416,0.108655 -0.271638,0.108655 -0.170745,0 -0.287161,-0.108655 -0.116417,-0.108656 -0.116417,-0.325966 0,-0.225072 0.116417,-0.325967 0.116416,-0.108655 0.287161,-0.108655 z m 0.333727,1.559981 v 4.15995 h -0.682977 v -4.15995 z"
         id="path27261" />
      <path
         d="m 60.75434,61.669376 q 0.745065,0 1.125359,0.364772 0.380294,0.35701 0.380294,1.164165 v 2.708624 h -0.675216 v -2.662058 q 0,-1.001181 -0.931332,-1.001181 -0.690738,0 -0.954615,0.388055 -0.263877,0.388055 -0.263877,1.117598 v 2.157586 h -0.682977 v -4.15995 h 0.551038 l 0.100894,0.56656 h 0.03881 q 0.201788,-0.325966 0.558799,-0.481188 0.35701,-0.162983 0.752827,-0.162983 z"
         id="path27263" />
      <path
         d="m 65.022945,61.669376 q 0.411338,0 0.737304,0.155222 0.333728,0.155222 0.566561,0.473427 h 0.03881 l 0.09313,-0.551038 h 0.543277 v 4.2298 q 0,0.892526 -0.457905,1.34267 -0.450143,0.450144 -1.404759,0.450144 -0.915809,0 -1.497892,-0.263878 v -0.628649 q 0.613127,0.325966 1.536698,0.325966 0.535516,0 0.838199,-0.318205 0.310444,-0.310444 0.310444,-0.853721 v -0.162983 q 0,-0.09313 0.0078,-0.263877 0.0078,-0.178506 0.01552,-0.248355 h -0.03105 q -0.419099,0.628649 -1.288342,0.628649 -0.807154,0 -1.265059,-0.566561 -0.450144,-0.56656 -0.450144,-1.583264 0,-0.993421 0.450144,-1.575503 0.457905,-0.589844 1.257298,-0.589844 z m 0.09313,0.574322 q -0.519994,0 -0.807154,0.419099 -0.287161,0.411338 -0.287161,1.179687 0,0.768349 0.279399,1.179687 0.287161,0.403577 0.830438,0.403577 0.628649,0 0.91581,-0.333727 0.287161,-0.341488 0.287161,-1.094315 v -0.162983 q 0,-0.853721 -0.294922,-1.218493 -0.294922,-0.372532 -0.923571,-0.372532 z"
         id="path27265" />
      <path
         d="m 70.471234,60.365511 -2.064453,5.541426 h -0.667454 l 2.064452,-5.541426 z"
         id="path27267" />
      <path
         d="m 72.830606,60.365511 q 1.032226,0 1.521175,0.395816 0.496711,0.388055 0.496711,1.179688 0,0.442382 -0.162983,0.737304 -0.162983,0.294922 -0.4191,0.473427 -0.248355,0.170744 -0.527755,0.271639 l 1.521176,2.483552 h -0.814915 l -1.342671,-2.289525 h -1.102076 v 2.289525 h -0.698499 v -5.541426 z m -0.03881,0.605366 h -0.791632 v 2.056692 h 0.830438 q 0.675215,0 0.985659,-0.263878 0.310444,-0.271638 0.310444,-0.791632 0,-0.543277 -0.325966,-0.768349 -0.325966,-0.232833 -1.008943,-0.232833 z"
         id="path27269" />
      <path
         d="m 77.642488,61.669376 q 0.535516,0 0.915809,0.232833 0.388055,0.232833 0.589844,0.659694 0.20955,0.419099 0.20955,0.985659 v 0.411339 h -2.848324 q 0.01552,0.70626 0.357011,1.078792 0.349249,0.364772 0.970137,0.364772 0.395816,0 0.698499,-0.06985 0.310444,-0.07761 0.63641,-0.217311 v 0.597605 q -0.318205,0.1397 -0.628649,0.201789 -0.310444,0.06985 -0.737304,0.06985 -0.589844,0 -1.047749,-0.240594 -0.450144,-0.240595 -0.70626,-0.714022 -0.248355,-0.481188 -0.248355,-1.171926 0,-0.682976 0.225072,-1.171926 0.232833,-0.488949 0.644171,-0.752826 0.4191,-0.263878 0.970138,-0.263878 z m -0.0078,0.558799 q -0.48895,0 -0.77611,0.318205 -0.2794,0.310444 -0.333728,0.869244 h 2.11878 q -0.0078,-0.527755 -0.248355,-0.853721 -0.240594,-0.333728 -0.760587,-0.333728 z"
         id="path27271" />
      <path
         d="m 82.392275,61.669376 q 0.768349,0 1.234015,0.535516 0.473427,0.535516 0.473427,1.614309 0,1.06327 -0.473427,1.614309 -0.465666,0.551038 -1.241776,0.551038 -0.481188,0 -0.799393,-0.178506 -0.310444,-0.186266 -0.48895,-0.42686 h -0.04657 q 0.01552,0.131939 0.03104,0.333727 0.01552,0.201789 0.01552,0.34925 v 1.707442 h -0.682977 v -6.022614 h 0.5588 l 0.09313,0.56656 h 0.03104 q 0.186267,-0.271638 0.48895,-0.457904 0.302682,-0.186267 0.807154,-0.186267 z m -0.124178,0.574322 q -0.63641,0 -0.900287,0.35701 -0.256117,0.357011 -0.271639,1.086554 v 0.131939 q 0,0.768349 0.248355,1.187448 0.256117,0.411338 0.939093,0.411338 0.380294,0 0.620888,-0.209549 0.248356,-0.20955 0.364772,-0.566561 0.124178,-0.364771 0.124178,-0.830437 0,-0.714021 -0.2794,-1.140882 -0.271638,-0.42686 -0.84596,-0.42686 z"
         id="path27273" />
      <path
         d="m 85.869243,65.906937 h -0.682977 v -5.898436 h 0.682977 z"
         id="path27275" />
      <path
         d="m 88.76413,61.677137 q 0.760588,0 1.12536,0.333728 0.364771,0.333727 0.364771,1.06327 v 2.832802 h -0.49671 l -0.131939,-0.589844 h -0.03104 q -0.271639,0.341488 -0.574321,0.504472 -0.294922,0.162983 -0.822677,0.162983 -0.56656,0 -0.939093,-0.294922 -0.372533,-0.302683 -0.372533,-0.939093 0,-0.620888 0.488949,-0.954616 0.48895,-0.341488 1.505654,-0.372532 l 0.70626,-0.02328 V 63.15175 q 0,-0.519993 -0.225072,-0.721782 -0.225072,-0.201789 -0.63641,-0.201789 -0.325966,0 -0.620888,0.100895 -0.294922,0.09313 -0.551038,0.21731 l -0.20955,-0.512232 q 0.271639,-0.147461 0.644171,-0.248355 0.372533,-0.108656 0.77611,-0.108656 z m 0.201789,2.219675 q -0.77611,0.03104 -1.078793,0.248355 -0.294922,0.217311 -0.294922,0.613127 0,0.349249 0.20955,0.512232 0.217311,0.162984 0.551038,0.162984 0.527755,0 0.877004,-0.287161 0.34925,-0.294922 0.34925,-0.900288 v -0.372533 z"
         id="path27277" />
      <path
         d="m 90.890679,61.746987 h 0.729544 l 0.900287,2.367136 q 0.116417,0.310444 0.20955,0.597604 0.09313,0.2794 0.1397,0.535516 h 0.03104 q 0.04657,-0.194027 0.147461,-0.504471 0.100895,-0.318205 0.20955,-0.636411 l 0.84596,-2.359374 h 0.737304 l -1.792814,4.734271 q -0.217311,0.589844 -0.56656,0.939093 -0.341488,0.34925 -0.946854,0.34925 -0.186267,0 -0.325966,-0.02328 -0.1397,-0.01552 -0.240595,-0.03881 v -0.543277 q 0.08537,0.01552 0.201789,0.03104 0.124178,0.01552 0.256116,0.01552 0.357011,0 0.574322,-0.201788 0.225072,-0.201789 0.349249,-0.535516 l 0.217311,-0.551038 z"
         id="path27279" />
      <path
         d="m 101.08877,65.906937 -0.66746,-1.715203 h -2.196391 l -0.659693,1.715203 h -0.70626 l 2.165347,-5.564709 h 0.628649 l 2.157588,5.564709 z m -1.497897,-4.012489 q -0.02328,-0.06209 -0.07761,-0.225072 -0.05433,-0.162983 -0.108655,-0.333727 -0.04657,-0.178505 -0.07761,-0.271639 -0.05433,0.240594 -0.124178,0.473427 -0.06985,0.225072 -0.116416,0.357011 l -0.62865,1.676398 h 1.754006 z"
         id="path27281" />
      <path
         d="m 103.86724,65.425748 q 0.15522,0 0.3182,-0.02328 0.16299,-0.03104 0.26388,-0.06209 v 0.519994 q -0.10865,0.05433 -0.31044,0.08537 -0.20179,0.03881 -0.38806,0.03881 -0.32596,0 -0.60536,-0.108656 -0.27164,-0.116416 -0.44239,-0.395816 -0.17074,-0.279399 -0.17074,-0.783871 v -2.421463 h -0.58984 V 61.94878 l 0.5976,-0.271639 0.27164,-0.884765 h 0.40358 v 0.954615 h 1.20297 v 0.527755 h -1.20297 v 2.405941 q 0,0.380294 0.1785,0.56656 0.18627,0.178505 0.47343,0.178505 z"
         id="path27283" />
      <path
         d="m 106.669,65.425748 q 0.15522,0 0.31821,-0.02328 0.16298,-0.03104 0.26387,-0.06209 v 0.519994 q -0.10865,0.05433 -0.31044,0.08537 -0.20179,0.03881 -0.38806,0.03881 -0.32596,0 -0.60536,-0.108656 -0.27164,-0.116416 -0.44238,-0.395816 -0.17075,-0.279399 -0.17075,-0.783871 v -2.421463 h -0.58984 V 61.94878 l 0.5976,-0.271639 0.27164,-0.884765 h 0.40358 v 0.954615 h 1.20297 v 0.527755 h -1.20297 v 2.405941 q 0,0.380294 0.1785,0.56656 0.18627,0.178505 0.47343,0.178505 z"
         id="path27285" />
      <path
         d="m 109.65703,61.677137 q 0.76058,0 1.12535,0.333728 0.36478,0.333727 0.36478,1.06327 v 2.832802 h -0.49671 l -0.13194,-0.589844 h -0.0311 q -0.27164,0.341488 -0.57432,0.504472 -0.29492,0.162983 -0.82268,0.162983 -0.56656,0 -0.93909,-0.294922 -0.37253,-0.302683 -0.37253,-0.939093 0,-0.620888 0.48895,-0.954616 0.48895,-0.341488 1.50565,-0.372532 l 0.70626,-0.02328 V 63.15175 q 0,-0.519993 -0.22507,-0.721782 -0.22507,-0.201789 -0.63641,-0.201789 -0.32597,0 -0.62089,0.100895 -0.29492,0.09313 -0.55104,0.21731 l -0.20955,-0.512232 q 0.27164,-0.147461 0.64418,-0.248355 0.37253,-0.108656 0.77611,-0.108656 z m 0.20178,2.219675 q -0.77611,0.03104 -1.07879,0.248355 -0.29492,0.217311 -0.29492,0.613127 0,0.349249 0.20955,0.512232 0.21731,0.162984 0.55104,0.162984 0.52775,0 0.877,-0.287161 0.34925,-0.294922 0.34925,-0.900288 v -0.372533 z"
         id="path27287" />
      <path
         d="m 114.10414,65.984548 q -0.55104,0 -0.98566,-0.225072 -0.42686,-0.225072 -0.67522,-0.698499 -0.24059,-0.473427 -0.24059,-1.210732 0,-0.768349 0.25612,-1.249537 0.25611,-0.481188 0.69073,-0.70626 0.44239,-0.225072 1.00119,-0.225072 0.3182,0 0.61312,0.06985 0.29492,0.06209 0.48119,0.155222 l -0.20955,0.56656 q -0.18627,-0.06985 -0.43462,-0.131938 -0.24836,-0.06209 -0.46567,-0.06209 -1.22625,0 -1.22625,1.575503 0,0.752827 0.29492,1.156404 0.30268,0.395816 0.89253,0.395816 0.34149,0 0.5976,-0.06985 0.26388,-0.06985 0.48119,-0.170744 v 0.605366 q -0.20955,0.108655 -0.46566,0.162983 -0.24836,0.06209 -0.60537,0.06209 z"
         id="path27289" />
      <path
         d="m 116.83605,63.089657 q 0,0.124178 -0.0155,0.325967 -0.008,0.201788 -0.0155,0.349249 h 0.031 q 0.0466,-0.06209 0.13969,-0.178505 0.0931,-0.116417 0.18627,-0.232833 0.1009,-0.124178 0.17075,-0.201789 l 1.32714,-1.404759 h 0.7994 l -1.68416,1.777292 1.80057,2.382658 h -0.82267 l -1.44357,-1.940275 -0.47342,0.411338 v 1.528937 h -0.67522 v -5.898436 h 0.67522 z"
         id="path27291" />
    </g>
  </g>
</svg>
