<?xml version="1.0" encoding="UTF-8" standalone="no"?>
<!-- Created with Inkscape (http://www.inkscape.org/) -->

<svg
   width="67.165031mm"
   height="12.704519mm"
   viewBox="0 0 67.165031 12.704519"
   version="1.1"
   id="svg5"
   sodipodi:docname="reverse_steering_attack_button.svg"
   inkscape:version="1.2.2 (b0a8486541, 2022-12-01)"
   inkscape:export-filename="replay_attack_button.svg"
   inkscape:export-xdpi="96"
   inkscape:export-ydpi="96"
   xmlns:inkscape="http://www.inkscape.org/namespaces/inkscape"
   xmlns:sodipodi="http://sodipodi.sourceforge.net/DTD/sodipodi-0.dtd"
   xmlns="http://www.w3.org/2000/svg"
   xmlns:svg="http://www.w3.org/2000/svg">
  <sodipodi:namedview
     id="namedview7"
     pagecolor="#ffffff"
     bordercolor="#666666"
     borderopacity="1.0"
     inkscape:showpageshadow="2"
     inkscape:pageopacity="0.0"
     inkscape:pagecheckerboard="0"
     inkscape:deskcolor="#d1d1d1"
     inkscape:document-units="mm"
     showgrid="false"
     inkscape:zoom="1.9951192"
     inkscape:cx="156.88286"
     inkscape:cy="26.314218"
     inkscape:window-width="1898"
     inkscape:window-height="1008"
     inkscape:window-x="0"
     inkscape:window-y="0"
     inkscape:window-maximized="1"
     inkscape:current-layer="layer1" />
  <defs
     id="defs2" />
  <g
     inkscape:label="Layer 1"
     inkscape:groupmode="layer"
     id="layer1"
     transform="translate(-22.717711,-39.949462)">
    <path
       id="rect8286"
       style="fill:#ffffff;fill-opacity:0.398449;stroke:#000000;stroke-width:0.964999;stroke-linecap:round"
       d="m 26.200211,40.431961 h 60.200035 c 1.662,0 3,1.338 3,3 v 5.739519 c 0,1.662 -1.338,3 -3,3 H 26.200211 c -1.662,0 -3,-1.338 -3,-3 v -5.739519 c 0,-1.662 1.338,-3 3,-3 z" />
    <g
       aria-label="Unlock Attack"
       id="text8657"
       style="font-size:7.76111px;line-height:1.25;stroke-width:0.264583"
       transform="translate(0.681672,26.138919)">
      <path
         d="m 35.350414,21.117419 q 0,0.574322 -0.232833,1.039989 -0.232834,0.457906 -0.714023,0.729545 -0.473427,0.263877 -1.210733,0.263877 -1.032228,0 -1.575506,-0.5588 -0.535516,-0.566561 -0.535516,-1.490133 v -3.570111 h 0.6985 v 3.593394 q 0,0.675217 0.357011,1.04775 0.364772,0.372534 1.094317,0.372534 0.752827,0 1.086555,-0.395817 0.341489,-0.403578 0.341489,-1.032228 v -3.585633 h 0.690739 z"
         id="path10225" />
      <path
         d="m 38.718743,18.835653 q 0.745067,0 1.125361,0.364772 0.380295,0.357011 0.380295,1.164166 v 2.708628 h -0.675217 v -2.662061 q 0,-1.001183 -0.931333,-1.001183 -0.690739,0 -0.954617,0.388055 -0.263878,0.388056 -0.263878,1.1176 v 2.157589 h -0.682977 v -4.159955 h 0.551038 l 0.100895,0.566561 h 0.0388 q 0.201789,-0.325967 0.5588,-0.481189 0.357012,-0.162983 0.752828,-0.162983 z"
         id="path10227" />
      <path
         d="m 42.195722,23.073219 h -0.682978 v -5.898444 h 0.682978 z"
         id="path10229" />
      <path
         d="m 47.131784,20.98548 q 0,1.032228 -0.527756,1.598789 -0.519994,0.566561 -1.412522,0.566561 -0.551039,0 -0.985661,-0.248355 -0.426861,-0.256117 -0.675217,-0.737306 -0.248355,-0.48895 -0.248355,-1.179689 0,-1.032227 0.519994,-1.591027 0.519995,-0.5588 1.412522,-0.5588 0.566561,0 0.993423,0.256116 0.434622,0.248356 0.675216,0.729545 0.248356,0.473427 0.248356,1.164166 z m -3.14325,0 q 0,0.737306 0.287161,1.171928 0.294922,0.426861 0.931333,0.426861 0.62865,0 0.923572,-0.426861 0.294923,-0.434622 0.294923,-1.171928 0,-0.737305 -0.294923,-1.156405 -0.294922,-0.4191 -0.931333,-0.4191 -0.636411,0 -0.923572,0.4191 -0.287161,0.4191 -0.287161,1.156405 z"
         id="path10231" />
      <path
         d="m 49.879214,23.15083 q -0.551039,0 -0.985661,-0.225072 -0.426861,-0.225072 -0.675217,-0.6985 -0.240594,-0.473428 -0.240594,-1.210733 0,-0.76835 0.256116,-1.249539 0.256117,-0.481189 0.690739,-0.706261 0.442383,-0.225072 1.001183,-0.225072 0.318206,0 0.613128,0.06985 0.294922,0.06209 0.481189,0.155222 l -0.20955,0.566561 q -0.186267,-0.06985 -0.434622,-0.131939 -0.248356,-0.06209 -0.465667,-0.06209 -1.226255,0 -1.226255,1.575506 0,0.752827 0.294922,1.156405 0.302683,0.395817 0.892528,0.395817 0.341489,0 0.597605,-0.06985 0.263878,-0.06985 0.481189,-0.170744 v 0.605366 q -0.20955,0.108656 -0.465667,0.162984 -0.248355,0.06209 -0.605366,0.06209 z"
         id="path10233" />
      <path
         d="m 52.611122,20.255936 q 0,0.124178 -0.01552,0.325967 -0.0078,0.201788 -0.01552,0.34925 h 0.03104 q 0.04657,-0.06209 0.1397,-0.178506 0.09313,-0.116417 0.186267,-0.232833 0.100894,-0.124178 0.170744,-0.201789 l 1.32715,-1.404761 h 0.799395 l -1.684162,1.777294 1.800578,2.382661 H 54.528116 L 53.08455,21.132941 52.611122,21.54428 v 1.528939 h -0.675217 v -5.898444 h 0.675217 z"
         id="path10235" />
      <path
         d="m 61.668343,23.073219 -0.667455,-1.715205 h -2.196395 l -0.659694,1.715205 h -0.706261 l 2.16535,-5.564716 h 0.62865 l 2.157589,5.564716 z m -1.497894,-4.012494 q -0.02328,-0.06209 -0.07761,-0.225072 -0.05433,-0.162984 -0.108656,-0.333728 -0.04657,-0.178506 -0.07761,-0.271639 -0.05433,0.240594 -0.124178,0.473428 -0.06985,0.225072 -0.116416,0.357011 l -0.62865,1.6764 h 1.754011 z"
         id="path10237" />
      <path
         d="m 64.44682,22.59203 q 0.155222,0 0.318205,-0.02328 0.162984,-0.03104 0.263878,-0.06209 v 0.519995 q -0.108656,0.05433 -0.310444,0.08537 -0.201789,0.0388 -0.388056,0.0388 -0.325967,0 -0.605367,-0.108655 -0.271639,-0.116417 -0.442383,-0.395817 -0.170744,-0.2794 -0.170744,-0.783872 v -2.421467 h -0.589845 v -0.325966 l 0.597606,-0.271639 0.271639,-0.884767 h 0.403577 v 0.954617 h 1.202973 v 0.527755 h -1.202973 v 2.405945 q 0,0.380294 0.178506,0.566561 0.186267,0.178505 0.473428,0.178505 z"
         id="path10239" />
      <path
         d="m 67.248581,22.59203 q 0.155223,0 0.318206,-0.02328 0.162983,-0.03104 0.263878,-0.06209 v 0.519995 q -0.108656,0.05433 -0.310445,0.08537 -0.201789,0.0388 -0.388055,0.0388 -0.325967,0 -0.605367,-0.108655 -0.271639,-0.116417 -0.442383,-0.395817 -0.170745,-0.2794 -0.170745,-0.783872 v -2.421467 h -0.589844 v -0.325966 l 0.597605,-0.271639 0.271639,-0.884767 h 0.403578 v 0.954617 h 1.202972 v 0.527755 h -1.202972 v 2.405945 q 0,0.380294 0.178505,0.566561 0.186267,0.178505 0.473428,0.178505 z"
         id="path10241" />
      <path
         d="m 70.23661,18.843414 q 0.760588,0 1.125361,0.333727 0.364772,0.333728 0.364772,1.063273 v 2.832805 h -0.496711 l -0.131939,-0.589844 h -0.03105 q -0.271638,0.341489 -0.574322,0.504472 -0.294922,0.162983 -0.822678,0.162983 -0.566561,0 -0.939094,-0.294922 -0.372533,-0.302683 -0.372533,-0.939094 0,-0.620889 0.48895,-0.954617 0.48895,-0.341489 1.505655,-0.372533 l 0.706261,-0.02328 v -0.248355 q 0,-0.519995 -0.225072,-0.721784 -0.225072,-0.201788 -0.636411,-0.201788 -0.325967,0 -0.620889,0.100894 -0.294922,0.09313 -0.551039,0.217311 l -0.20955,-0.512233 q 0.271639,-0.147461 0.644172,-0.248356 0.372534,-0.108655 0.776112,-0.108655 z m 0.201788,2.219677 q -0.776111,0.03104 -1.078794,0.248356 -0.294922,0.217311 -0.294922,0.613128 0,0.34925 0.20955,0.512233 0.217311,0.162984 0.551039,0.162984 0.527755,0 0.877005,-0.287162 0.34925,-0.294922 0.34925,-0.900289 v -0.372533 z"
         id="path10243" />
      <path
         d="m 74.683732,23.15083 q -0.551039,0 -0.985662,-0.225072 -0.426861,-0.225072 -0.675216,-0.6985 -0.240595,-0.473428 -0.240595,-1.210733 0,-0.76835 0.256117,-1.249539 0.256117,-0.481189 0.690739,-0.706261 0.442383,-0.225072 1.001183,-0.225072 0.318206,0 0.613128,0.06985 0.294922,0.06209 0.481189,0.155222 l -0.20955,0.566561 q -0.186267,-0.06985 -0.434622,-0.131939 -0.248356,-0.06209 -0.465667,-0.06209 -1.226256,0 -1.226256,1.575506 0,0.752827 0.294923,1.156405 0.302683,0.395817 0.892527,0.395817 0.341489,0 0.597606,-0.06985 0.263878,-0.06985 0.481189,-0.170744 v 0.605366 q -0.20955,0.108656 -0.465667,0.162984 -0.248355,0.06209 -0.605366,0.06209 z"
         id="path10245" />
      <path
         d="m 77.41564,20.255936 q 0,0.124178 -0.01552,0.325967 -0.0078,0.201788 -0.01552,0.34925 h 0.03104 q 0.04657,-0.06209 0.1397,-0.178506 0.09313,-0.116417 0.186266,-0.232833 0.100895,-0.124178 0.170745,-0.201789 l 1.32715,-1.404761 h 0.799394 l -1.684161,1.777294 1.800578,2.382661 H 79.332634 L 77.889067,21.132941 77.41564,21.54428 v 1.528939 h -0.675217 v -5.898444 h 0.675217 z"
         id="path10247" />
    </g>
  </g>
</svg>
