<?xml version="1.0" encoding="UTF-8" standalone="no"?>
<!-- Created with Inkscape (http://www.inkscape.org/) -->

<svg
   width="32mm"
   height="15mm"
   viewBox="0 0 32 15"
   version="1.1"
   id="svg3614"
   sodipodi:docname="wiper_switch.svg"
   xmlns:inkscape="http://www.inkscape.org/namespaces/inkscape"
   xmlns:sodipodi="http://sodipodi.sourceforge.net/DTD/sodipodi-0.dtd"
   xmlns="http://www.w3.org/2000/svg"
   xmlns:svg="http://www.w3.org/2000/svg">
  <sodipodi:namedview
     id="namedview4055"
     pagecolor="#ffffff"
     bordercolor="#666666"
     borderopacity="1.0"
     inkscape:showpageshadow="2"
     inkscape:pageopacity="0.0"
     inkscape:pagecheckerboard="0"
     inkscape:deskcolor="#d1d1d1"
     inkscape:document-units="mm"
     showgrid="false" />
  <defs
     id="defs3611">
    <rect
       x="169.44531"
       y="210.71484"
       width="530.06641"
       height="192.25"
       id="rect4405" />
  </defs>
  <g
     id="layer1"
     transform="translate(-31.798448,-38.565461)">
    <g
       id="g5265"
       transform="matrix(0.18510173,0,0,0.18510173,26.970834,34.601929)">
      <path
         id="rect4340"
         style="fill:#ffffff;fill-opacity:0.4;stroke:#000000;stroke-width:4"
         d="M 45.730336,45.8618 177.82293,40.570133 c 3.96866,-0.158986 14.04856,5.84338 14.04856,9.815222 v 22.585068 c 0,3.971841 -10.0799,9.974208 -14.04856,9.815222 L 45.730336,77.493978 C 41.761678,77.334993 33.798447,74.29643 33.798447,70.324589 v -17.2934 c 0,-3.971842 7.963231,-7.010404 11.931889,-7.169389 z" />
      <g
         aria-label="Wipers"
         transform="matrix(0.26458333,0,0,0.26458333,55.616243,-5.8974455)"
         id="text4403"
         style="font-size:74.6667px;white-space:pre;shape-inside:url(#rect4405);stroke-width:0.377953">
        <path
           d="m 224.99734,274.48021 13.81334,-54.43203 h -7.76534 L 221.04,264.25087 208.64533,220.04818 h -7.46667 l -12.096,44.20269 -10.22934,-44.20269 h -7.76534 l 13.96267,54.43203 h 7.61601 l 12.17067,-44.72536 12.54401,44.72536 z"
           id="path4959" />
        <path
           d="m 250.98131,235.35486 h -6.19734 v 39.12535 h 6.19734 z m 0,-15.30668 h -6.272 v 7.84001 h 6.272 z"
           id="path4961" />
        <path
           d="m 260.38932,290.75755 h 6.27201 v -20.38401 c 3.28533,4.032 6.944,5.824 12.02134,5.824 10.15467,0 16.72534,-8.13867 16.72534,-20.60801 0,-13.14134 -6.42134,-21.35468 -16.80001,-21.35468 -5.30134,0 -9.55734,2.38934 -12.46934,7.01867 v -5.89866 h -5.74934 z m 17.17335,-50.69869 c 6.86933,0 11.34933,6.048 11.34933,15.38134 0,8.88534 -4.55466,14.93334 -11.34933,14.93334 -6.64534,0 -10.90134,-5.97334 -10.90134,-15.15734 0,-9.18401 4.256,-15.15734 10.90134,-15.15734 z"
           id="path4963" />
        <path
           d="m 336.17601,257.0082 c 0,-5.97334 -0.448,-9.55734 -1.568,-12.46934 -2.53867,-6.42134 -8.512,-10.30401 -15.82934,-10.30401 -10.90134,0 -17.92001,8.28801 -17.92001,21.20535 0,12.91734 6.72001,20.75734 17.77068,20.75734 8.96,0 15.15734,-5.07733 16.72534,-13.58934 h -6.272 c -1.71734,5.152 -5.22667,7.84001 -10.22934,7.84001 -3.95734,0 -7.31734,-1.79201 -9.40801,-5.07734 -1.49333,-2.24 -2.016,-4.48 -2.09066,-8.36267 z M 307.504,251.93086 c 0.52267,-7.24267 4.928,-11.94667 11.2,-11.94667 6.34667,0 10.75201,4.928 10.75201,11.94667 z"
           id="path4965" />
        <path
           d="m 344.53866,235.35486 v 39.12535 h 6.272 v -20.30935 c 0.0747,-9.408 3.95734,-13.58934 12.54401,-13.36534 v -6.34666 c -1.04533,-0.14934 -1.64267,-0.22401 -2.38934,-0.22401 -4.032,0 -7.09333,2.38934 -10.67733,8.21334 v -7.09333 z"
           id="path4967" />
        <path
           d="m 397.32796,246.25619 c -0.0747,-7.69067 -5.152,-12.02134 -14.18667,-12.02134 -9.10934,0 -15.00801,4.70401 -15.00801,11.94668 0,6.12267 3.136,9.03467 12.39467,11.27467 l 5.82401,1.41867 c 4.33067,1.04533 6.048,2.61333 6.048,5.376 0,3.73333 -3.65867,6.19734 -9.10934,6.19734 -3.36,0 -6.19733,-0.97067 -7.76533,-2.61334 -0.97067,-1.12 -1.41867,-2.24 -1.79201,-5.00267 h -6.57066 c 0.29866,9.03467 5.376,13.36534 15.60534,13.36534 9.856,0 16.128,-4.85333 16.128,-12.39467 0,-5.824 -3.28533,-9.03467 -11.05067,-10.90134 l -5.97333,-1.41867 c -5.07734,-1.19466 -7.24267,-2.83733 -7.24267,-5.6 0,-3.65867 3.21066,-5.89867 8.288,-5.89867 5.00267,0 7.69067,2.16534 7.84,6.272 z"
           id="path4969" />
      </g>
    </g>
  </g>
</svg>
